<?xml version="1.0" encoding="utf-8"?>
<!-- Generator: Adobe Illustrator 24.1.2, SVG Export Plug-In . SVG Version: 6.00 Build 0)  -->
<svg version="1.1" id="Слой_1" xmlns="http://www.w3.org/2000/svg" xmlns:xlink="http://www.w3.org/1999/xlink" x="0px" y="0px"
	 viewBox="0 0 612 562" style="enable-background:new 0 0 612 562;" xml:space="preserve">
<style type="text/css">
	.st0{fill:#FFFFFF;}
</style>
<g transform="translate(0.000000,562.000000) scale(0.100000,-0.100000)">
	<path class="st0" d="M2633.3,4606l-6-136l-166-14c-580-48-964-404-964-896c0-470,294-736,1016-920l86-22l-6-348l-6-350h-62
		c-138,0-262,148-284,338c-6,50-20,98-32,106s-188,16-390,16h-368l14-140c46-504,410-826,1008-892l124-14v-176V980h160h160v176v176
		l186,24c242,32,418,86,574,182c248,148,376,370,394,684c30,480-196,762-764,956c-98,34-218,70-264,82l-86,22v328
		c0,366-4,358,132,300c112-46,156-108,198-270l22-90l340-4c186-4,350,2,364,10c34,24-20,296-86,422c-136,264-410,430-802,484
		l-168,24v128v126h-160h-158L2633.3,4606z M2657.3,3648v-292l-64,14c-120,26-266,106-302,168c-42,72-44,160-4,254
		c34,84,156,146,286,148h84V3648z M3015.3,2508c134-46,192-82,252-152c48-56,54-76,46-170c-14-172-136-266-340-266h-76v310
		c0,170,6,310,16,310C2921.3,2540,2967.3,2526,3015.3,2508z"/>
</g>
</svg>
