<?xml version="1.0" encoding="utf-8"?>
<!-- Generator: Adobe Illustrator 24.1.2, SVG Export Plug-In . SVG Version: 6.00 Build 0)  -->
<svg version="1.1" id="Слой_1" xmlns="http://www.w3.org/2000/svg" xmlns:xlink="http://www.w3.org/1999/xlink" x="0px" y="0px"
	 viewBox="0 0 612 556" style="enable-background:new 0 0 612 556;" xml:space="preserve">
<g transform="translate(0.000000,556.000000) scale(0.100000,-0.100000)">
	<path d="M4523,4783c-15-21-30-40-33-43c-5-5-169-211-331-415c-39-49-85-107-102-129c-100-122-219-273-228-288c-9-17,2-18,176-18
		h185v-405v-405h365h365v405v405h185c102,0,185,4,185,8s-49,68-108,142c-60,74-224,280-365,458c-141,177-259,322-261,322
		C4553,4820,4538,4803,4523,4783z"/>
	<path d="M2432.9,4774.6c-582-89-1066-397-1387-881c-146-220-243-466-298-755c-22-115-31-398-16-529c74-673,472-1254,1069-1562
		c267-137,525-204,832-216c561-21,1091,191,1488,595c152,155,262,311,363,516c121,248,186,494,196,744l6,142h-115h-115l-7-117
		c-17-308-121-616-294-874c-545-811-1646-1018-2449-460c-362,251-623,648-713,1079c-77,373-27,776,140,1116
		c399,815,1348,1192,2192,870c106-40,271-125,358-184c32-22,61-40,63-40c5,0,147,168,147,175c0,3-45,35-100,71
		c-212,139-446,236-700,289c-109,23-154,27-350,30C2589.9,4786.6,2490.9,4783.6,2432.9,4774.6z"/>
</g>
<path d="M264.1,188l-0.3,6.8l-8.3,0.7c-29,2.4-48.2,20.2-48.2,44.8c0,23.5,14.7,36.8,50.8,46l4.3,1.1l-0.3,17.4l-0.3,17.5h-3.1
	c-6.9,0-13.1-7.4-14.2-16.9c-0.3-2.5-1-4.9-1.6-5.3s-9.4-0.8-19.5-0.8H205l0.7,7c2.3,25.2,20.5,41.3,50.4,44.6l6.2,0.7v8.8v8.9h8h8
	v-8.8v-8.8l9.3-1.2c12.1-1.6,20.9-4.3,28.7-9.1c12.4-7.4,18.8-18.5,19.7-34.2c1.5-24-9.8-38.1-38.2-47.8c-4.9-1.7-10.9-3.5-13.2-4.1
	l-4.3-1.1v-16.4c0-18.3-0.2-17.9,6.6-15c5.6,2.3,7.8,5.4,9.9,13.5l1.1,4.5l17,0.2c9.3,0.2,17.5-0.1,18.2-0.5
	c1.7-1.2-1-14.8-4.3-21.1c-6.8-13.2-20.5-21.5-40.1-24.2l-8.4-1.2v-6.4v-6.3h-8h-7.9L264.1,188z M265.3,235.9v14.6l-3.2-0.7
	c-6-1.3-13.3-5.3-15.1-8.4c-2.1-3.6-2.2-8-0.2-12.7c1.7-4.2,7.8-7.3,14.3-7.4h4.2V235.9z M283.2,292.9c6.7,2.3,9.6,4.1,12.6,7.6
	c2.4,2.8,2.7,3.8,2.3,8.5c-0.7,8.6-6.8,13.3-17,13.3h-3.8v-15.5c0-8.5,0.3-15.5,0.8-15.5C278.5,291.3,280.8,292,283.2,292.9z"/>
</svg>
