<?xml version="1.0" encoding="utf-8"?>
<!-- Generator: Adobe Illustrator 24.1.2, SVG Export Plug-In . SVG Version: 6.00 Build 0)  -->
<svg version="1.1" id="Слой_1" xmlns="http://www.w3.org/2000/svg" xmlns:xlink="http://www.w3.org/1999/xlink" x="0px" y="0px"
	 viewBox="0 0 612 562" style="enable-background:new 0 0 612 562;" xml:space="preserve">
<g transform="translate(0.000000,562.000000) scale(0.100000,-0.100000)">
	<path d="M2546,4670c-545-69-1015-368-1325-844c-203-312-311-763-272-1131c61-568,358-1056,831-1364c92-60,308-164,415-200
		c440-147,960-109,1377,100c120,60,266,153,274,174c4,10-18,42-60,90l-67,74l-84-55c-162-106-347-182-550-226c-86-19-131-23-320-23
		c-237,0-321,12-503,71c-123,40-348,156-447,230c-120,90-276,248-359,364c-107,150-218,394-257,565c-68,306-47,637,58,920
		c153,413,484,759,881,923c177,73,312,106,505,123c359,30,745-76,1047-289c133-93,308-271,399-405c166-246,261-524,278-813l6-114
		h102c84,0,104,3,109,15c9,25-13,261-35,368c-145,717-718,1283-1445,1427C2982,4675,2670,4686,2546,4670z"/>
	<path d="M2698,3733l-3-68l-83-7c-290-24-482-202-482-448c0-235,147-368,508-460l43-11l-3-174l-3-175h-31c-69,0-131,74-142,169
		c-3,25-10,49-16,53s-94,8-195,8h-184l7-70c23-252,205-413,504-446l62-7v-88v-89h80h80v88v88l93,12c121,16,209,43,287,91
		c124,74,188,185,197,342c15,240-98,381-382,478c-49,17-109,35-132,41l-43,11v164c0,183-2,179,66,150c56-23,78-54,99-135l11-45
		l170-2c93-2,175,1,182,5c17,12-10,148-43,211c-68,132-205,215-401,242l-84,12v64v63h-80h-79L2698,3733z M2710,3254v-146l-32,7
		c-60,13-133,53-151,84c-21,36-22,80-2,127c17,42,78,73,143,74h42V3254z M2889,2684c67-23,96-41,126-76c24-28,27-38,23-85
		c-7-86-68-133-170-133h-38v155c0,85,3,155,8,155C2842,2700,2865,2693,2889,2684z"/>
	<path d="M4150,2613c0-10-1-178-3-373l-2-355l-168-5l-167-5l87-110c47-60,112-141,143-180c31-38,105-131,164-205
		c121-153,231-291,261-327l20-24l120,152c66,83,218,273,337,423l217,271l-170,3l-169,2v375v375h-335C4173,2630,4150,2629,4150,2613z
		"/>
</g>
</svg>
