<?xml version="1.0" encoding="utf-8"?>
<!-- Generator: Adobe Illustrator 24.1.2, SVG Export Plug-In . SVG Version: 6.00 Build 0)  -->
<svg version="1.1" id="Слой_1" xmlns="http://www.w3.org/2000/svg" xmlns:xlink="http://www.w3.org/1999/xlink" x="0px" y="0px"
	 viewBox="0 0 612 562" style="enable-background:new 0 0 612 562;" xml:space="preserve">
<g transform="translate(0.000000,562.000000) scale(0.100000,-0.100000)">
	<path d="M2555.5,4683.1c-545-69-1015-368-1325-844c-203-312-311-763-272-1131c61-568,358-1056,831-1364c92-60,308-164,415-200
		c440-147,960-109,1377,100c120,60,266,153,274,174c4,10-18,42-60,90l-67,74l-84-55c-162-106-347-182-550-226c-86-19-131-23-320-23
		c-237,0-321,12-503,71c-123,40-348,156-447,230c-120,90-276,248-359,364c-107,150-218,394-257,565c-68,306-47,637,58,920
		c153,413,484,759,881,923c177,73,312,106,505,123c359,30,745-76,1047-289c133-93,308-271,399-405c166-246,261-524,278-813l6-114
		h102c84,0,104,3,109,15c9,25-13,261-35,368c-145,717-718,1283-1445,1427C2991.5,4688.1,2679.5,4699.1,2555.5,4683.1z"/>
	<path d="M4150,2613c0-10-1-178-3-373l-2-355l-168-5l-167-5l87-110c47-60,112-141,143-180c31-38,105-131,164-205
		c121-153,231-291,261-327l20-24l120,152c66,83,218,273,337,423l217,271l-170,3l-169,2v375v375h-335C4173,2630,4150,2629,4150,2613z
		"/>
</g>
<g transform="translate(0.000000,512.000000) scale(0.100000,-0.100000)">
	<path d="M2689.7,3390.3c-19.2-10.4-20-17.2-20.4-130.6v-105.9l-30.8-7.2c-92.7-22-173.8-64.7-238.1-125.9
		c-97.9-93.1-143.4-209-130.6-332.8c10-97.1,35.2-154.6,98.3-224.9c68.7-76.7,146.2-121.5,363.6-210.2
		c166.2-67.5,222.9-99.9,255.7-145.8c28.4-39.6,35.2-71.1,25.2-118.3c-9.2-43.1-31.2-74.3-71.5-101.1
		c-49.5-33.2-109.9-48.3-175.4-44.7c-113.5,6-227.3,53.9-330.4,139c-28.4,23.6-36.8,26.8-54.3,20c-5.6-2-37.6-40-74.3-88.3
		c-69.9-91.5-72.7-97.5-56.3-120.3c18.8-26.8,105.5-91.9,163.8-123.1c59.5-32,151.8-64.7,215.3-75.9c14.4-2.8,29.2-5.6,33.2-6.8
		c6.4-2,6.8-10.4,6.8-103.5c0-70.3,1.6-104.7,4.8-111.9c9.2-20,19.2-22,113.1-22h86.7l11.6,11.6l11.6,11.6v106.3V1586l9.2,1.6
		c122.3,26.8,200.2,67.5,272.9,143c80.7,83.9,118.7,171.4,124.3,285.3c2.8,61.5-2.4,102.7-18.8,151c-19.6,58.7-37.6,88.3-77.5,128.6
		c-78.3,78.3-154.2,121.1-352,197.4c-234.5,90.7-303.6,148.6-296.9,247.3c1.2,17.2,6,35.6,13.2,51.5
		c37.2,82.7,167.8,129.8,294.1,106.7c77.5-14.4,137-40,212.6-91.1c28-19.2,54.3-34.8,58.7-34.8c20.4,0,27.2,8.8,77.9,99.9
		c27.6,49.9,51.5,94.7,52.3,99.1c9.2,34.8-115.5,119.1-230.5,155.8c-40.4,13.2-111.5,28.8-129,28.8h-10.4v108.3v108.3l-11.6,11.6
		l-11.6,11.6h-87.5C2721.7,3395.5,2696.9,3394.3,2689.7,3390.3z"/>
</g>
</svg>
