<?xml version="1.0" encoding="utf-8"?>
<!-- Generator: Adobe Illustrator 24.1.2, SVG Export Plug-In . SVG Version: 6.00 Build 0)  -->
<svg version="1.1" id="Слой_1" xmlns="http://www.w3.org/2000/svg" xmlns:xlink="http://www.w3.org/1999/xlink" x="0px" y="0px"
	 viewBox="0 0 612 562" style="enable-background:new 0 0 612 562;" xml:space="preserve">
<g transform="translate(0.000000,562.000000) scale(0.100000,-0.100000)">
	<path d="M2423.2,4650c-727-144-1300-710-1445-1427c-22-107-44-343-35-368c5-12,25-15,109-15h102l6,114c17,289,112,567,278,813
		c91,134,266,312,399,405c302,213,688,319,1047,289c193-17,328-50,505-123c397-164,728-510,881-923c105-283,126-614,58-920
		c-39-171-150-415-257-565c-83-116-239-274-359-364c-99-74-324-190-447-230c-182-59-266-71-503-71c-189,0-234,4-320,23
		c-203,44-388,120-550,226l-84,55l-67-74c-42-48-64-80-60-90c8-21,154-114,274-174c417-209,937-247,1377-100c107,36,323,140,415,200
		c473,308,770,796,831,1364c39,368-69,819-272,1131c-310,476-780,775-1325,844C2857.2,4686,2545.2,4675,2423.2,4650z"/>
	<path d="M1414,2984.6l123.6-2.3l-157.5-196.7c-86.4-108.9-197-246.8-244.8-307l-87.2-110.6l-14.5,17.6
		c-21.6,26.1-101.6,126.3-189.5,237.4c-42.8,53.7-96.6,121.2-119.1,148.6c-22.5,28.4-69.8,87.3-103.7,130.8l-63.3,79.8l121.4,3.6
		l6.3,0.2L1414,2984.6z"/>
</g>
</svg>
