<?xml version="1.0" encoding="utf-8"?>
<!-- Generator: Adobe Illustrator 24.1.2, SVG Export Plug-In . SVG Version: 6.00 Build 0)  -->
<svg version="1.1" id="Слой_1" xmlns="http://www.w3.org/2000/svg" xmlns:xlink="http://www.w3.org/1999/xlink" x="0px" y="0px"
	 viewBox="0 0 612 612" style="enable-background:new 0 0 612 612;" xml:space="preserve">
<g transform="translate(0.000000,612.000000) scale(0.100000,-0.100000)">
	<path d="M2845,5364c-836-112-1542-667-1859-1461c-23-60-48-129-56-155l-13-48H799c-106,0-121-2-139-20c-11-11-20-25-20-31
		c0-7,29-66,64-133c298-566,362-688,388-738c37-74,62-89,93-57c12,13,100,173,195,354c95,182,199,380,231,441c33,61,59,121,59,132
		c0,40-35,52-157,52c-67,0-113,4-113,10c0,5,20,55,44,110c161,363,453,681,806,877c166,92,410,175,615,209c132,22,428,25,550,6
		c412-67,774-249,1055-532c431-434,620-1030,519-1632c-36-218-98-391-220-618c-86-159-294-399-458-528c-265-209-562-338-892-386
		c-135-20-400-20-538-1c-388,55-740,229-1039,513c-55,53-85,73-126,86c-107,34-217-16-271-123c-19-37-23-131-7-171
		c13-35,64-94,143-165c364-333,772-524,1274-597c134-19,483-16,625,6c851,130,1553,700,1850,1501c85,228,128,459,137,725
		c13,390-62,740-231,1085c-123,252-254,433-456,635c-364,363-822,586-1344,655C3300,5383,2983,5383,2845,5364z"/>
	<path d="M3050,4295c0-69-3-95-12-95c-7,0-56-5-108-10c-309-33-544-184-635-409c-29-71-49-215-41-290c27-239,172-399,461-509
		c93-35,255-82,284-82c21,0,21-4,21-256v-256l-37,7c-58,10-121,44-147,79c-28,36-51,109-61,190l-7,56h-269c-160,0-270-4-274-10
		c-11-17,16-182,41-254c70-201,237-355,454-420c66-20,221-46,272-46h37l3-127l3-128l113-3l112-3v129v129l88,6c122,9,301,56,400,106
		c107,54,207,147,255,239c53,102,70,178,71,317c0,129-20,222-66,302c-102,178-311,298-685,393l-43,11v231v231l41-7
		c57-9,114-40,142-78c29-39,57-116,57-158v-30h260h260v43c0,64-35,190-72,260c-64,119-204,240-338,290c-69,25-166,45-257,53l-83,7
		v93v94h-120h-120V4295z M3070,3621c0-109-2-200-6-203c-7-8-89,18-160,51c-84,39-109,76-109,161c0,81,24,125,83,158
		c38,21,164,45,185,34C3067,3820,3070,3730,3070,3621z M3343,2804c132-44,197-112,197-204c0-50-27-116-56-142c-34-30-107-56-176-63
		l-68-7v221c0,170,3,221,12,221C3259,2830,3300,2818,3343,2804z"/>
</g>
</svg>
