<?xml version="1.0" encoding="utf-8"?>
<!-- Generator: Adobe Illustrator 24.1.2, SVG Export Plug-In . SVG Version: 6.00 Build 0)  -->
<svg version="1.1" id="Слой_1" xmlns="http://www.w3.org/2000/svg" xmlns:xlink="http://www.w3.org/1999/xlink" x="0px" y="0px"
	 viewBox="0 0 612 562" style="enable-background:new 0 0 612 562;" xml:space="preserve">
<g transform="translate(0.000000,562.000000) scale(0.100000,-0.100000)">
	<path d="M2423.2,4650c-727-144-1300-710-1445-1427c-22-107-44-343-35-368c5-12,25-15,109-15h102l6,114c17,289,112,567,278,813
		c91,134,266,312,399,405c302,213,688,319,1047,289c193-17,328-50,505-123c397-164,728-510,881-923c105-283,126-614,58-920
		c-39-171-150-415-257-565c-83-116-239-274-359-364c-99-74-324-190-447-230c-182-59-266-71-503-71c-189,0-234,4-320,23
		c-203,44-388,120-550,226l-84,55l-67-74c-42-48-64-80-60-90c8-21,154-114,274-174c417-209,937-247,1377-100c107,36,323,140,415,200
		c473,308,770,796,831,1364c39,368-69,819-272,1131c-310,476-780,775-1325,844C2857.2,4686,2545.2,4675,2423.2,4650z"/>
	<path d="M2698,3733l-3-68l-83-7c-290-24-482-202-482-448c0-235,147-368,508-460l43-11l-3-174l-3-175h-31c-69,0-131,74-142,169
		c-3,25-10,49-16,53s-94,8-195,8h-184l7-70c23-252,205-413,504-446l62-7v-88v-89h80h80v88v88l93,12c121,16,209,43,287,91
		c124,74,188,185,197,342c15,240-98,381-382,478c-49,17-109,35-132,41l-43,11v164c0,183-2,179,66,150c56-23,78-54,99-135l11-45
		l170-2c93-2,175,1,182,5c17,12-10,148-43,211c-68,132-205,215-401,242l-84,12v64v63h-80h-79L2698,3733z M2710,3254v-146l-32,7
		c-60,13-133,53-151,84c-21,36-22,80-2,127c17,42,78,73,143,74h42V3254z M2889,2684c67-23,96-41,126-76c24-28,27-38,23-85
		c-7-86-68-133-170-133h-38v155c0,85,3,155,8,155C2842,2700,2865,2693,2889,2684z"/>
	<path d="M939.9,2879.4c0-3.2-0.3-57.4-1-120.4l-0.6-114.6l-54.2-1.6l-53.9-1.6l28.1-35.5c15.2-19.4,36.1-45.5,46.1-58.1
		c10-12.3,33.9-42.3,52.9-66.2c39-49.4,74.5-93.9,84.2-105.5l6.5-7.7l38.7,49c21.3,26.8,70.3,88.1,108.7,136.5l70,87.5l-54.9,1
		l-54.5,0.6v121v121H1048C947.4,2884.9,939.9,2884.5,939.9,2879.4z"/>
</g>
</svg>
