<svg id="Слой_1" data-name="Слой 1" xmlns="http://www.w3.org/2000/svg" viewBox="0 0 164.4 144.6"><circle cx="121.6" cy="49.4" r="1.8"/><path d="M266.1,238.4a1.8,1.8,0,1,0,1.8-1.8A1.79,1.79,0,0,0,266.1,238.4Z" transform="translate(-150.3 -176.2)"/><path d="M268.3,232a1.8,1.8,0,1,0,1.8-1.8A1.79,1.79,0,0,0,268.3,232Z" transform="translate(-150.3 -176.2)"/><circle cx="123.2" cy="43" r="1.8"/><path d="M281.9,217.4a1.6,1.6,0,1,0,0,3.2,1.47,1.47,0,0,0,1.6-1.6C283.3,218,282.7,217.4,281.9,217.4Z" transform="translate(-150.3 -176.2)"/><path d="M269.1,244.4a1.8,1.8,0,1,0-1.8-1.8A2.11,2.11,0,0,0,269.1,244.4Z" transform="translate(-150.3 -176.2)"/><path d="M285.1,215.2a1.4,1.4,0,1,0,1.4,1.4A1.37,1.37,0,0,0,285.1,215.2Z" transform="translate(-150.3 -176.2)"/><path d="M282.1,223.2a1.4,1.4,0,1,0,1.4-1.4A1.37,1.37,0,0,0,282.1,223.2Z" transform="translate(-150.3 -176.2)"/><circle cx="126.6" cy="40.6" r="1.6"/><path d="M280.1,213a1.6,1.6,0,1,0,1.6,1.6A1.58,1.58,0,0,0,280.1,213Z" transform="translate(-150.3 -176.2)"/><path d="M266.3,274.2a1.6,1.6,0,1,0-1.6-1.6A1.58,1.58,0,0,0,266.3,274.2Z" transform="translate(-150.3 -176.2)"/><path d="M263.9,291.2a1.4,1.4,0,1,0-1.4,1.4C263.3,292.8,263.9,292,263.9,291.2Z" transform="translate(-150.3 -176.2)"/><path d="M262.7,281a1.6,1.6,0,1,0,1.6,1.6A1.72,1.72,0,0,0,262.7,281Z" transform="translate(-150.3 -176.2)"/><path d="M262.7,285.4a1.6,1.6,0,1,0,1.6,1.6C264.1,286.2,263.5,285.4,262.7,285.4Z" transform="translate(-150.3 -176.2)"/><path d="M265.9,269.8a1.6,1.6,0,1,0,0-3.2,1.72,1.72,0,0,0-1.6,1.6A1.58,1.58,0,0,0,265.9,269.8Z" transform="translate(-150.3 -176.2)"/><path d="M262.7,276.6a1.6,1.6,0,1,0,0,3.2,1.6,1.6,0,1,0,0-3.2Z" transform="translate(-150.3 -176.2)"/><path d="M264.9,248.8a1.8,1.8,0,1,0,1.8-1.8A1.79,1.79,0,0,0,264.9,248.8Z" transform="translate(-150.3 -176.2)"/><path d="M259.3,261a1.8,1.8,0,1,0,1.8-1.8A1.79,1.79,0,0,0,259.3,261Z" transform="translate(-150.3 -176.2)"/><path d="M262.3,255a1.8,1.8,0,1,0,1.8-1.8A1.79,1.79,0,0,0,262.3,255Z" transform="translate(-150.3 -176.2)"/><path d="M261.7,267.2a1.8,1.8,0,1,0-1.8-1.8A1.93,1.93,0,0,0,261.7,267.2Z" transform="translate(-150.3 -176.2)"/><path d="M262.1,296.8a1.4,1.4,0,1,0-1.4-1.4A1.37,1.37,0,0,0,262.1,296.8Z" transform="translate(-150.3 -176.2)"/><path d="M292.9,223.6a1.2,1.2,0,1,0-1.2,1.2Q292.9,224.5,292.9,223.6Z" transform="translate(-150.3 -176.2)"/><path d="M281.1,236.6a1.37,1.37,0,0,0-1.4-1.4,1.55,1.55,0,0,0-1.6,1.4,1.58,1.58,0,0,0,1.6,1.6A1.7,1.7,0,0,0,281.1,236.6Z" transform="translate(-150.3 -176.2)"/><circle cx="116.2" cy="100.8" r="1.6"/><path d="M280.9,242.6a1.4,1.4,0,1,0-1.4-1.4A1.37,1.37,0,0,0,280.9,242.6Z" transform="translate(-150.3 -176.2)"/><circle cx="124.6" cy="73.4" r="1.6"/><path d="M278.9,243.2a1.6,1.6,0,1,0-1.6,1.6C278.1,244.6,278.9,244,278.9,243.2Z" transform="translate(-150.3 -176.2)"/><circle cx="138.2" cy="49.4" r="1.2"/><path d="M272.1,257.4a1.6,1.6,0,1,0-1.6-1.6A1.47,1.47,0,0,0,272.1,257.4Z" transform="translate(-150.3 -176.2)"/><circle cx="132.8" cy="58.4" r="1.4"/><path d="M289.9,231.6a1.2,1.2,0,1,0-1.2-1.2A1.15,1.15,0,0,0,289.9,231.6Z" transform="translate(-150.3 -176.2)"/><path d="M286.5,227.8a1.4,1.4,0,1,0-1.4,1.4A1.37,1.37,0,0,0,286.5,227.8Z" transform="translate(-150.3 -176.2)"/><path d="M286.5,233.8a1.2,1.2,0,1,0-1.2-1.2A1.29,1.29,0,0,0,286.5,233.8Z" transform="translate(-150.3 -176.2)"/><path d="M285.5,221a1.4,1.4,0,1,0,1.4-1.4C286.1,219.8,285.5,220.2,285.5,221Z" transform="translate(-150.3 -176.2)"/><path d="M291.7,210.6a1.2,1.2,0,1,0,1.2,1.2C292.7,211.2,292.3,210.6,291.7,210.6Z" transform="translate(-150.3 -176.2)"/><path d="M293.5,229.4a1,1,0,1,0-1-1C292.3,229,292.9,229.4,293.5,229.4Z" transform="translate(-150.3 -176.2)"/><path d="M293.5,215.4c-.6,0-1,.4-1,1.2a1.12,1.12,0,0,0,1,1.2,1.15,1.15,0,0,0,1.2-1.2Q294.4,215.4,293.5,215.4Z" transform="translate(-150.3 -176.2)"/><circle cx="138" cy="38" r="1.2"/><path d="M288.9,218.8a1.2,1.2,0,1,0,1.2-1.2A1.29,1.29,0,0,0,288.9,218.8Z" transform="translate(-150.3 -176.2)"/><path d="M272.9,251.4a1.6,1.6,0,1,0-1.6,1.6A1.72,1.72,0,0,0,272.9,251.4Z" transform="translate(-150.3 -176.2)"/><path d="M268.5,259.2a1.61,1.61,0,1,0,0-3.2,1.58,1.58,0,0,0-1.6,1.6C266.7,258.6,267.5,259.2,268.5,259.2Z" transform="translate(-150.3 -176.2)"/><path d="M268.5,247a1.8,1.8,0,1,0,1.8-1.8A1.79,1.79,0,0,0,268.5,247Z" transform="translate(-150.3 -176.2)"/><path d="M263.1,259.2a1.8,1.8,0,1,0,1.8-1.8A2.11,2.11,0,0,0,263.1,259.2Z" transform="translate(-150.3 -176.2)"/><path d="M265.9,253.2a1.8,1.8,0,1,0,1.8-1.8A1.79,1.79,0,0,0,265.9,253.2Z" transform="translate(-150.3 -176.2)"/><path d="M289.1,243.4a1.2,1.2,0,1,0-1.2-1.2A1.29,1.29,0,0,0,289.1,243.4Z" transform="translate(-150.3 -176.2)"/><path d="M303.3,208.8a.8.8,0,1,0,.8.8A.73.73,0,0,0,303.3,208.8Z" transform="translate(-150.3 -176.2)"/><circle cx="153.4" cy="45.8" r="0.8"/><path d="M301.9,216a.8.8,0,1,0,.8.8A.86.86,0,0,0,301.9,216Z" transform="translate(-150.3 -176.2)"/><path d="M301.1,203.8a.8.8,0,1,0,.8.8C302.1,204,301.7,203.8,301.1,203.8Z" transform="translate(-150.3 -176.2)"/><path d="M303.3,235.4a.8.8,0,1,0-.8-.8A.73.73,0,0,0,303.3,235.4Z" transform="translate(-150.3 -176.2)"/><path d="M302.7,229.4a.8.8,0,1,0-.8.8A.86.86,0,0,0,302.7,229.4Z" transform="translate(-150.3 -176.2)"/><path d="M296.3,239.4a1,1,0,1,0-1-1A.94.94,0,0,0,296.3,239.4Z" transform="translate(-150.3 -176.2)"/><circle cx="148" cy="55.2" r="0.8"/><path d="M301.1,242.8a.8.8,0,1,0-.8-.8A.73.73,0,0,0,301.1,242.8Z" transform="translate(-150.3 -176.2)"/><path d="M299.7,237.6a.8.8,0,1,0-.8-.8A.86.86,0,0,0,299.7,237.6Z" transform="translate(-150.3 -176.2)"/><path d="M299.1,211.8a.8.8,0,1,0,.8-.8A.86.86,0,0,0,299.1,211.8Z" transform="translate(-150.3 -176.2)"/><circle cx="147.2" cy="67.6" r="0.8"/><path d="M288.5,207.2a1.15,1.15,0,0,0,1.2,1.2,1.29,1.29,0,0,0,1.2-1.2,1.2,1.2,0,0,0-2.4,0Z" transform="translate(-150.3 -176.2)"/><path d="M266.5,284.4a1.4,1.4,0,1,0,1.4,1.4A1.37,1.37,0,0,0,266.5,284.4Z" transform="translate(-150.3 -176.2)"/><path d="M285.1,209.8a1.4,1.4,0,1,0,1.4-1.4A1.37,1.37,0,0,0,285.1,209.8Z" transform="translate(-150.3 -176.2)"/><circle cx="137.4" cy="26.6" r="1.4"/><path d="M292.9,203.6a1.2,1.2,0,1,0,1.2,1.2C293.9,204.2,293.5,203.6,292.9,203.6Z" transform="translate(-150.3 -176.2)"/><path d="M293.7,209.4a1,1,0,1,0,1-1A1.07,1.07,0,0,0,293.7,209.4Z" transform="translate(-150.3 -176.2)"/><path d="M299.1,198.8a1,1,0,1,0,1,1A.94.94,0,0,0,299.1,198.8Z" transform="translate(-150.3 -176.2)"/><path d="M295.7,214.2a1,1,0,1,0,1-1A.94.94,0,0,0,295.7,214.2Z" transform="translate(-150.3 -176.2)"/><path d="M297.1,207a1,1,0,1,0,1-1A.94.94,0,0,0,297.1,207Z" transform="translate(-150.3 -176.2)"/><path d="M295.9,201.2a1,1,0,1,0,1,1C297.1,201.8,296.5,201.2,295.9,201.2Z" transform="translate(-150.3 -176.2)"/><path d="M290.7,199a1.2,1.2,0,1,0,0,2.4,1.2,1.2,0,1,0,0-2.4Z" transform="translate(-150.3 -176.2)"/><path d="M279.3,253.8a1.4,1.4,0,1,0-1.4-1.4A1.37,1.37,0,0,0,279.3,253.8Z" transform="translate(-150.3 -176.2)"/><path d="M270.3,277.2a1.4,1.4,0,1,0-1.4-1.4C268.7,276.4,269.5,277.2,270.3,277.2Z" transform="translate(-150.3 -176.2)"/><path d="M278.3,249.2a1.4,1.4,0,1,0-1.4-1.4A1.37,1.37,0,0,0,278.3,249.2Z" transform="translate(-150.3 -176.2)"/><path d="M295.9,233.4a1,1,0,1,0-1,1A.94.94,0,0,0,295.9,233.4Z" transform="translate(-150.3 -176.2)"/><path d="M270.1,272.6a1.6,1.6,0,1,0-1.6-1.6A1.47,1.47,0,0,0,270.1,272.6Z" transform="translate(-150.3 -176.2)"/><path d="M274.3,260.4a1.6,1.6,0,1,0-1.6,1.6A1.58,1.58,0,0,0,274.3,260.4Z" transform="translate(-150.3 -176.2)"/><path d="M266.5,280a1.4,1.4,0,1,0,1.4,1.4C268.1,280.6,267.3,280,266.5,280Z" transform="translate(-150.3 -176.2)"/><path d="M266.3,289a1.4,1.4,0,1,0,1.4,1.4A1.37,1.37,0,0,0,266.3,289Z" transform="translate(-150.3 -176.2)"/><path d="M269.7,268.2a1.6,1.6,0,1,0-1.6-1.6A1.58,1.58,0,0,0,269.7,268.2Z" transform="translate(-150.3 -176.2)"/><path d="M270.7,262a1.6,1.6,0,1,0-3.2,0,1.72,1.72,0,0,0,1.6,1.6A1.58,1.58,0,0,0,270.7,262Z" transform="translate(-150.3 -176.2)"/><path d="M277.1,254.2a1.58,1.58,0,0,0-1.6-1.6,1.61,1.61,0,0,0,0,3.2C276.5,255.6,277.1,255,277.1,254.2Z" transform="translate(-150.3 -176.2)"/><circle cx="139.8" cy="71" r="1"/><circle cx="141" cy="59.2" r="1.2"/><path d="M281.9,247.2a1.4,1.4,0,1,0-1.4-1.4A1.37,1.37,0,0,0,281.9,247.2Z" transform="translate(-150.3 -176.2)"/><path d="M293.7,246.6a1,1,0,1,0-1-1C292.9,246,293.3,246.6,293.7,246.6Z" transform="translate(-150.3 -176.2)"/><path d="M292.7,241.4a1,1,0,1,0-1-1A.94.94,0,0,0,292.7,241.4Z" transform="translate(-150.3 -176.2)"/><path d="M272.7,242.2a1.76,1.76,0,0,0,1.8-1.6,1.63,1.63,0,0,0-1.8-1.6,1.58,1.58,0,0,0-1.6,1.6C270.9,241.6,271.7,242.2,272.7,242.2Z" transform="translate(-150.3 -176.2)"/><path d="M285.7,239.2a1.4,1.4,0,1,0-1.4,1.4A1.37,1.37,0,0,0,285.7,239.2Z" transform="translate(-150.3 -176.2)"/><path d="M285.5,245.4a1.2,1.2,0,0,0,0-2.4,1.2,1.2,0,1,0,0,2.4Z" transform="translate(-150.3 -176.2)"/><path d="M286.5,250.2a1.2,1.2,0,1,0-1.2-1.2A1.29,1.29,0,0,0,286.5,250.2Z" transform="translate(-150.3 -176.2)"/><path d="M289.1,237.4a1.2,1.2,0,1,0-1.2,1.2A1.29,1.29,0,0,0,289.1,237.4Z" transform="translate(-150.3 -176.2)"/><circle cx="127.2" cy="92.2" r="1.4"/><path d="M241.9,310a1.4,1.4,0,1,0-1.4,1.4A1.37,1.37,0,0,0,241.9,310Z" transform="translate(-150.3 -176.2)"/><path d="M239.5,306.6a1.6,1.6,0,1,0,1.6-1.6A1.72,1.72,0,0,0,239.5,306.6Z" transform="translate(-150.3 -176.2)"/><path d="M235.7,316.4a1.2,1.2,0,1,0-1.2,1.2A1.15,1.15,0,0,0,235.7,316.4Z" transform="translate(-150.3 -176.2)"/><path d="M243.5,303.2a1.63,1.63,0,0,0-1.8-1.6,1.58,1.58,0,0,0-1.6,1.6,1.76,1.76,0,0,0,1.6,1.8A1.79,1.79,0,0,0,243.5,303.2Z" transform="translate(-150.3 -176.2)"/><path d="M240.9,313.2a1.34,1.34,0,0,0-1.2-1.4c-.8,0-1.2.6-1.2,1.4a1.15,1.15,0,0,0,1.2,1.2C240.3,314.6,240.9,314,240.9,313.2Z" transform="translate(-150.3 -176.2)"/><circle cx="91.4" cy="143" r="0.8"/><circle cx="85.2" cy="137.2" r="1.4"/><path d="M269.7,236.2a1.8,1.8,0,1,0,1.8-1.8A1.79,1.79,0,0,0,269.7,236.2Z" transform="translate(-150.3 -176.2)"/><path d="M237.7,320a.8.8,0,1,0-.8-.8C236.7,319.6,237.1,320,237.7,320Z" transform="translate(-150.3 -176.2)"/><circle cx="86" cy="134.2" r="1.6"/><path d="M239.7,316.4a1,1,0,1,0-1,1A1.28,1.28,0,0,0,239.7,316.4Z" transform="translate(-150.3 -176.2)"/><path d="M243.5,316.2a.8.8,0,1,0-.8.8A.86.86,0,0,0,243.5,316.2Z" transform="translate(-150.3 -176.2)"/><path d="M305.3,226.8a.6.6,0,0,0,0,1.2.6.6,0,0,0,0-1.2Z" transform="translate(-150.3 -176.2)"/><path d="M303.9,240.2a.6.6,0,1,0,.6-.6A.64.64,0,0,0,303.9,240.2Z" transform="translate(-150.3 -176.2)"/><path d="M281.7,270.6a1.2,1.2,0,1,0,1.2,1.2A1.29,1.29,0,0,0,281.7,270.6Z" transform="translate(-150.3 -176.2)"/><path d="M284.7,275.6a1,1,0,1,0,1-1A.94.94,0,0,0,284.7,275.6Z" transform="translate(-150.3 -176.2)"/><path d="M285.5,269.6a1,1,0,1,0,1,1A.94.94,0,0,0,285.5,269.6Z" transform="translate(-150.3 -176.2)"/><path d="M245.7,309.6a1.4,1.4,0,1,0-1.4,1.4A1.37,1.37,0,0,0,245.7,309.6Z" transform="translate(-150.3 -176.2)"/><path d="M244.7,313a1.2,1.2,0,1,0-1.2,1.2A1.29,1.29,0,0,0,244.7,313Z" transform="translate(-150.3 -176.2)"/><path d="M307.7,219.8a.6.6,0,1,0-.6.6A.53.53,0,0,0,307.7,219.8Z" transform="translate(-150.3 -176.2)"/><circle cx="156.2" cy="31" r="0.6"/><path d="M306.1,232.8a.6.6,0,1,0,.6-.6A.9.9,0,0,0,306.1,232.8Z" transform="translate(-150.3 -176.2)"/><path d="M305.1,214a.89.89,0,0,0-.8.6c0,.4.4.6.8.6a.64.64,0,0,0,.6-.6C305.9,214.2,305.5,214,305.1,214Z" transform="translate(-150.3 -176.2)"/><path d="M311.1,255.8a.4.4,0,1,0,.4-.4C311.1,255.4,311.1,255.6,311.1,255.8Z" transform="translate(-150.3 -176.2)"/><path d="M313.1,242a.4.4,0,1,0,.4.4Z" transform="translate(-150.3 -176.2)"/><path d="M313.9,215.4a.2.2,0,1,0-.2.2A.2.2,0,0,0,313.9,215.4Z" transform="translate(-150.3 -176.2)"/><path d="M297.5,277a.6.6,0,1,0,.6.6A.64.64,0,0,0,297.5,277Z" transform="translate(-150.3 -176.2)"/><path d="M312.7,202.4a.4.4,0,1,0-.4-.4C312.3,202.4,312.5,202.4,312.7,202.4Z" transform="translate(-150.3 -176.2)"/><path d="M313.5,194.6a.4.4,0,1,0-.4-.4A.43.43,0,0,0,313.5,194.6Z" transform="translate(-150.3 -176.2)"/><path d="M314.3,178.2a.4.4,0,1,0,.4.4A.43.43,0,0,0,314.3,178.2Z" transform="translate(-150.3 -176.2)"/><path d="M314.1,186.8a.4.4,0,1,0-.4-.4A.43.43,0,0,0,314.1,186.8Z" transform="translate(-150.3 -176.2)"/><path d="M313.7,229.2a.4.4,0,1,0-.4-.4C313.5,229,313.5,229.2,313.7,229.2Z" transform="translate(-150.3 -176.2)"/><path d="M312.1,236.6a.4.4,0,1,0-.4.4A.43.43,0,0,0,312.1,236.6Z" transform="translate(-150.3 -176.2)"/><path d="M301.3,276.2a.4.4,0,1,0,.4.4C301.9,276.4,301.7,276.2,301.3,276.2Z" transform="translate(-150.3 -176.2)"/><circle cx="151.2" cy="106" r="0.4"/><path d="M297.1,288.4a.4.4,0,1,0,.4-.4Z" transform="translate(-150.3 -176.2)"/><circle cx="147.2" cy="106.8" r="0.4"/><path d="M310.5,197.4a.64.64,0,0,0,.6-.6c0-.4-.2-.4-.6-.4-.2,0-.6.2-.6.4A.9.9,0,0,0,310.5,197.4Z" transform="translate(-150.3 -176.2)"/><path d="M311.7,210.4a.4.4,0,1,0-.4-.4A.43.43,0,0,0,311.7,210.4Z" transform="translate(-150.3 -176.2)"/><path d="M312.5,223.2a.4.4,0,1,0-.4.4A.43.43,0,0,0,312.5,223.2Z" transform="translate(-150.3 -176.2)"/><path d="M311.5,182a.4.4,0,1,0-.4-.4A.43.43,0,0,0,311.5,182Z" transform="translate(-150.3 -176.2)"/><path d="M311.1,189.8a.4.4,0,1,0-.4-.4S310.9,189.8,311.1,189.8Z" transform="translate(-150.3 -176.2)"/><circle cx="83.4" cy="143" r="1"/><path d="M296.9,225.4a1,1,0,1,0,1,1C297.7,225.8,297.3,225.4,296.9,225.4Z" transform="translate(-150.3 -176.2)"/><path d="M300.3,225a.8.8,0,1,0-.8-.8C299.3,224.6,299.7,225,300.3,225Z" transform="translate(-150.3 -176.2)"/><path d="M267.1,263.6a1.8,1.8,0,1,0-1.8,1.8A1.79,1.79,0,0,0,267.1,263.6Z" transform="translate(-150.3 -176.2)"/><path d="M260.1,292.2a1.6,1.6,0,1,0-1.6,1.6A1.72,1.72,0,0,0,260.1,292.2Z" transform="translate(-150.3 -176.2)"/><path d="M295.3,220.4a1,1,0,1,0,1,1A1.07,1.07,0,0,0,295.3,220.4Z" transform="translate(-150.3 -176.2)"/><path d="M258.9,277.8a1.8,1.8,0,1,0,1.8,1.8A1.79,1.79,0,0,0,258.9,277.8Z" transform="translate(-150.3 -176.2)"/><circle cx="108.4" cy="111.8" r="1.6"/><path d="M262.3,271.4a1.8,1.8,0,1,0-1.8-1.8A1.79,1.79,0,0,0,262.3,271.4Z" transform="translate(-150.3 -176.2)"/><circle cx="108.4" cy="99.2" r="1.8"/><path d="M258.9,282.2a1.6,1.6,0,1,0,1.6,1.6A1.58,1.58,0,0,0,258.9,282.2Z" transform="translate(-150.3 -176.2)"/><path d="M262.5,272.2a1.76,1.76,0,0,0-1.8,1.6,1.79,1.79,0,0,0,1.8,1.8,1.63,1.63,0,0,0,1.6-1.8C264.3,273,263.5,272.2,262.5,272.2Z" transform="translate(-150.3 -176.2)"/><path d="M298.5,218.2a1,1,0,1,0,1,1A.94.94,0,0,0,298.5,218.2Z" transform="translate(-150.3 -176.2)"/><path d="M280.1,224a1.6,1.6,0,1,0,1.6,1.6A1.47,1.47,0,0,0,280.1,224Z" transform="translate(-150.3 -176.2)"/><path d="M279.9,232a1.6,1.6,0,1,0-1.6,1.6A1.58,1.58,0,0,0,279.9,232Z" transform="translate(-150.3 -176.2)"/><path d="M278.5,219.6a1.6,1.6,0,1,0,1.6,1.6A1.47,1.47,0,0,0,278.5,219.6Z" transform="translate(-150.3 -176.2)"/><path d="M275.3,221.6a1.8,1.8,0,0,0,0,3.6,1.63,1.63,0,0,0,1.6-1.8A1.76,1.76,0,0,0,275.3,221.6Z" transform="translate(-150.3 -176.2)"/><path d="M271.7,229.8a1.8,1.8,0,1,0,1.8-1.8A2.11,2.11,0,0,0,271.7,229.8Z" transform="translate(-150.3 -176.2)"/><path d="M278.5,227.6a1.6,1.6,0,0,0-3.2,0,1.6,1.6,0,0,0,3.2,0Z" transform="translate(-150.3 -176.2)"/><circle cx="131.4" cy="53.8" r="1.4"/><path d="M273.1,234.2a1.6,1.6,0,1,0,1.6-1.6A1.58,1.58,0,0,0,273.1,234.2Z" transform="translate(-150.3 -176.2)"/><path d="M277.7,238.6a1.6,1.6,0,1,0-1.6,1.6A1.58,1.58,0,0,0,277.7,238.6Z" transform="translate(-150.3 -176.2)"/><path d="M273.7,243.4a1.58,1.58,0,0,0-1.6,1.6,1.6,1.6,0,0,0,3.2,0C275.5,244.2,274.7,243.4,273.7,243.4Z" transform="translate(-150.3 -176.2)"/><path d="M273.3,263.6a1.4,1.4,0,1,0,1.4,1.4C274.9,264.2,274.1,263.6,273.3,263.6Z" transform="translate(-150.3 -176.2)"/><circle cx="99.4" cy="125.6" r="1.6"/><path d="M280.9,276.8a1,1,0,1,0,1-1C281.3,275.6,280.9,276.2,280.9,276.8Z" transform="translate(-150.3 -176.2)"/><path d="M270.3,278.8a1.4,1.4,0,1,0,1.4,1.4A1.37,1.37,0,0,0,270.3,278.8Z" transform="translate(-150.3 -176.2)"/><circle cx="120" cy="108.6" r="1.4"/><path d="M273.7,268.2a1.4,1.4,0,1,0,1.4,1.4A1.5,1.5,0,0,0,273.7,268.2Z" transform="translate(-150.3 -176.2)"/><circle cx="123.8" cy="98.2" r="1.4"/><path d="M284.3,250.8a1.37,1.37,0,0,0-1.4-1.4c-.8,0-1.2.6-1.2,1.4a1.34,1.34,0,0,0,1.2,1.4A1.68,1.68,0,0,0,284.3,250.8Z" transform="translate(-150.3 -176.2)"/><path d="M276.5,273.2a1.29,1.29,0,0,0,1.2,1.2,1.2,1.2,0,0,0,0-2.4C277.1,271.8,276.5,272.4,276.5,273.2Z" transform="translate(-150.3 -176.2)"/><path d="M281.3,265.6a1.2,1.2,0,1,0,1.2,1.2A1.29,1.29,0,0,0,281.3,265.6Z" transform="translate(-150.3 -176.2)"/><path d="M284.5,204a1.4,1.4,0,1,0,1.4,1.4A1.37,1.37,0,0,0,284.5,204Z" transform="translate(-150.3 -176.2)"/><path d="M254.9,287.4a1.6,1.6,0,1,0,1.6,1.6C256.7,288.2,255.9,287.4,254.9,287.4Z" transform="translate(-150.3 -176.2)"/><circle cx="104.8" cy="104.8" r="1.8"/><path d="M259.5,296.4a1.4,1.4,0,1,0-1.4,1.4A1.37,1.37,0,0,0,259.5,296.4Z" transform="translate(-150.3 -176.2)"/><path d="M257.7,301.8a1.4,1.4,0,1,0-1.4-1.4A1.37,1.37,0,0,0,257.7,301.8Z" transform="translate(-150.3 -176.2)"/><path d="M256.3,293.2a1.6,1.6,0,1,0-1.6,1.6A1.58,1.58,0,0,0,256.3,293.2Z" transform="translate(-150.3 -176.2)"/><path d="M247.7,305.6a1.4,1.4,0,1,0,1.4-1.4A1.37,1.37,0,0,0,247.7,305.6Z" transform="translate(-150.3 -176.2)"/><path d="M255.1,283.2a1.8,1.8,0,1,0,1.8,1.8A1.79,1.79,0,0,0,255.1,283.2Z" transform="translate(-150.3 -176.2)"/><path d="M252.5,294.2a1.63,1.63,0,0,0-1.8-1.6,1.6,1.6,0,1,0,0,3.2A1.63,1.63,0,0,0,252.5,294.2Z" transform="translate(-150.3 -176.2)"/><path d="M251.9,298a1.6,1.6,0,1,0-3.2,0,1.58,1.58,0,0,0,1.6,1.6A1.47,1.47,0,0,0,251.9,298Z" transform="translate(-150.3 -176.2)"/><path d="M253.7,302.6a1.4,1.4,0,1,0-1.4-1.4A1.37,1.37,0,0,0,253.7,302.6Z" transform="translate(-150.3 -176.2)"/><path d="M255.7,297.2a1.6,1.6,0,0,0-3.2,0,1.47,1.47,0,0,0,1.6,1.6A1.58,1.58,0,0,0,255.7,297.2Z" transform="translate(-150.3 -176.2)"/><path d="M243.7,306.2a1.6,1.6,0,1,0,1.6-1.6A1.58,1.58,0,0,0,243.7,306.2Z" transform="translate(-150.3 -176.2)"/><path d="M299.3,255.2a.8.8,0,1,0-.8-.8C298.7,255,298.9,255.2,299.3,255.2Z" transform="translate(-150.3 -176.2)"/><path d="M296.3,262.2a.8.8,0,1,0-.8-.8A.86.86,0,0,0,296.3,262.2Z" transform="translate(-150.3 -176.2)"/><circle cx="148.2" cy="73" r="0.8"/><path d="M295.7,257a.8.8,0,1,0-.8-.8C294.7,256.6,295.1,257,295.7,257Z" transform="translate(-150.3 -176.2)"/><path d="M297.3,272.8a.64.64,0,0,0,.6-.6.6.6,0,1,0-.6.6Z" transform="translate(-150.3 -176.2)"/><circle cx="146.6" cy="90.6" r="0.8"/><path d="M295.7,250.8a1.07,1.07,0,0,0-1-1,1,1,0,0,0,0,2A1.07,1.07,0,0,0,295.7,250.8Z" transform="translate(-150.3 -176.2)"/><path d="M294.3,284a.6.6,0,1,0-.6.6A.64.64,0,0,0,294.3,284Z" transform="translate(-150.3 -176.2)"/><path d="M293.3,294.2a.4.4,0,1,0,.4.4C293.5,294.4,293.5,294.2,293.3,294.2Z" transform="translate(-150.3 -176.2)"/><path d="M293.7,278a.6.6,0,1,0,0,1.2.9.9,0,0,0,.6-.6A.64.64,0,0,0,293.7,278Z" transform="translate(-150.3 -176.2)"/><path d="M304.5,264.8a.43.43,0,0,0,.4-.4c0-.2-.2-.6-.4-.6a.64.64,0,0,0-.6.6C304.1,264.6,304.3,264.8,304.5,264.8Z" transform="translate(-150.3 -176.2)"/><path d="M294.1,289.2a.6.6,0,1,0-.6.6A.53.53,0,0,0,294.1,289.2Z" transform="translate(-150.3 -176.2)"/><path d="M306.7,252a.6.6,0,1,0-.6-.6Q306.4,252,306.7,252Z" transform="translate(-150.3 -176.2)"/><path d="M306.3,245.8a.6.6,0,1,0-.6.6A.53.53,0,0,0,306.3,245.8Z" transform="translate(-150.3 -176.2)"/><path d="M303.9,259.2a.6.6,0,1,0-.6-.6A.53.53,0,0,0,303.9,259.2Z" transform="translate(-150.3 -176.2)"/><path d="M305.3,276a.4.4,0,1,0-.4-.4A.43.43,0,0,0,305.3,276Z" transform="translate(-150.3 -176.2)"/><circle cx="149.8" cy="83.8" r="0.6"/><path d="M301.1,271.6a.6.6,0,1,0-.6-.6A.64.64,0,0,0,301.1,271.6Z" transform="translate(-150.3 -176.2)"/><path d="M300.7,266.2a.6.6,0,1,0-.6-.6A.64.64,0,0,0,300.7,266.2Z" transform="translate(-150.3 -176.2)"/><path d="M302.9,247.4a.89.89,0,0,0-.6-.8.86.86,0,0,0-.8.8c0,.4.4.6.8.6C302.5,248.2,302.9,247.8,302.9,247.4Z" transform="translate(-150.3 -176.2)"/><circle cx="152.8" cy="76.8" r="0.6"/><path d="M304.9,270.4a.4.4,0,1,0-.4-.4A.43.43,0,0,0,304.9,270.4Z" transform="translate(-150.3 -176.2)"/><path d="M288.3,260.2a1,1,0,1,0-1-1C287.1,259.6,287.7,260.2,288.3,260.2Z" transform="translate(-150.3 -176.2)"/><path d="M288.5,254a1.2,1.2,0,1,0-1.2,1.2A1.15,1.15,0,0,0,288.5,254Z" transform="translate(-150.3 -176.2)"/><path d="M288.9,265.2a1,1,0,1,0-1-1A.94.94,0,0,0,288.9,265.2Z" transform="translate(-150.3 -176.2)"/><circle cx="139" cy="93.2" r="1"/><path d="M285.9,279.8a.94.94,0,0,0-1,1,1.07,1.07,0,0,0,1,1,.94.94,0,0,0,1-1C286.7,280.2,286.3,279.8,285.9,279.8Z" transform="translate(-150.3 -176.2)"/><path d="M293.5,274.2a.8.8,0,1,0-.8-.8A.86.86,0,0,0,293.5,274.2Z" transform="translate(-150.3 -176.2)"/><path d="M285.9,295.8a.6.6,0,1,0-.6.6A.64.64,0,0,0,285.9,295.8Z" transform="translate(-150.3 -176.2)"/><path d="M288.7,274.4a.8.8,0,1,0,.8-.8A.86.86,0,0,0,288.7,274.4Z" transform="translate(-150.3 -176.2)"/><path d="M284.9,301.2a.4.4,0,1,0-.4-.4A.43.43,0,0,0,284.9,301.2Z" transform="translate(-150.3 -176.2)"/><path d="M286.3,290.8a.8.8,0,1,0-.8.8C286.1,291.4,286.3,291.2,286.3,290.8Z" transform="translate(-150.3 -176.2)"/><circle cx="135.6" cy="109.6" r="0.8"/><path d="M292.1,252.4a1,1,0,1,0-1,1A.94.94,0,0,0,292.1,252.4Z" transform="translate(-150.3 -176.2)"/><path d="M292.5,263.6a.92.92,0,0,0,.8-1c0-.4-.4-1-.8-1a.94.94,0,0,0-1,1C291.7,263.2,292.1,263.6,292.5,263.6Z" transform="translate(-150.3 -176.2)"/><circle cx="141.6" cy="81.4" r="1"/><circle cx="142.8" cy="91.8" r="0.8"/><circle cx="138.6" cy="124" r="0.4"/><path d="M290.1,290a.6.6,0,1,0-.6.6A.53.53,0,0,0,290.1,290Z" transform="translate(-150.3 -176.2)"/><path d="M289.7,295.2a.4.4,0,0,0-.8,0c0,.2.2.6.4.6S289.7,295.4,289.7,295.2Z" transform="translate(-150.3 -176.2)"/><path d="M290.5,284.8a.8.8,0,1,0-.8.8A.86.86,0,0,0,290.5,284.8Z" transform="translate(-150.3 -176.2)"/><path d="M289.7,278.8a.8.8,0,1,0,.8.8A.86.86,0,0,0,289.7,278.8Z" transform="translate(-150.3 -176.2)"/><path d="M170.1,224.6a3.6,3.6,0,0,0-1.6-1.8c-1.2-.8-2.2-.4-3-1.2s-.6-2-1.2-3.2c-.2-.6-1-.8-1.4-.8a1.58,1.58,0,0,0-1.6,1.6c-2.4,12.8-8,18.2-8,20.8a2.11,2.11,0,0,0,1.8,1.8C157.3,241.8,170.1,224.6,170.1,224.6Z" transform="translate(-150.3 -176.2)"/><path d="M307.7,257.6a.4.4,0,1,0-.4-.4C307.1,257.4,307.3,257.6,307.7,257.6Z" transform="translate(-150.3 -176.2)"/><path d="M294.7,192a1.2,1.2,0,1,0-1.2-1.2A1.29,1.29,0,0,0,294.7,192Z" transform="translate(-150.3 -176.2)"/><path d="M291.7,194.6a1.2,1.2,0,1,0-1.2-1.2C290.3,194.2,290.9,194.6,291.7,194.6Z" transform="translate(-150.3 -176.2)"/><path d="M288.7,197.4a1.4,1.4,0,1,0-1.4-1.4A1.37,1.37,0,0,0,288.7,197.4Z" transform="translate(-150.3 -176.2)"/><path d="M285.5,200.2a1.4,1.4,0,1,0-1.4-1.4A1.5,1.5,0,0,0,285.5,200.2Z" transform="translate(-150.3 -176.2)"/><path d="M297.5,189a1,1,0,1,0-1-1A1.07,1.07,0,0,0,297.5,189Z" transform="translate(-150.3 -176.2)"/><path d="M299.9,193.4a1,1,0,1,0-1-1A.94.94,0,0,0,299.9,193.4Z" transform="translate(-150.3 -176.2)"/><path d="M300.5,186.2a1,1,0,1,0-1-1C299.7,185.8,300.1,186.2,300.5,186.2Z" transform="translate(-150.3 -176.2)"/><circle cx="146.6" cy="19" r="1"/><path d="M282.5,202.8a1.6,1.6,0,1,0-1.6-1.6A1.58,1.58,0,0,0,282.5,202.8Z" transform="translate(-150.3 -176.2)"/><path d="M225.5,317.8a1.2,1.2,0,1,0,1.2,1.2C226.9,318.4,226.3,317.8,225.5,317.8Z" transform="translate(-150.3 -176.2)"/><path d="M229.7,318a1.2,1.2,0,0,0,0,2.4,1.29,1.29,0,0,0,1.2-1.2C230.7,318.6,230.3,318,229.7,318Z" transform="translate(-150.3 -176.2)"/><path d="M285.1,266.6a1.2,1.2,0,0,0,0-2.4,1.2,1.2,0,0,0,0,2.4Z" transform="translate(-150.3 -176.2)"/><path d="M231.9,316.6a1.2,1.2,0,1,0-1.2,1.2A1.29,1.29,0,0,0,231.9,316.6Z" transform="translate(-150.3 -176.2)"/><circle cx="151.8" cy="21" r="0.8"/><path d="M273.1,210.8a1.8,1.8,0,1,0-1.8-1.8A1.93,1.93,0,0,0,273.1,210.8Z" transform="translate(-150.3 -176.2)"/><circle cx="129.2" cy="27.6" r="1.6"/><path d="M276.3,208.2a1.8,1.8,0,1,0-1.8-1.8A1.79,1.79,0,0,0,276.3,208.2Z" transform="translate(-150.3 -176.2)"/><path d="M160.3,320.8h42a2,2,0,0,0,1.8-1.2,1.74,1.74,0,0,0,1.6,1.2,1.79,1.79,0,0,0,1.8-1.8v-.2a2,2,0,0,0,1-1.6V317c.2,0,.2-.2.4-.2v.6a1.65,1.65,0,1,0,2.2,1.6v-.4a1.74,1.74,0,0,0,1.2-1.6v-.4a2.3,2.3,0,0,0,1.2-1.8v-.4a.2.2,0,0,0,.2-.2v.2a1.2,1.2,0,0,0,.2.8,1.5,1.5,0,0,0-1,1.4.73.73,0,0,0,.2.6,1.5,1.5,0,0,0-1,1.4,1.6,1.6,0,1,0,3.2,0V318a1.74,1.74,0,0,0,1.2-1.6v-.6a1.75,1.75,0,0,0,1.2-1.8v-.6c.2-.2.4-.2.6-.4a1.2,1.2,0,0,0-.2.8,1.8,1.8,0,0,0,.2,1,1.5,1.5,0,0,0-1,1.4c0,.4,0,.6.2.8a1.72,1.72,0,0,0-1.2,1.4,1.4,1.4,0,0,0,2.8,0,.73.73,0,0,0-.2-.6,1.68,1.68,0,0,0,1-2.4,1.75,1.75,0,0,0,1.4-1.8,1.2,1.2,0,0,0-.2-.8,1.75,1.75,0,0,0,1.2-1.8,1.2,1.2,0,0,0-.2-.8l.6-.6a1.5,1.5,0,0,0-.2,1,1.53,1.53,0,0,0,.4,1,1.74,1.74,0,0,0-1.2,1.6,2.84,2.84,0,0,0,.4,1.2,1.72,1.72,0,0,0-1.2,1.4,1.53,1.53,0,0,0,.4,1c-.8,0-1.2.6-1.2,1.4a1.4,1.4,0,0,0,2.8,0,1,1,0,0,0-.4-.8,1.37,1.37,0,0,0,1.4-1.4,1,1,0,0,0-.4-.8,1.7,1.7,0,0,0,1.4-1.6,1.8,1.8,0,0,0-.2-1,1.92,1.92,0,0,0,1.4-1.8,1.8,1.8,0,0,0-.2-1,1.75,1.75,0,0,0,1.2-1.8,1.5,1.5,0,0,0-.2-1,2.3,2.3,0,0,0,1.2-1.8,8.66,8.66,0,0,0-.2-1c.2,0,.2-.2.4-.2,0,.2-.2.4-.2.6a2.14,2.14,0,0,0,.4,1.2,2,2,0,0,0-1.2,1.8,2.14,2.14,0,0,0,.4,1.2,1.74,1.74,0,0,0-1.2,1.6,1.43,1.43,0,0,0,.6,1.2,1.65,1.65,0,0,0-.4,3h0a1.4,1.4,0,1,0,1.4,1.4,1.73,1.73,0,0,0-.6-1.2h.2a1.72,1.72,0,0,0,1.6-1.6,1.53,1.53,0,0,0-.4-1,1.75,1.75,0,0,0,1.4-1.8,2.84,2.84,0,0,0-.4-1.2,1.92,1.92,0,0,0,1.4-1.8,2.84,2.84,0,0,0-.4-1.2,1.75,1.75,0,0,0,1.2-1.8,2.84,2.84,0,0,0-.4-1.2,1.92,1.92,0,0,0,1.2-1.8,2.14,2.14,0,0,0-.4-1.2,2.3,2.3,0,0,0,1.2-1.8h0c.2.2.2.4.4.6a2,2,0,0,0-1.2,1.8,1.56,1.56,0,0,0,.6,1.4,1.75,1.75,0,0,0-1.2,1.8,1.82,1.82,0,0,0,.6,1.4,1.75,1.75,0,0,0-1.4,1.8,1.51,1.51,0,0,0,.8,1.4,1.62,1.62,0,0,0-.6,3h0a1.6,1.6,0,1,0,0,3.2,1.43,1.43,0,0,0,1.4-1.6,1.1,1.1,0,0,0-.8-1.2h.2a1.58,1.58,0,0,0,1.6-1.6,1.21,1.21,0,0,0-.6-1.2,1.92,1.92,0,0,0,1.6-1.8,1.82,1.82,0,0,0-.6-1.4,1.92,1.92,0,0,0,1.4-1.8,1.82,1.82,0,0,0-.6-1.4,1.92,1.92,0,0,0,1.4-1.8,1.82,1.82,0,0,0-.6-1.4,1.92,1.92,0,0,0,1.2-1.8,2.27,2.27,0,0,0-.6-1.6,1.92,1.92,0,0,0,1.2-1.8v-.2a1.56,1.56,0,0,0,.8.8,1.92,1.92,0,0,0-1.4,1.8,1.58,1.58,0,0,0,1,1.6,1.92,1.92,0,0,0-1.4,1.8,2,2,0,0,0,1,1.6,1.92,1.92,0,0,0-1.6,1.8,1.67,1.67,0,0,1-.6,3.2,1.6,1.6,0,1,0,3.2,0,2,2,0,0,0-1-1.6,1.79,1.79,0,0,0,1.8-1.8,2.47,2.47,0,0,0-.8-1.6,1.75,1.75,0,0,0,1.6-1.8,2.47,2.47,0,0,0-.8-1.6,1.92,1.92,0,0,0,1.4-1.8,2.47,2.47,0,0,0-.8-1.6,1.92,1.92,0,0,0,1.4-1.8,1.58,1.58,0,0,0-1-1.6,1.85,1.85,0,0,0,1.2-2v-.4a2,2,0,0,0,1.2,1,1.86,1.86,0,0,0,0,3.6,1.63,1.63,0,0,0-1.6,1.8,1.75,1.75,0,0,0,1.6,1.8h-.2a1.8,1.8,0,1,0,1.8,1.8,1.92,1.92,0,0,0-1.4-1.8h.2a1.79,1.79,0,0,0,1.8-1.8,2,2,0,0,0-1.2-1.8,1.85,1.85,0,0,0,1.8-2,1.92,1.92,0,0,0-1.2-1.8,2.15,2.15,0,0,0,1.6-2,1.75,1.75,0,0,0-1.2-1.8,2,2,0,0,0,1.4-2,1.75,1.75,0,0,0-1.2-1.8,2,2,0,0,0,1.2-2V280a1.64,1.64,0,0,0,1.2.8,2.15,2.15,0,0,0-1.6,2,2,2,0,0,0,4,0,2,2,0,0,0-1.6-2,2,2,0,0,0,1.6-2,2,2,0,0,0-1.4-2,2,2,0,0,0,1.4-2v-.4a1.82,1.82,0,0,0,1.6.8,1.89,1.89,0,0,0,2-2,2,2,0,0,0-1.8-2,2,2,0,0,0,1.6-2,1.51,1.51,0,0,0-.2-.8,2.1,2.1,0,0,0,1.8,1,2,2,0,1,0-2-2,.73.73,0,0,0,.2.6c-.4-.6-.8-1-1.4-1a2.17,2.17,0,0,0,1.4-2v-.4a2.47,2.47,0,0,0,1.6.8,2,2,0,0,0,0-4,2,2,0,0,0,1.4-2v-.6a2.47,2.47,0,0,0,1.6.8,2,2,0,0,0,2-2,2,2,0,1,0-4,0v.6a3.22,3.22,0,0,0-1.4-.8,2.35,2.35,0,0,0,1.2-2V255a1.82,1.82,0,0,0,1.4.6,2,2,0,0,0,2-2,1.2,1.2,0,0,0-.2-.8,2.47,2.47,0,0,0,1.6.8,2,2,0,0,0,0-4,1.89,1.89,0,0,0-2,2,.73.73,0,0,0,.2.6,1.82,1.82,0,0,0-1.6-.8,2,2,0,0,0,1.2-2v-.6a1.82,1.82,0,0,0,1.4.6,2,2,0,0,0,2-2,1.8,1.8,0,0,0-.2-1,2,2,0,0,0,1.6,1,2,2,0,1,0-2-2c0,.4,0,.6.2.8a2.1,2.1,0,0,0-1.8-1h-.4a2,2,0,0,0,1.4-2,.73.73,0,0,0-.2-.6,1.82,1.82,0,0,0,1.4.6,2,2,0,1,0-2-2v.6a1.82,1.82,0,0,0-1.4-.6,2.1,2.1,0,0,0,1-1.8v-.6a2.84,2.84,0,0,0,1.2.4,2,2,0,0,0,2-2,1.2,1.2,0,0,0-.2-.8,1.82,1.82,0,0,0,1.4.6,2,2,0,0,0,2-2,1.89,1.89,0,0,0-2-2,2,2,0,0,0-2,2,.73.73,0,0,0,.2.6,2.27,2.27,0,0,0-1.6-.6h-.2a2.1,2.1,0,0,0,1-1.8v-.6a2.84,2.84,0,0,0,1.2.4,2,2,0,0,0,2-2c0-.4,0-.6-.2-.8a1.82,1.82,0,0,0,1.4.6,2,2,0,0,0,0-4,1.89,1.89,0,0,0-2,2,1.2,1.2,0,0,0,.2.8,2.27,2.27,0,0,0-1.6-.6h-.2a2.1,2.1,0,0,0,1-1.8.73.73,0,0,0-.2-.6,2.84,2.84,0,0,0,1.2.4,2,2,0,0,0,2-2,8.66,8.66,0,0,0-.2-1,1.82,1.82,0,0,0,1.4.6,2,2,0,1,0-2-2c0,.4.2.6.2,1a2.47,2.47,0,0,0-1.6-.8h-.4a2.1,2.1,0,0,0,1-1.8,1.2,1.2,0,0,0-.2-.8,2.84,2.84,0,0,0,1.2.4,2,2,0,0,0,0-4h-.4a2.1,2.1,0,0,0,1-1.8,1.2,1.2,0,0,0-.2-.8,2.84,2.84,0,0,0,1.2.4,2,2,0,1,0-2-2,1.2,1.2,0,0,0,.2.8,2.84,2.84,0,0,0-1.2-.4,2.22,2.22,0,0,0-2.2,2.2v.6a2.84,2.84,0,0,0-1.2-.4,2.22,2.22,0,0,0-2.2,2.2v.4a1.8,1.8,0,0,0-1-.2,2.22,2.22,0,0,0-2.2,2.2v.2a1.5,1.5,0,0,0-1-.2,2.43,2.43,0,0,0-2.4,2.4v.2a1.2,1.2,0,0,0-.8-.2,2.31,2.31,0,0,0-2.4,2.4h0c-.2,0-.6-.2-.8-.2a2.27,2.27,0,0,0-1.6.6s-3.6,2.8-12.8,10.4c-38.6,31.2-36.2,54.6-49.2,54.6a8.75,8.75,0,0,1-8.8-8.8c0-17.8,44.4-51.6,44.4-78.8a21,21,0,0,0-21.2-21,44.66,44.66,0,0,0-32.4,13.8c-5,5.2-7.2,10.6-7.2,14.2,0,2.6,1,4.2,2.8,4.2,6,0,11.2-8,11.8-8.8.2-.2.2-.2.6-.2a.64.64,0,0,1,.6.6c0,1-5,5-5,11.2a6.06,6.06,0,0,0,2.6,5c9.6-3.6,12.6-11,15.4-17.6,2-4.6,4.8-10,10.8-10a8.88,8.88,0,0,1,8.8,8.8c0,29-57,61.2-57,95.6C150.5,311.4,156.9,320.8,160.3,320.8ZM248.5,264a1.52,1.52,0,0,0,.8.4,2.1,2.1,0,0,0-1,1.8v.2c-.2-.2-.4-.4-.6-.4a2.67,2.67,0,0,0,.8-2Zm-.6,6a2.1,2.1,0,0,0,1-1.8V268a4.37,4.37,0,0,0,1,.6,1.92,1.92,0,0,0-1.2,1.8v.4C248.5,270.2,248.3,270,247.9,270Zm2.8-15.6c.2.2.6.2.8.4a2.1,2.1,0,0,0-1,1.8v.2c-.2-.2-.4-.2-.6-.4a2.67,2.67,0,0,0,.8-2Zm2.4-5.8a1.53,1.53,0,0,0,1,.4,2.1,2.1,0,0,0-1,1.8v.2a1.52,1.52,0,0,0-.8-.4,2.47,2.47,0,0,0,.8-1.6Zm-.6,10a2.3,2.3,0,0,0-1.2,1.8v.2c-.2-.2-.6-.4-.8-.6a2.1,2.1,0,0,0,1-1.8V258A1.1,1.1,0,0,0,252.5,258.6Zm-3.4,15.6v.4a2,2,0,0,0-1-.8,2,2,0,0,0,1.2-2v-.4a1.82,1.82,0,0,0,1.4.6A2.34,2.34,0,0,0,249.1,274.2Zm2.8-9.6v.4a1.21,1.21,0,0,0-1.2-.6,2.3,2.3,0,0,0,1.2-1.8v-.4a1.82,1.82,0,0,0,1.4.6A1.62,1.62,0,0,0,251.9,264.6Zm2.2-10v.4a4.37,4.37,0,0,0-1-.6,2.1,2.1,0,0,0,1-1.8v-.4a2.89,2.89,0,0,0,1.4.4h0A2.08,2.08,0,0,0,254.1,254.6Zm1.4-12a2.84,2.84,0,0,0,1.2.4,2.1,2.1,0,0,0-1,1.8v.4a1.53,1.53,0,0,0-1-.4,2.47,2.47,0,0,0,.8-1.6Zm2.6,4a2,2,0,0,0-1.4,2v.4a1.73,1.73,0,0,0-1.2-.6,2.1,2.1,0,0,0,1-1.8v-.4a2.84,2.84,0,0,0,1.2.4Zm1.8-14.2v.6a2.84,2.84,0,0,0-1.2-.4,2.47,2.47,0,0,0,.8-1.6v-.4a2.84,2.84,0,0,0,1.2.4h.4C260.3,231,259.9,231.6,259.9,232.4Zm2.8-13.6v-.6a1.8,1.8,0,0,0,1,.2h.6a1.82,1.82,0,0,0-.8,1.6.73.73,0,0,0,.2.6,2.84,2.84,0,0,0-1.2-.4h0C262.5,219.8,262.7,219.4,262.7,218.8Zm-.4,5.8h.6a2.1,2.1,0,0,0-1,1.8v.6a2.89,2.89,0,0,0-1.4-.4h0a2.27,2.27,0,0,0,.6-1.6v-.6C261.5,224.4,261.9,224.6,262.3,224.6Zm-2.6-3.8a1.5,1.5,0,0,0,1,.2h.2a1.82,1.82,0,0,0-.6,1.4v.4c-.2-.2-.6-.2-1-.4a1.69,1.69,0,0,0,.4-1.4Zm-1.6,6a1.5,1.5,0,0,0,1,.2h0a2.27,2.27,0,0,0-.6,1.6v.4c-.2-.2-.6-.2-1-.4a2.16,2.16,0,0,0,.6-1.4Zm-.6,10v-.4a2.84,2.84,0,0,0,1.2.4h.2a2.1,2.1,0,0,0-1,1.8v.4c-.4-.2-.6-.4-1-.4A2.44,2.44,0,0,0,257.5,236.8Zm-1-13.4c.2,0,.4.2.6.2a2.89,2.89,0,0,0-.4,1.4v.4a.73.73,0,0,0-.6-.2,2.84,2.84,0,0,0,.4-1.2Zm-.2,9.8v-.4a1.5,1.5,0,0,0,1,.2,2.27,2.27,0,0,0-.6,1.6v.4c-.2-.2-.6-.2-.8-.4A2.89,2.89,0,0,0,256.3,233.2Zm-1.4-4c.2,0,.4.2.6.2a1.69,1.69,0,0,0-.4,1.4v.2c-.2,0-.4-.2-.6-.2a2.89,2.89,0,0,0,.4-1.4Zm-.6,9.6a1.2,1.2,0,0,0,.8.2,2.47,2.47,0,0,0-.8,1.6v.2c-.2-.2-.4-.2-.8-.4a2.27,2.27,0,0,0,.6-1.6C254.3,239,254.3,239,254.3,238.8Zm-.8-13h.4a2.84,2.84,0,0,0-.4,1.2v.2c-.2,0-.2,0-.4-.2.2,0,.4-.6.4-1.2Zm-.4,9.4c.2,0,.4.2.6.2a1.82,1.82,0,0,0-.6,1.4v.2c-.2,0-.4-.2-.6-.2a2,2,0,0,0,.6-1.6Zm-.2,9.8a2.47,2.47,0,0,0-.8,1.6v.2a.73.73,0,0,0-.6-.2,2.27,2.27,0,0,0,.6-1.6v-.2C252.3,245,252.5,245,252.9,245Zm-1.2-13.2c.2,0,.2,0,.4.2a2.84,2.84,0,0,0-.4,1.2v.2c-.2,0-.2,0-.4-.2a2.89,2.89,0,0,0,.4-1.4Zm-.6,9.6h.4a2.16,2.16,0,0,0-.6,1.4v.2c-.2,0-.2-.2-.4-.2A2.16,2.16,0,0,0,251.1,241.4Zm-1.2-3.6h.2a2.89,2.89,0,0,0-.4,1.4h-.2A3.71,3.71,0,0,0,249.9,237.8Zm0,13h.6a2.47,2.47,0,0,0-.8,1.6v.2a.7.7,0,0,1-.4-.2A3,3,0,0,0,249.9,250.8Zm-1-3.6h.4a2.27,2.27,0,0,0-.6,1.6h0a.2.2,0,0,1-.2-.2A2.33,2.33,0,0,0,248.9,247.2Zm-1.6,9.6h.4c-.2.2-.4.4-.4.6Zm.6,3.6h0a.73.73,0,0,1,.6.2,2,2,0,0,0-.8,1.8v.2a.62.62,0,0,0-.4-.2A3.38,3.38,0,0,0,247.9,260.4Zm-2.4,19.4v.4c-.2-.2-.4-.6-.8-.8a2.35,2.35,0,0,0,1.2-2v-.2a1.7,1.7,0,0,0,1,.6A2.17,2.17,0,0,0,245.5,279.8Zm1.6-22c0,.2-.2.4-.2.6h0a.7.7,0,0,0-.4-.2C246.7,258.2,246.9,258,247.1,257.8Zm-.6,16.2a1.92,1.92,0,0,0-1.2,1.8v.2c-.2-.2-.4-.4-.6-.4a2.1,2.1,0,0,0,1-1.8v-.2C245.9,273.8,246.3,273.8,246.5,274Zm-1.4-2h0c-.2,0-.2-.2-.4-.2a2.1,2.1,0,0,0,1-1.8h0c.2.2.4.2.6.4A1.52,1.52,0,0,0,245.1,272Zm0-5.8h0c.2,0,.2.2.4.2l-.4.4Zm-.4,1.2v.6h0c-.2,0-.2-.2-.4-.2C244.5,267.8,244.5,267.6,244.7,267.4Zm-2.4,8c.2,0,.2.2.4.2-.2.2-.4.2-.4.4Zm0,3.6h0c.2.2.4.2.6.4a1.56,1.56,0,0,0-.8.8A2.54,2.54,0,0,0,242.3,279Zm-.6-2v.6l-.2-.2C241.5,277.2,241.5,277,241.7,277Zm.2,3.2a1.5,1.5,0,0,0-.2,1h0l-.4-.4A.53.53,0,0,0,241.9,280.2Zm.4,2.6h0c.2.2.4.2.6.4a1.92,1.92,0,0,0-1.2,1.8v.2l-.6-.6A1.92,1.92,0,0,0,242.3,282.8Zm-.2,3.6v-.2a1.07,1.07,0,0,0,.8.6,1.92,1.92,0,0,0-1.4,1.8v.4a1.56,1.56,0,0,0-.8-.8A1.71,1.71,0,0,0,242.1,286.4Zm-3.4-2,.2.2c-.2,0-.2.2-.4.2C238.7,284.6,238.7,284.6,238.7,284.4Zm-.2,3.4.4.4c-.2.2-.4.2-.6.4C238.5,288.4,238.5,288.2,238.5,287.8Zm-.6-1.8v.4l-.2-.2Zm0,3.2c0,.2-.2.4-.2.8h0c0-.2-.2-.2-.4-.4C237.7,289.6,237.7,289.4,237.9,289.2Zm.2,2h0c.2.2.4.4.6.4a1.92,1.92,0,0,0-1.2,1.8v.2c-.2-.2-.2-.4-.4-.6C237.7,292.8,238.1,292.2,238.1,291.2Zm-4.2,4.8c0,.2.2.2.4.4a.43.43,0,0,0-.4.4Zm-.6,1.4c0,.2-.2.4-.2.6h0a.7.7,0,0,0-.2-.4C233.1,297.6,233.1,297.6,233.3,297.4Zm-4.4,5.8c0,.2.2.2.2.4a.7.7,0,0,0-.4.2A.73.73,0,0,0,228.9,303.2Zm-5.8,5.2.2-.2v.4a1.53,1.53,0,0,0,.4,1c-.2.2-.4.2-.6.4.2-.4.4-.6.4-1C223.3,309,223.3,308.8,223.1,308.4Zm-4.8,3.2h0a.2.2,0,0,1,.2.2,1.8,1.8,0,0,0,.2,1c-.2,0-.4.2-.6.4a1.5,1.5,0,0,0,.2-1A.37.37,0,0,0,218.3,311.6Zm-3.8,1.4Z" transform="translate(-150.3 -176.2)"/><circle cx="133" cy="36" r="1.4"/><path d="M293.9,199a1.2,1.2,0,1,0-1.2-1.2A1.15,1.15,0,0,0,293.9,199Z" transform="translate(-150.3 -176.2)"/><path d="M308.7,269a.4.4,0,1,0-.4-.4C308.5,269,308.7,269,308.7,269Z" transform="translate(-150.3 -176.2)"/><path d="M310.3,231.4a.4.4,0,1,0-.4-.4A.43.43,0,0,0,310.3,231.4Z" transform="translate(-150.3 -176.2)"/><path d="M302.9,190.6a.8.8,0,1,0-.8-.8A.86.86,0,0,0,302.9,190.6Z" transform="translate(-150.3 -176.2)"/><path d="M310.5,250.2a.4.4,0,1,0-.4-.4C310.1,250.2,310.3,250.2,310.5,250.2Z" transform="translate(-150.3 -176.2)"/><path d="M310.3,218.2c.2,0,.6-.2.6-.4a.64.64,0,0,0-.6-.6c-.2,0-.4.2-.4.6A.43.43,0,0,0,310.3,218.2Z" transform="translate(-150.3 -176.2)"/><circle cx="159" cy="68" r="0.4"/><path d="M308.5,211.8a.6.6,0,1,0,.6.6A.64.64,0,0,0,308.5,211.8Z" transform="translate(-150.3 -176.2)"/><path d="M308.3,263.4a.4.4,0,1,0-.4-.4A.43.43,0,0,0,308.3,263.4Z" transform="translate(-150.3 -176.2)"/><circle cx="158.4" cy="49.2" r="0.6"/><path d="M307.7,238.4a.6.6,0,1,0,1.2,0,.53.53,0,0,0-.6-.6A.64.64,0,0,0,307.7,238.4Z" transform="translate(-150.3 -176.2)"/><path d="M309.1,204.6c0,.2.2.6.4.6a.6.6,0,1,0,0-1.2C309.3,204.2,309.1,204.4,309.1,204.6Z" transform="translate(-150.3 -176.2)"/><path d="M303.5,202a.8.8,0,1,0,.8-.8A.86.86,0,0,0,303.5,202Z" transform="translate(-150.3 -176.2)"/><path d="M305.3,195.4a.8.8,0,1,0-.8-.8A.86.86,0,0,0,305.3,195.4Z" transform="translate(-150.3 -176.2)"/><path d="M309.1,177.4a.6.6,0,1,0-.6-.6A.53.53,0,0,0,309.1,177.4Z" transform="translate(-150.3 -176.2)"/><circle cx="153" cy="6.4" r="0.8"/><circle cx="155.4" cy="11" r="0.8"/><path d="M306.3,180.4a.64.64,0,0,0,.6-.6.89.89,0,0,0-.6-.8.86.86,0,0,0-.8.8A.89.89,0,0,0,306.3,180.4Z" transform="translate(-150.3 -176.2)"/><circle cx="158.4" cy="8.2" r="0.6"/><path d="M308.3,192.6a.6.6,0,1,0-.6-.6C307.5,192.2,307.9,192.6,308.3,192.6Z" transform="translate(-150.3 -176.2)"/><circle cx="157.2" cy="23.4" r="0.6"/><path d="M270.1,213.4a2,2,0,1,0-2-2A2,2,0,0,0,270.1,213.4Z" transform="translate(-150.3 -176.2)"/><path d="M245.7,319.8a.6.6,0,1,0-.6-.6A.53.53,0,0,0,245.7,319.8Z" transform="translate(-150.3 -176.2)"/><circle cx="95.6" cy="126.4" r="1.6"/><path d="M247.3,316a.8.8,0,1,0-.8.8A.73.73,0,0,0,247.3,316Z" transform="translate(-150.3 -176.2)"/><path d="M248.7,312.8a1,1,0,1,0-1,1A1.28,1.28,0,0,0,248.7,312.8Z" transform="translate(-150.3 -176.2)"/><circle cx="98" cy="133" r="1.2"/><circle cx="100.8" cy="114" r="1.8"/><path d="M247.3,293.2a1.8,1.8,0,1,0-1.8-1.8C245.3,292.4,246.3,293.2,247.3,293.2Z" transform="translate(-150.3 -176.2)"/><path d="M247.5,285.6a2,2,0,0,0-2,1.8,2,2,0,0,0,4,0A2.13,2.13,0,0,0,247.5,285.6Z" transform="translate(-150.3 -176.2)"/><path d="M249.7,319.8a.4.4,0,1,0-.4-.4A.43.43,0,0,0,249.7,319.8Z" transform="translate(-150.3 -176.2)"/><path d="M246.3,300.6a1.8,1.8,0,1,0-1.8-1.8A2.11,2.11,0,0,0,246.3,300.6Z" transform="translate(-150.3 -176.2)"/><path d="M246.9,297a1.8,1.8,0,1,0-1.8-1.8A1.79,1.79,0,0,0,246.9,297Z" transform="translate(-150.3 -176.2)"/><path d="M254.7,316.4a.6.6,0,1,0-.6-.6A.53.53,0,0,0,254.7,316.4Z" transform="translate(-150.3 -176.2)"/><path d="M257.5,308.4a1,1,0,1,0-1,1A1.07,1.07,0,0,0,257.5,308.4Z" transform="translate(-150.3 -176.2)"/><path d="M260.3,312a.8.8,0,1,0-.8.8C259.9,312.6,260.3,312.4,260.3,312Z" transform="translate(-150.3 -176.2)"/><circle cx="106.8" cy="128.2" r="1.2"/><path d="M258.7,316.2a.4.4,0,1,0-.4-.4C258.1,316.2,258.5,316.2,258.7,316.2Z" transform="translate(-150.3 -176.2)"/><path d="M253.7,319.6a.4.4,0,1,0-.4-.4A.43.43,0,0,0,253.7,319.6Z" transform="translate(-150.3 -176.2)"/><circle cx="102.8" cy="128.8" r="1.4"/><path d="M253.5,308.8a1.2,1.2,0,1,0-1.2,1.2A1.15,1.15,0,0,0,253.5,308.8Z" transform="translate(-150.3 -176.2)"/><circle cx="101.2" cy="136.2" r="1"/><path d="M250.7,316.6a.6.6,0,1,0-.6-.6A.53.53,0,0,0,250.7,316.6Z" transform="translate(-150.3 -176.2)"/><circle cx="105.2" cy="136" r="0.8"/><circle cx="118.4" cy="41.4" r="2"/><path d="M265.7,246.4a1.8,1.8,0,1,0-1.8-1.8A1.79,1.79,0,0,0,265.7,246.4Z" transform="translate(-150.3 -176.2)"/><circle cx="120" cy="45.4" r="1.8"/><path d="M262.7,240.4a2,2,0,1,0,2-2A2,2,0,0,0,262.7,240.4Z" transform="translate(-150.3 -176.2)"/><path d="M264.7,234.2a2,2,0,1,0,2-2A2.15,2.15,0,0,0,264.7,234.2Z" transform="translate(-150.3 -176.2)"/><circle cx="118.4" cy="51.8" r="1.8"/><circle cx="101" cy="110" r="1.8"/><path d="M278.1,208.6a1.6,1.6,0,1,0,1.6,1.6C279.9,209.4,279.1,208.6,278.1,208.6Z" transform="translate(-150.3 -176.2)"/><path d="M281.3,206.2a1.6,1.6,0,1,0,1.6,1.6A1.58,1.58,0,0,0,281.3,206.2Z" transform="translate(-150.3 -176.2)"/><path d="M275.1,211a1.8,1.8,0,1,0,1.8,1.8A2.11,2.11,0,0,0,275.1,211Z" transform="translate(-150.3 -176.2)"/><path d="M271.9,213.4a1.8,1.8,0,1,0,1.8,1.8A1.79,1.79,0,0,0,271.9,213.4Z" transform="translate(-150.3 -176.2)"/><circle cx="134.2" cy="84.4" r="1.2"/><path d="M254.7,270.8a2,2,0,1,0,2,2A1.89,1.89,0,0,0,254.7,270.8Z" transform="translate(-150.3 -176.2)"/><path d="M261.3,250.8a2,2,0,1,0,2-2A1.89,1.89,0,0,0,261.3,250.8Z" transform="translate(-150.3 -176.2)"/><path d="M251.3,284.2a1.8,1.8,0,1,0-1.8-1.8A1.79,1.79,0,0,0,251.3,284.2Z" transform="translate(-150.3 -176.2)"/><path d="M255.1,278.6a1.8,1.8,0,1,0-1.8-1.8C253.1,277.8,253.9,278.6,255.1,278.6Z" transform="translate(-150.3 -176.2)"/><path d="M258.5,256.8a2,2,0,1,0,2-2A2.15,2.15,0,0,0,258.5,256.8Z" transform="translate(-150.3 -176.2)"/><circle cx="107.2" cy="86.6" r="2"/><circle cx="107.8" cy="90.8" r="2"/><path d="M258.5,273a1.8,1.8,0,1,0-1.8-1.8A1.79,1.79,0,0,0,258.5,273Z" transform="translate(-150.3 -176.2)"/><circle cx="101" cy="102" r="2"/><path d="M278.3,297a.8.8,0,1,0-.8.8A.86.86,0,0,0,278.3,297Z" transform="translate(-150.3 -176.2)"/><circle cx="126.6" cy="125.6" r="0.6"/><path d="M278.7,292.2a1,1,0,1,0-1,1A.94.94,0,0,0,278.7,292.2Z" transform="translate(-150.3 -176.2)"/><path d="M279.1,287.6a1,1,0,1,0-1,1A1.07,1.07,0,0,0,279.1,287.6Z" transform="translate(-150.3 -176.2)"/><path d="M278.1,281.6a1.29,1.29,0,0,0-1.2,1.2,1.15,1.15,0,0,0,1.2,1.2,1.2,1.2,0,1,0,0-2.4Z" transform="translate(-150.3 -176.2)"/><path d="M277.9,258.8a1.4,1.4,0,1,0-1.4,1.4A1.37,1.37,0,0,0,277.9,258.8Z" transform="translate(-150.3 -176.2)"/><path d="M274.3,277.8a1.34,1.34,0,0,0-1.4,1.2,1.37,1.37,0,0,0,1.4,1.4c.8,0,1.2-.6,1.2-1.4A1.29,1.29,0,0,0,274.3,277.8Z" transform="translate(-150.3 -176.2)"/><path d="M278.1,276.8a1.2,1.2,0,1,0,1.2,1.2A1.29,1.29,0,0,0,278.1,276.8Z" transform="translate(-150.3 -176.2)"/><path d="M277.1,265a1.4,1.4,0,1,0-1.4-1.4A1.5,1.5,0,0,0,277.1,265Z" transform="translate(-150.3 -176.2)"/><path d="M276.3,306.8a.4.4,0,1,0-.4-.4C275.7,306.6,276.1,306.8,276.3,306.8Z" transform="translate(-150.3 -176.2)"/><path d="M285.1,255.6a1.2,1.2,0,1,0-1.2,1.2A1.29,1.29,0,0,0,285.1,255.6Z" transform="translate(-150.3 -176.2)"/><path d="M282.9,286.6a1,1,0,1,0-1,1A.94.94,0,0,0,282.9,286.6Z" transform="translate(-150.3 -176.2)"/><path d="M282.5,291.6a.8.8,0,1,0-.8.8A.86.86,0,0,0,282.5,291.6Z" transform="translate(-150.3 -176.2)"/><path d="M281.9,280.6a1,1,0,1,0,1,1A1.07,1.07,0,0,0,281.9,280.6Z" transform="translate(-150.3 -176.2)"/><path d="M274.3,282.6a1.2,1.2,0,1,0,1.2,1.2A1.15,1.15,0,0,0,274.3,282.6Z" transform="translate(-150.3 -176.2)"/><circle cx="129.8" cy="81" r="1.4"/><path d="M280.7,263.4a1.2,1.2,0,1,0-1.2-1.2A1.29,1.29,0,0,0,280.7,263.4Z" transform="translate(-150.3 -176.2)"/><path d="M280.3,306.2a.4.4,0,1,0-.4-.4C279.9,306.2,280.1,306.2,280.3,306.2Z" transform="translate(-150.3 -176.2)"/><path d="M281.5,301.2a.6.6,0,1,0-.6.6A.64.64,0,0,0,281.5,301.2Z" transform="translate(-150.3 -176.2)"/><path d="M282.1,296.4a.8.8,0,1,0-.8.8A.86.86,0,0,0,282.1,296.4Z" transform="translate(-150.3 -176.2)"/><path d="M274.3,297.6a1,1,0,1,0-1,1A.94.94,0,0,0,274.3,297.6Z" transform="translate(-150.3 -176.2)"/><circle cx="114.6" cy="127.2" r="1"/><path d="M265.1,307.6a.8.8,0,1,0-.8.8A.86.86,0,0,0,265.1,307.6Z" transform="translate(-150.3 -176.2)"/><path d="M263.5,312.2a.6.6,0,1,0-.6-.6A.64.64,0,0,0,263.5,312.2Z" transform="translate(-150.3 -176.2)"/><path d="M266.7,299a1.2,1.2,0,1,0-1.2,1.2A1.29,1.29,0,0,0,266.7,299Z" transform="translate(-150.3 -176.2)"/><path d="M267.3,294.8a1.2,1.2,0,1,0-1.2,1.2A1.29,1.29,0,0,0,267.3,294.8Z" transform="translate(-150.3 -176.2)"/><path d="M262.1,304a1.2,1.2,0,1,0-1.2,1.2Q262.1,304.9,262.1,304Z" transform="translate(-150.3 -176.2)"/><path d="M267.5,311.8a.4.4,0,1,0-.4-.4A.43.43,0,0,0,267.5,311.8Z" transform="translate(-150.3 -176.2)"/><path d="M275.3,288.4a1.2,1.2,0,1,0-1.2,1.2A1.29,1.29,0,0,0,275.3,288.4Z" transform="translate(-150.3 -176.2)"/><path d="M262.7,316.2a.4.4,0,1,0-.4-.4A.43.43,0,0,0,262.7,316.2Z" transform="translate(-150.3 -176.2)"/><circle cx="111.4" cy="123.6" r="1.2"/><path d="M271.5,311.4a.4.4,0,1,0-.4-.4C271.3,311.2,271.3,311.4,271.5,311.4Z" transform="translate(-150.3 -176.2)"/><path d="M273.7,302.2a.8.8,0,1,0-.8.8A.86.86,0,0,0,273.7,302.2Z" transform="translate(-150.3 -176.2)"/><path d="M261.3,308a1,1,0,1,0-1,1A1.07,1.07,0,0,0,261.3,308Z" transform="translate(-150.3 -176.2)"/><circle cx="123.6" cy="116.8" r="1"/><circle cx="122" cy="130.6" r="0.6"/><path d="M269.1,307.2a.8.8,0,1,0-.8.8C268.7,307.8,269.1,307.6,269.1,307.2Z" transform="translate(-150.3 -176.2)"/><path d="M270.5,298.4a1,1,0,1,0-1,1A.94.94,0,0,0,270.5,298.4Z" transform="translate(-150.3 -176.2)"/><path d="M269.9,302.8a1.07,1.07,0,0,0-1-1,.94.94,0,0,0-1,1,1.07,1.07,0,0,0,1,1C269.5,303.6,269.9,303.2,269.9,302.8Z" transform="translate(-150.3 -176.2)"/><path d="M271.1,293.8a1.2,1.2,0,1,0-1.2,1.2A1.15,1.15,0,0,0,271.1,293.8Z" transform="translate(-150.3 -176.2)"/><path d="M271.5,289.4a1.2,1.2,0,1,0-1.2,1.2A1.29,1.29,0,0,0,271.5,289.4Z" transform="translate(-150.3 -176.2)"/></svg>