<?xml version="1.0" encoding="utf-8"?>
<!-- Generator: Adobe Illustrator 24.1.2, SVG Export Plug-In . SVG Version: 6.00 Build 0)  -->
<svg version="1.1" id="Слой_1" xmlns="http://www.w3.org/2000/svg" xmlns:xlink="http://www.w3.org/1999/xlink" x="0px" y="0px"
	 viewBox="0 0 19 19" style="enable-background:new 0 0 19 19;" xml:space="preserve">
<style type="text/css">
	.st0{fill:#FFFFFF;filter:url(#Adobe_OpacityMaskFilter);}
	.st1{mask:url(#mask0_1_);}
	.st2{fill-rule:evenodd;clip-rule:evenodd;}
	.st3{fill-rule:evenodd;clip-rule:evenodd;fill:#FFFFFF;}
</style>
<defs>
	<filter id="Adobe_OpacityMaskFilter" filterUnits="userSpaceOnUse" x="0" y="0" width="18" height="18">
		<feColorMatrix  type="matrix" values="1 0 0 0 0  0 1 0 0 0  0 0 1 0 0  0 0 0 1 0"/>
	</filter>
</defs>
<mask maskUnits="userSpaceOnUse" x="0" y="0" width="18" height="18" id="mask0_1_">
	<path class="st0" d="M0,0h18v18H0V0z"/>
</mask>
<g class="st1">
	<path class="st2" d="M16,3c0-0.6-0.5-1-1-1c-0.3,0-0.5,0.1-0.7,0.3C14.1,2.5,14,2.7,14,3c0,0.5,0.4,1,1,1c0.1,0,0.3,0,0.4-0.1
		c0.1-0.1,0.2-0.1,0.3-0.2c0.1-0.1,0.2-0.2,0.2-0.3S16,3.1,16,3z M9,4C8.4,4,7.7,4.1,7.1,4.4C6.5,4.6,6,5,5.5,5.5
		C5,5.9,4.7,6.5,4.4,7.1C4.2,7.7,4,8.3,4,9c0,1.3,0.5,2.6,1.4,3.5C6.4,13.5,7.7,14,9,14c0.7,0,1.3-0.1,1.9-0.4
		c0.6-0.2,1.2-0.6,1.6-1.1c0.5-0.5,0.8-1,1.1-1.6C13.9,10.3,14,9.7,14,9c0-0.7-0.1-1.3-0.4-1.9S13,5.9,12.6,5.5
		c-0.5-0.5-1-0.8-1.6-1.1C10.3,4.1,9.7,4,9,4z M18,9.1c0,1.3,0,2.7,0,4c0,1.5-0.6,2.7-1.7,3.7c-0.6,0.5-1.3,0.9-2.1,1.1
		C13.9,18,13.5,18,13.1,18c-2.7,0-5.4,0-8.1,0c-1.9,0-3.4-0.9-4.4-2.6C0.2,14.7,0,13.9,0,13.1c0-2.7,0-5.4,0-8.1
		C0,3,0.9,1.6,2.6,0.6C3.3,0.2,4.2,0,5,0c2.7,0,5.4,0,8.1,0c1.2,0,2.3,0.4,3.2,1.2c0.9,0.7,1.5,1.8,1.7,2.9C18,4.4,18,4.7,18,5
		C18,6.4,18,7.7,18,9.1"/>
</g>
<path class="st3" d="M9,6C8.6,6,8.2,6.1,7.9,6.2c-0.4,0.2-0.7,0.4-1,0.7c-0.3,0.3-0.5,0.6-0.6,1C6.1,8.2,6,8.6,6,9
	c0,0.4,0.1,0.8,0.2,1.1c0.2,0.4,0.4,0.7,0.7,1c0.3,0.3,0.6,0.5,1,0.6C8.3,11.9,8.6,12,9,12c0.8,0,1.6-0.3,2.1-0.9S12,9.8,12,9
	c0-0.8-0.3-1.6-0.9-2.1S9.8,6,9,6z M9,4c0.7,0,1.3,0.1,1.9,0.4c0.6,0.3,1.2,0.6,1.6,1.1c0.5,0.5,0.8,1,1.1,1.6C13.9,7.7,14,8.3,14,9
	c0,2.8-2.3,5-5.1,5C6.3,14,4,11.8,4,9c0-0.7,0.1-1.3,0.4-1.9C4.7,6.5,5,5.9,5.5,5.5C6,5,6.5,4.6,7.1,4.4C7.7,4.1,8.4,4,9,4z M16,3
	c0,0.5-0.4,1-1,1c-0.3,0-0.5-0.1-0.7-0.3C14.1,3.5,14,3.3,14,3c0-0.3,0.1-0.5,0.3-0.7C14.5,2.1,14.8,2,15,2c0.3,0,0.5,0.1,0.7,0.3
	C15.9,2.5,16,2.7,16,3"/>
<path class="st2" d="M9,6c0.4,0,0.8,0.1,1.1,0.2c0.4,0.2,0.7,0.4,1,0.7c0.3,0.3,0.5,0.6,0.7,1C12,8.2,12,8.6,12,9
	c0,0.4-0.1,0.8-0.2,1.1c-0.2,0.4-0.4,0.7-0.7,1c-0.3,0.3-0.6,0.5-1,0.7C9.8,11.9,9.4,12,9,12c-0.8,0-1.6-0.3-2.1-0.9S6,9.8,6,9
	c0-0.8,0.3-1.6,0.9-2.1S8.2,6,9,6z"/>
</svg>
