<?xml version="1.0" encoding="utf-8"?>
<!-- Generator: Adobe Illustrator 24.1.2, SVG Export Plug-In . SVG Version: 6.00 Build 0)  -->
<svg version="1.1" id="Слой_1" xmlns="http://www.w3.org/2000/svg" xmlns:xlink="http://www.w3.org/1999/xlink" x="0px" y="0px"
	 viewBox="0 0 16 19" style="enable-background:new 0 0 16 19;" xml:space="preserve">
<style type="text/css">
	.st0{fill:#FFFFFF;filter:url(#Adobe_OpacityMaskFilter);}
	.st1{mask:url(#mask0_1_);}
	.st2{fill-rule:evenodd;clip-rule:evenodd;}
</style>
<defs>
	<filter id="Adobe_OpacityMaskFilter" filterUnits="userSpaceOnUse" x="0" y="0" width="16" height="19">
		<feColorMatrix  type="matrix" values="1 0 0 0 0  0 1 0 0 0  0 0 1 0 0  0 0 0 1 0"/>
	</filter>
</defs>
<mask maskUnits="userSpaceOnUse" x="0" y="0" width="16" height="19" id="mask0_1_">
	<path class="st0" d="M0,0h16v19H0V0z"/>
</mask>
<g class="st1">
	<path class="st2" d="M6.6,12.6C6,15.2,5.4,17.7,3.4,19C2.8,15,4.3,12.1,5,8.9C3.8,7.1,5.1,3.4,7.6,4.3c3.1,1.1-2.6,6.8,1.2,7.5
		c4,0.7,5.6-6.4,3.2-8.7C8.4-0.3,1.5,3,2.4,7.8C2.6,9,3.9,9.4,2.9,11c-2.3-0.5-3-2.1-2.9-4.4C0.1,3,3.6,0.4,7,0.1
		c4.3-0.4,8.4,1.5,8.9,5.2c0.6,4.2-1.9,8.8-6.6,8.5C8.1,13.7,7.6,13.1,6.6,12.6L6.6,12.6z"/>
</g>
</svg>
