<?xml version="1.0" encoding="utf-8"?>
<!-- Generator: Adobe Illustrator 24.1.2, SVG Export Plug-In . SVG Version: 6.00 Build 0)  -->
<svg version="1.1" id="Слой_1" xmlns="http://www.w3.org/2000/svg" xmlns:xlink="http://www.w3.org/1999/xlink" x="0px" y="0px"
	 viewBox="0 0 22 19" style="enable-background:new 0 0 22 19;" xml:space="preserve">
<style type="text/css">
	.st0{fill-rule:evenodd;clip-rule:evenodd;}
</style>
<path class="st0" d="M22,2.2c-0.8,0.4-1.7,0.6-2.6,0.8c1-0.6,1.7-1.6,2-2.7c-0.9,0.6-1.8,0.9-2.9,1.2c-0.8-0.9-2-1.5-3.3-1.5
	c-2.5,0-4.5,2.1-4.5,4.8c0,0.4,0,0.7,0.1,1.1c-3.7-0.2-7.1-2.1-9.3-5C1.1,1.6,0.9,2.4,0.9,3.3c0,1.7,0.8,3.1,2,4
	c-0.7,0-1.4-0.2-2-0.6v0.1c0,2.3,1.6,4.3,3.6,4.7c-0.7,0.2-1.4,0.2-2,0.1c0.6,1.9,2.2,3.3,4.2,3.3c-1.5,1.3-3.5,2.1-5.6,2.1
	c-0.4,0-0.7,0-1.1-0.1C2,18.2,4.4,19,6.9,19c8.3,0,12.8-7.3,12.8-13.6c0-0.2,0-0.4,0-0.6C20.6,4,21.4,3.2,22,2.2"/>
</svg>
