<?xml version="1.0" encoding="utf-8"?>
<!-- Generator: Adobe Illustrator 24.1.2, SVG Export Plug-In . SVG Version: 6.00 Build 0)  -->
<svg version="1.1" id="Слой_1" xmlns="http://www.w3.org/2000/svg" xmlns:xlink="http://www.w3.org/1999/xlink" x="0px" y="0px"
	 viewBox="0 0 27 19" style="enable-background:new 0 0 27 19;" xml:space="preserve">
<style type="text/css">
	.st0{fill:#FFFFFF;filter:url(#Adobe_OpacityMaskFilter);}
	.st1{mask:url(#mask0_1_);}
	.st2{fill-rule:evenodd;clip-rule:evenodd;}
	.st3{fill-rule:evenodd;clip-rule:evenodd;fill:#FFFFFF;}
</style>
<defs>
	<filter id="Adobe_OpacityMaskFilter" filterUnits="userSpaceOnUse" x="0" y="0" width="27" height="19">
		<feColorMatrix  type="matrix" values="1 0 0 0 0  0 1 0 0 0  0 0 1 0 0  0 0 0 1 0"/>
	</filter>
</defs>
<mask maskUnits="userSpaceOnUse" x="0" y="0" width="27" height="19" id="mask0_1_">
	<path class="st0" d="M0,0h27v19H0V0z"/>
</mask>
<g class="st1">
	<path class="st2" d="M26.4,3c-0.2-0.6-0.5-1.1-0.9-1.5C25.1,1,24.6,0.7,24,0.6C21.9,0,13.5,0,13.5,0S5.1,0,3,0.6
		C2.4,0.7,1.9,1,1.4,1.4C1,1.9,0.7,2.4,0.6,3C0,5.1,0,9.5,0,9.5s0,4.4,0.6,6.5c0.2,0.6,0.5,1.1,0.9,1.5C1.9,18,2.4,18.3,3,18.4
		C5.1,19,13.5,19,13.5,19s8.4,0,10.5-0.6c0.6-0.2,1.1-0.5,1.5-0.9c0.4-0.4,0.7-0.9,0.9-1.5C27,13.9,27,9.5,27,9.5S27,5.1,26.4,3z"/>
</g>
<path class="st3" d="M10,14l7-4l-7-4V14z"/>
</svg>
