<?xml version="1.0" encoding="utf-8"?>
<!-- Generator: Adobe Illustrator 24.1.2, SVG Export Plug-In . SVG Version: 6.00 Build 0)  -->
<svg version="1.1" id="Layer_1" xmlns="http://www.w3.org/2000/svg" xmlns:xlink="http://www.w3.org/1999/xlink" x="0px" y="0px"
	 viewBox="0 0 400 90.9" style="enable-background:new 0 0 400 90.9;" xml:space="preserve">
<style type="text/css">
	.st0{fill:#231F20;}
</style>
<g>
	<g>
		<path class="st0" d="M342.3,68.2V24.5c0-3.4,2.7-3.4,4-3.4V20h-15.5v1.1c1.3,0,4,0,4,3.4v43.7c0,3.4-2.8,3.4-4,3.4v1.1h15.5v-1.1
			C345,71.6,342.3,71.6,342.3,68.2z"/>
		<path class="st0" d="M289.4,19.9h-13.9V21c6.7,0,4.9,4.4,4.1,7c-1.9,5.8-12.2,37.2-12.2,37.2h-0.2L254.4,27
			c-0.3-0.9-0.9-2.6-0.9-3.5c0-1.6,1-2.4,4-2.4V20h-15.9v1.1c3.5,0,3.9,1.9,4.6,3.7l17,48.5h4.9c0,0,14.4-44.1,15.7-47.8
			c1.1-3.5,2.9-4.4,5.7-4.4L289.4,19.9L289.4,19.9z"/>
		<path class="st0" d="M308,41.8c-9.6-2-13.4-3.2-13.4-9.1c0-6,5-10.6,13.4-10.6c6,0,12.2,3.9,13.3,11h1.2l-0.3-11.4
			c-3.3-1.8-9.6-2.7-12.9-2.7c-12.5,0-20.6,7-20.6,15.1c0,10,7.2,12.5,20.6,15.3c5.4,1.1,9.9,2.7,9.9,9.3c0,8.5-7.2,11.7-12.9,11.7
			c-8.1,0-13.7-5.6-15.6-13.5h-1.2l0.5,12.7c4.5,2.7,9.3,3.8,14.1,3.8c14.4,0,21-7.7,21-16.8C325.1,45.9,317.7,43.9,308,41.8z"/>
		<path class="st0" d="M371.5,68.4l-21.7-24.7c0,0,15.1-16.5,16.8-18.3c2.3-2.5,4.3-4.4,7.5-4.4v-1.1h-15V21c6.4,0,4.5,3.1,3.3,4.4
			c-1.1,1.2-19.1,20.9-19.1,20.9l23,26.4h10.4v-1.1C374.3,71.6,373.1,70.4,371.5,68.4z"/>
		<path class="st0" d="M396.6,21.1V20h-15.5v1.1c1.3,0,4,0,4,3.4v43.7c0,3.4-2.8,3.4-4,3.4v1.1h15.5v-1.1c-1.3,0-4,0-4-3.4V24.5
			C392.7,21.1,395.4,21.1,396.6,21.1z"/>
		<path class="st0" d="M109.1,21.1V20H94.8v1.1c5.2,0,6.4,2,4.5,8.4C98.6,32,89,65.4,89,65.4h-0.2c0,0-10.3-34.2-11.1-36.9
			c-1.1-3.7-2.9-7.4,3.5-7.4V20H63v1.1c2.9,0,5,0.9,6,3.7c0.6,1.7,4.5,12.9,4.5,14.3c0,1.5-4.7,17.2-7.2,25.6h-0.2
			c0,0-10.4-33.4-11.5-37c-0.6-1.8-1.1-2.9-1.1-4.2c0-1.6,1.1-2.4,3.7-2.4V20H41.7v1.1c3.5,0,4.4,2.3,5.3,5.2l15,46.9h5.2l8.1-30
			h0.2l8.9,30h5.5l13.5-46.5C104.3,23.1,106.7,21.1,109.1,21.1z"/>
		<path class="st0" d="M23.3,41.8c-9.6-2-13.4-3.2-13.4-9.1c0-6,5.1-10.6,13.4-10.6c5.9,0,12.2,3.9,13.3,11h1.2l-0.3-11.4
			c-3.3-1.8-9.6-2.7-12.9-2.7C12.1,19,4,26,4,34.1c0,10,7.2,12.5,20.6,15.3c5.4,1.1,9.9,2.7,9.9,9.3c0,8.5-7.2,11.7-12.9,11.7
			c-8.1,0-13.7-5.6-15.6-13.5H4.9l0.5,12.7c4.5,2.7,9.3,3.8,14.1,3.8c14.5,0,21-7.7,21-16.8C40.4,45.9,33.1,43.9,23.3,41.8z"/>
		<path class="st0" d="M187.6,65.7l-14-19c8.4-0.4,14.7-6.1,14.7-14.4c0-6.8-5.9-12.4-17.1-12.4h-19.4V21l0,0c1.8,0,4,0.4,4,3.4
			v43.7l0,0c0,3.4-2.8,3.4-4,3.4v1.1l0,0h15.5v-1.1c-1.3,0-4,0-4-3.4V23h4.2c9.5,0,13.7,3.8,13.7,10.7c0,6.2-2.8,11.7-15.9,11.7
			l19.4,27.4h10v-1.1C192.4,71.6,189.9,68.8,187.6,65.7z"/>
		<path class="st0" d="M142.9,65l-16.4-45h-9.3v1.1c1.2,0,2.6,0.3,2.6,2.4c0,0.7-0.2,1.7-0.6,2.8c-0.2,0.7-13.8,39.9-13.8,39.9
			c-1.5,4.5-2.8,5.4-6,5.4v1.1h13.9v-1.1c-3.7,0-4.9-1.4-4.9-2.7c0-1.1,0.4-2.6,1.2-4.9l3.9-11.8h17.7l3.4,9.5
			c1.6,4.5,2.2,5.9,2.2,7.4c0,1.6-0.7,2.5-3.9,2.5v1.1h15.9v-1.1C145.2,71.6,145,70.5,142.9,65z M114.5,49.3l7.8-22.5h0.2l7.7,22.5
			H114.5z"/>
		<path class="st0" d="M219.5,19.1c-12,0-25.5,11.4-25.5,27.4c0,14.8,8.7,27.1,24.3,27.1c15.4,0,25.2-13.8,25.2-27.9
			C243.6,33.8,236.8,19.1,219.5,19.1z M220.8,69.4c-10.8,0-20.6-14.3-20.6-25.8c0-16.3,9.9-20,16.3-20c10.6,0,19.9,10.7,19.9,25
			C236.4,61.6,230.9,69.4,220.8,69.4z"/>
	</g>
</g>
</svg>
