<?xml version="1.0" encoding="utf-8"?>
<!-- Generator: Adobe Illustrator 24.1.2, SVG Export Plug-In . SVG Version: 6.00 Build 0)  -->
<svg version="1.1" id="Layer_1" xmlns="http://www.w3.org/2000/svg" xmlns:xlink="http://www.w3.org/1999/xlink" x="0px" y="0px"
	 viewBox="0 0 96.3 82.8" style="enable-background:new 0 0 96.3 82.8;" xml:space="preserve">
<style type="text/css">
	.st0{fill:#E5DDD0;}
</style>
<g>
	<g>
		<circle class="st0" cx="68.4" cy="29.9" r="0.9"/>
		<path class="st0" d="M65.5,36.3c0,0.5,0.4,0.9,0.9,0.9s0.9-0.4,0.9-0.9s-0.4-0.9-0.9-0.9S65.5,35.8,65.5,36.3z"/>
		<path class="st0" d="M66.6,33.1c0,0.5,0.4,0.9,0.9,0.9s0.9-0.4,0.9-0.9s-0.4-0.9-0.9-0.9C67,32.2,66.6,32.6,66.6,33.1z"/>
		<circle class="st0" cx="69.2" cy="26.7" r="0.9"/>
		<path class="st0" d="M73.4,25.8c-0.4,0-0.8,0.3-0.8,0.8c0,0.4,0.3,0.8,0.8,0.8s0.8-0.3,0.8-0.8C74.1,26.1,73.8,25.8,73.4,25.8z"/>
		<path class="st0" d="M67,39.3c0.5,0,0.9-0.4,0.9-0.9s-0.4-0.9-0.9-0.9s-0.9,0.4-0.9,0.9C66.2,38.9,66.6,39.3,67,39.3z"/>
		<path class="st0" d="M75,24.7c-0.4,0-0.7,0.3-0.7,0.7c0,0.4,0.3,0.7,0.7,0.7s0.7-0.3,0.7-0.7S75.4,24.7,75,24.7z"/>
		<path class="st0" d="M73.5,28.7c0,0.4,0.3,0.7,0.7,0.7s0.7-0.3,0.7-0.7c0-0.4-0.3-0.7-0.7-0.7C73.8,28,73.5,28.3,73.5,28.7z"/>
		<circle class="st0" cx="70.9" cy="25.5" r="0.8"/>
		<path class="st0" d="M72.5,23.6c-0.4,0-0.8,0.4-0.8,0.8s0.4,0.8,0.8,0.8c0.4,0,0.8-0.4,0.8-0.8C73.3,23.9,72.9,23.6,72.5,23.6z"/>
		<path class="st0" d="M65.6,54.2c0.4,0,0.8-0.4,0.8-0.8c0-0.4-0.4-0.8-0.8-0.8c-0.4,0-0.8,0.4-0.8,0.8S65.1,54.2,65.6,54.2z"/>
		<path class="st0" d="M64.4,62.7c0-0.4-0.3-0.7-0.7-0.7c-0.4,0-0.7,0.3-0.7,0.7s0.3,0.7,0.7,0.7C64.1,63.5,64.4,63.1,64.4,62.7z"/>
		<path class="st0" d="M63.8,57.6c-0.4,0-0.8,0.4-0.8,0.8c0,0.4,0.4,0.8,0.8,0.8c0.4,0,0.8-0.4,0.8-0.8S64.2,57.6,63.8,57.6z"/>
		<path class="st0" d="M63.8,59.8c-0.4,0-0.8,0.3-0.8,0.8c0,0.4,0.3,0.8,0.8,0.8c0.4,0,0.8-0.3,0.8-0.8
			C64.5,60.2,64.2,59.8,63.8,59.8z"/>
		<path class="st0" d="M65.4,52c0.5,0,0.8-0.4,0.8-0.8c0-0.5-0.4-0.8-0.8-0.8s-0.8,0.4-0.8,0.8S64.9,52,65.4,52z"/>
		<path class="st0" d="M63.8,55.4c-0.5,0-0.8,0.4-0.8,0.8c0,0.5,0.4,0.8,0.8,0.8c0.4,0,0.8-0.4,0.8-0.8
			C64.6,55.8,64.2,55.4,63.8,55.4z"/>
		<path class="st0" d="M64.9,41.5c0,0.5,0.4,0.9,0.9,0.9s0.9-0.4,0.9-0.9s-0.4-0.9-0.9-0.9S64.9,41,64.9,41.5z"/>
		<path class="st0" d="M62.1,47.6c0,0.5,0.4,0.9,0.9,0.9s0.9-0.4,0.9-0.9s-0.4-0.9-0.9-0.9C62.5,46.7,62.1,47.1,62.1,47.6z"/>
		<path class="st0" d="M63.6,44.6c0,0.5,0.4,0.9,0.9,0.9s0.9-0.4,0.9-0.9s-0.4-0.9-0.9-0.9C64,43.7,63.6,44.1,63.6,44.6z"/>
		<path class="st0" d="M63.3,50.7c0.5,0,0.9-0.4,0.9-0.9s-0.4-0.9-0.9-0.9s-0.9,0.4-0.9,0.9C62.4,50.2,62.8,50.7,63.3,50.7z"/>
		<path class="st0" d="M63.5,65.5c0.4,0,0.7-0.3,0.7-0.7c0-0.4-0.3-0.7-0.7-0.7s-0.7,0.3-0.7,0.7C62.8,65.2,63.1,65.5,63.5,65.5z"/>
		<path class="st0" d="M78.9,28.9c0-0.3-0.3-0.6-0.6-0.6s-0.6,0.3-0.6,0.6c0,0.3,0.3,0.6,0.6,0.6C78.7,29.4,78.9,29.2,78.9,28.9z"/>
		<path class="st0" d="M73,35.4c0-0.4-0.3-0.7-0.7-0.7s-0.8,0.3-0.8,0.7s0.3,0.8,0.8,0.8C72.7,36.1,73,35.8,73,35.4z"/>
		<circle class="st0" cx="65.7" cy="55.6" r="0.8"/>
		<path class="st0" d="M72.9,38.4c0.4,0,0.7-0.3,0.7-0.7S73.3,37,72.9,37s-0.7,0.3-0.7,0.7C72.2,38.1,72.5,38.4,72.9,38.4z"/>
		<circle class="st0" cx="69.9" cy="41.9" r="0.8"/>
		<path class="st0" d="M71.9,38.7c0-0.4-0.3-0.8-0.8-0.8c-0.4,0-0.8,0.3-0.8,0.8c0,0.4,0.3,0.8,0.8,0.8
			C71.5,39.4,71.9,39.1,71.9,38.7z"/>
		<circle class="st0" cx="76.7" cy="29.9" r="0.6"/>
		<path class="st0" d="M68.5,45.8c0.4,0,0.8-0.4,0.8-0.8c0-0.4-0.4-0.8-0.8-0.8c-0.4,0-0.8,0.4-0.8,0.8C67.7,45.5,68,45.8,68.5,45.8
			z"/>
		<circle class="st0" cx="74" cy="34.4" r="0.7"/>
		<path class="st0" d="M77.4,32.9c0.3,0,0.6-0.3,0.6-0.6s-0.3-0.6-0.6-0.6s-0.6,0.3-0.6,0.6C76.8,32.7,77.1,32.9,77.4,32.9z"/>
		<path class="st0" d="M75.7,31c0-0.4-0.3-0.7-0.7-0.7s-0.7,0.3-0.7,0.7c0,0.4,0.3,0.7,0.7,0.7S75.7,31.4,75.7,31z"/>
		<path class="st0" d="M75.7,34c0.4,0,0.6-0.3,0.6-0.6c0-0.4-0.3-0.6-0.6-0.6c-0.4,0-0.6,0.3-0.6,0.6S75.4,34,75.7,34z"/>
		<path class="st0" d="M75.2,27.6c0,0.4,0.3,0.7,0.7,0.7s0.7-0.3,0.7-0.7c0-0.4-0.3-0.7-0.7-0.7C75.5,27,75.2,27.2,75.2,27.6z"/>
		<path class="st0" d="M78.3,22.4c-0.3,0-0.6,0.3-0.6,0.6c0,0.3,0.3,0.6,0.6,0.6s0.6-0.3,0.6-0.6C78.8,22.7,78.6,22.4,78.3,22.4z"/>
		<path class="st0" d="M79.2,31.8c0.3,0,0.5-0.2,0.5-0.5s-0.2-0.5-0.5-0.5s-0.5,0.2-0.5,0.5C78.6,31.6,78.9,31.8,79.2,31.8z"/>
		<path class="st0" d="M79.2,24.8c-0.3,0-0.5,0.2-0.5,0.6c0,0.3,0.2,0.6,0.5,0.6s0.6-0.2,0.6-0.6C79.7,25,79.5,24.8,79.2,24.8z"/>
		<circle class="st0" cx="76.6" cy="24.2" r="0.6"/>
		<path class="st0" d="M76.9,26.5c0,0.3,0.3,0.6,0.6,0.6s0.6-0.3,0.6-0.6c0-0.3-0.3-0.6-0.6-0.6S76.9,26.2,76.9,26.5z"/>
		<path class="st0" d="M68.9,42.8c0-0.5-0.4-0.8-0.8-0.8c-0.5,0-0.8,0.4-0.8,0.8c0,0.5,0.4,0.8,0.8,0.8S68.9,43.2,68.9,42.8z"/>
		<path class="st0" d="M66.7,46.7c0.5,0,0.9-0.4,0.9-0.8s-0.4-0.8-0.9-0.8s-0.8,0.4-0.8,0.8C65.8,46.4,66.2,46.7,66.7,46.7z"/>
		<path class="st0" d="M66.7,40.6c0,0.5,0.4,0.9,0.9,0.9s0.9-0.4,0.9-0.9s-0.4-0.9-0.9-0.9C67.1,39.7,66.7,40.1,66.7,40.6z"/>
		<path class="st0" d="M64,46.7c0,0.5,0.4,0.9,0.9,0.9s0.9-0.4,0.9-0.9s-0.4-0.9-0.9-0.9C64.4,45.9,64,46.3,64,46.7z"/>
		<path class="st0" d="M65.4,43.7c0,0.5,0.4,0.9,0.9,0.9s0.9-0.4,0.9-0.9s-0.4-0.9-0.9-0.9S65.4,43.2,65.4,43.7z"/>
		<path class="st0" d="M77,38.8c0.3,0,0.6-0.3,0.6-0.6s-0.3-0.6-0.6-0.6s-0.6,0.3-0.6,0.6S76.7,38.8,77,38.8z"/>
		<path class="st0" d="M84.1,21.5c-0.2,0-0.4,0.2-0.4,0.4c0,0.2,0.2,0.4,0.4,0.4s0.4-0.2,0.4-0.4C84.5,21.6,84.3,21.5,84.1,21.5z"/>
		<circle class="st0" cx="84.3" cy="28.1" r="0.4"/>
		<path class="st0" d="M83.4,25.1c-0.2,0-0.4,0.2-0.4,0.4c0,0.2,0.2,0.4,0.4,0.4s0.4-0.2,0.4-0.4C83.8,25.3,83.6,25.1,83.4,25.1z"/>
		<path class="st0" d="M83,19c-0.2,0-0.4,0.2-0.4,0.4c0,0.2,0.2,0.4,0.4,0.4s0.4-0.2,0.4-0.4C83.5,19.1,83.3,19,83,19z"/>
		<path class="st0" d="M84.1,34.8c0.2,0,0.4-0.2,0.4-0.4S84.3,34,84.1,34s-0.4,0.2-0.4,0.4C83.7,34.7,83.9,34.8,84.1,34.8z"/>
		<path class="st0" d="M83.8,31.8c0-0.2-0.2-0.4-0.4-0.4S83,31.6,83,31.8c0,0.2,0.2,0.4,0.4,0.4S83.8,32,83.8,31.8z"/>
		<path class="st0" d="M80.6,36.8c0.3,0,0.5-0.2,0.5-0.5s-0.2-0.5-0.5-0.5s-0.5,0.2-0.5,0.5S80.3,36.8,80.6,36.8z"/>
		<circle class="st0" cx="81.6" cy="32.8" r="0.4"/>
		<path class="st0" d="M83,38.5c0.2,0,0.4-0.2,0.4-0.4s-0.2-0.4-0.4-0.4s-0.4,0.2-0.4,0.4C82.6,38.3,82.7,38.5,83,38.5z"/>
		<path class="st0" d="M82.3,35.9c0.2,0,0.4-0.2,0.4-0.4s-0.2-0.4-0.4-0.4s-0.4,0.2-0.4,0.4S82.1,35.9,82.3,35.9z"/>
		<path class="st0" d="M82,23c0,0.2,0.2,0.4,0.4,0.4s0.4-0.2,0.4-0.4c0-0.2-0.2-0.4-0.4-0.4S82,22.8,82,23z"/>
		<circle class="st0" cx="81.2" cy="39" r="0.4"/>
		<path class="st0" d="M76.7,20.7c0,0.4,0.3,0.6,0.6,0.6s0.6-0.3,0.6-0.6c0-0.4-0.3-0.6-0.6-0.6C76.9,20.1,76.7,20.4,76.7,20.7z"/>
		<path class="st0" d="M65.7,59.3c-0.4,0-0.7,0.3-0.7,0.7s0.3,0.7,0.7,0.7s0.7-0.3,0.7-0.7S66.1,59.3,65.7,59.3z"/>
		<path class="st0" d="M75,22c0,0.4,0.3,0.7,0.7,0.7s0.7-0.3,0.7-0.7c0-0.4-0.3-0.7-0.7-0.7C75.3,21.3,75,21.6,75,22z"/>
		<circle class="st0" cx="76.3" cy="18.5" r="0.7"/>
		<path class="st0" d="M78.9,18.9c-0.3,0-0.6,0.3-0.6,0.6c0,0.3,0.3,0.6,0.6,0.6s0.6-0.3,0.6-0.6C79.4,19.2,79.2,18.9,78.9,18.9z"/>
		<path class="st0" d="M79.3,21.8c0,0.3,0.2,0.5,0.5,0.5s0.5-0.2,0.5-0.5s-0.2-0.5-0.5-0.5C79.6,21.3,79.3,21.5,79.3,21.8z"/>
		<path class="st0" d="M82,16.5c-0.3,0-0.5,0.2-0.5,0.5s0.2,0.5,0.5,0.5s0.5-0.2,0.5-0.5S82.3,16.5,82,16.5z"/>
		<path class="st0" d="M80.3,24.2c0,0.3,0.2,0.5,0.5,0.5s0.5-0.2,0.5-0.5s-0.2-0.5-0.5-0.5C80.5,23.7,80.3,23.9,80.3,24.2z"/>
		<path class="st0" d="M81,20.6c0,0.3,0.2,0.5,0.5,0.5s0.5-0.2,0.5-0.5s-0.2-0.5-0.5-0.5S81,20.3,81,20.6z"/>
		<path class="st0" d="M80.4,17.7c-0.3,0-0.5,0.2-0.5,0.5s0.2,0.5,0.5,0.5s0.5-0.2,0.5-0.5C81,18,80.7,17.7,80.4,17.7z"/>
		<path class="st0" d="M77.8,16.6c-0.3,0-0.6,0.3-0.6,0.6s0.3,0.6,0.6,0.6c0.4,0,0.6-0.3,0.6-0.6S78.2,16.6,77.8,16.6z"/>
		<path class="st0" d="M72.1,44c0.4,0,0.7-0.3,0.7-0.7s-0.3-0.7-0.7-0.7s-0.7,0.3-0.7,0.7S71.7,44,72.1,44z"/>
		<path class="st0" d="M67.6,55.7c0.4,0,0.7-0.3,0.7-0.7s-0.3-0.7-0.7-0.7s-0.7,0.3-0.7,0.7C66.8,55.3,67.2,55.7,67.6,55.7z"/>
		<path class="st0" d="M71.6,41.7c0.4,0,0.7-0.3,0.7-0.7s-0.3-0.7-0.7-0.7s-0.7,0.3-0.7,0.7S71.2,41.7,71.6,41.7z"/>
		<path class="st0" d="M80.4,33.8c0-0.3-0.2-0.5-0.5-0.5s-0.5,0.2-0.5,0.5s0.2,0.5,0.5,0.5S80.4,34.1,80.4,33.8z"/>
		<path class="st0" d="M67.5,53.4c0.4,0,0.8-0.3,0.8-0.8c0-0.4-0.3-0.8-0.8-0.8c-0.4,0-0.8,0.3-0.8,0.8C66.7,53.1,67,53.4,67.5,53.4
			z"/>
		<path class="st0" d="M69.6,47.3c0-0.4-0.3-0.8-0.8-0.8S68,46.9,68,47.3c0,0.4,0.3,0.8,0.8,0.8S69.6,47.7,69.6,47.3z"/>
		<path class="st0" d="M65.7,57.1c-0.4,0-0.7,0.3-0.7,0.7s0.3,0.7,0.7,0.7s0.7-0.3,0.7-0.7C66.5,57.4,66.1,57.1,65.7,57.1z"/>
		<path class="st0" d="M65.6,61.6c-0.4,0-0.7,0.3-0.7,0.7s0.3,0.7,0.7,0.7s0.7-0.3,0.7-0.7C66.3,61.9,66,61.6,65.6,61.6z"/>
		<path class="st0" d="M67.3,51.2c0.4,0,0.8-0.4,0.8-0.8c0-0.4-0.4-0.8-0.8-0.8c-0.4,0-0.8,0.4-0.8,0.8S66.8,51.2,67.3,51.2z"/>
		<path class="st0" d="M67.8,48.1c0-0.5-0.4-0.8-0.8-0.8c-0.5,0-0.8,0.4-0.8,0.8s0.4,0.8,0.8,0.8C67.4,48.9,67.8,48.6,67.8,48.1z"/>
		<path class="st0" d="M71,44.2c0-0.4-0.3-0.8-0.8-0.8c-0.4,0-0.7,0.3-0.7,0.8s0.3,0.8,0.7,0.8C70.7,44.9,71,44.6,71,44.2z"/>
		<circle class="st0" cx="77.5" cy="40.7" r="0.5"/>
		<circle class="st0" cx="78.1" cy="34.8" r="0.6"/>
		<path class="st0" d="M73.4,40.7c0.4,0,0.7-0.3,0.7-0.7s-0.3-0.7-0.7-0.7s-0.7,0.3-0.7,0.7S73,40.7,73.4,40.7z"/>
		<path class="st0" d="M79.3,40.4c0.3,0,0.5-0.2,0.5-0.5s-0.2-0.5-0.5-0.5s-0.5,0.2-0.5,0.5C78.9,40.1,79.1,40.4,79.3,40.4z"/>
		<path class="st0" d="M78.8,37.8c0.3,0,0.5-0.2,0.5-0.5s-0.2-0.5-0.5-0.5s-0.5,0.2-0.5,0.5S78.5,37.8,78.8,37.8z"/>
		<path class="st0" d="M68.8,38.2c0.5,0,0.9-0.4,0.9-0.8c0-0.5-0.4-0.8-0.9-0.8S68,37,68,37.4C67.9,37.9,68.3,38.2,68.8,38.2z"/>
		<path class="st0" d="M75.3,36.7c0-0.4-0.3-0.7-0.7-0.7s-0.7,0.3-0.7,0.7s0.3,0.7,0.7,0.7C75,37.4,75.3,37.1,75.3,36.7z"/>
		<path class="st0" d="M75.2,39.8c0.4,0,0.6-0.3,0.6-0.6c0-0.4-0.3-0.6-0.6-0.6s-0.6,0.3-0.6,0.6S74.9,39.8,75.2,39.8z"/>
		<path class="st0" d="M75.7,42.2c0.3,0,0.6-0.3,0.6-0.6S76,41,75.7,41s-0.6,0.3-0.6,0.6S75.4,42.2,75.7,42.2z"/>
		<path class="st0" d="M77,35.8c0-0.3-0.3-0.6-0.6-0.6s-0.6,0.3-0.6,0.6s0.3,0.6,0.6,0.6S77,36.1,77,35.8z"/>
		<circle class="st0" cx="71.2" cy="51.3" r="0.7"/>
		<path class="st0" d="M53.4,72.1c0-0.4-0.3-0.7-0.7-0.7S52,71.7,52,72.1c0,0.4,0.3,0.7,0.7,0.7S53.4,72.5,53.4,72.1z"/>
		<path class="st0" d="M52.2,70.4c0,0.4,0.4,0.8,0.8,0.8c0.4,0,0.8-0.4,0.8-0.8s-0.4-0.8-0.8-0.8S52.2,70,52.2,70.4z"/>
		<path class="st0" d="M50.3,75.3c0-0.3-0.3-0.6-0.6-0.6s-0.6,0.3-0.6,0.6c0,0.3,0.3,0.6,0.6,0.6C50.1,75.9,50.3,75.6,50.3,75.3z"/>
		<path class="st0" d="M54.2,68.7c0-0.5-0.4-0.8-0.9-0.8s-0.8,0.4-0.8,0.8c0,0.5,0.4,0.9,0.8,0.9C53.8,69.6,54.2,69.2,54.2,68.7z"/>
		<path class="st0" d="M52.9,73.7c0-0.4-0.3-0.7-0.6-0.7c-0.4,0-0.6,0.3-0.6,0.7c0,0.4,0.3,0.6,0.6,0.6
			C52.6,74.4,52.9,74.1,52.9,73.7z"/>
		<circle class="st0" cx="53.3" cy="76.7" r="0.4"/>
		<circle class="st0" cx="50.2" cy="73.8" r="0.7"/>
		<path class="st0" d="M67.3,35.2c0,0.5,0.4,0.9,0.9,0.9s0.9-0.4,0.9-0.9s-0.4-0.9-0.9-0.9S67.3,34.7,67.3,35.2z"/>
		<path class="st0" d="M51.3,77.1c0.2,0,0.4-0.2,0.4-0.4c0-0.2-0.2-0.4-0.4-0.4s-0.4,0.2-0.4,0.4C50.8,76.9,51,77.1,51.3,77.1z"/>
		<circle class="st0" cx="50.6" cy="72.3" r="0.8"/>
		<path class="st0" d="M52.3,75.3c0-0.3-0.2-0.5-0.5-0.5s-0.5,0.2-0.5,0.5s0.2,0.5,0.5,0.5C52,75.8,52.3,75.5,52.3,75.3z"/>
		<path class="st0" d="M54.2,75.2c0-0.2-0.2-0.4-0.4-0.4s-0.4,0.2-0.4,0.4c0,0.2,0.2,0.4,0.4,0.4S54.2,75.4,54.2,75.2z"/>
		<path class="st0" d="M85.1,30.5c-0.2,0-0.3,0.2-0.3,0.3c0,0.2,0.2,0.3,0.3,0.3c0.2,0,0.3-0.1,0.3-0.3S85.3,30.5,85.1,30.5z"/>
		<path class="st0" d="M84.4,37.2c0,0.2,0.1,0.3,0.3,0.3s0.3-0.1,0.3-0.3s-0.1-0.3-0.3-0.3C84.6,36.9,84.4,37,84.4,37.2z"/>
		<path class="st0" d="M73.3,52.4c-0.3,0-0.6,0.3-0.6,0.6s0.3,0.6,0.6,0.6s0.6-0.3,0.6-0.6S73.6,52.4,73.3,52.4z"/>
		<path class="st0" d="M74.8,54.9c0,0.3,0.2,0.5,0.5,0.5s0.5-0.2,0.5-0.5s-0.2-0.5-0.5-0.5S74.8,54.6,74.8,54.9z"/>
		<path class="st0" d="M75.2,51.9c-0.3,0-0.5,0.2-0.5,0.5s0.2,0.5,0.5,0.5s0.5-0.2,0.5-0.5C75.7,52.1,75.5,51.9,75.2,51.9z"/>
		<path class="st0" d="M55.3,71.9c0-0.4-0.3-0.7-0.7-0.7s-0.7,0.3-0.7,0.7c0,0.4,0.3,0.7,0.7,0.7C55,72.6,55.3,72.3,55.3,71.9z"/>
		<path class="st0" d="M54.8,73.6c0-0.3-0.3-0.6-0.6-0.6s-0.6,0.3-0.6,0.6c0,0.3,0.3,0.6,0.6,0.6C54.5,74.2,54.8,73.9,54.8,73.6z"/>
		<path class="st0" d="M86.3,27c0-0.2-0.1-0.3-0.3-0.3s-0.3,0.1-0.3,0.3c0,0.2,0.1,0.3,0.3,0.3S86.3,27.2,86.3,27z"/>
		<circle class="st0" cx="85.7" cy="20.7" r="0.3"/>
		<path class="st0" d="M85.5,33.5c0,0.2,0.1,0.3,0.3,0.3s0.3-0.1,0.3-0.3s-0.1-0.3-0.3-0.3C85.7,33.2,85.5,33.4,85.5,33.5z"/>
		<path class="st0" d="M85,24.1c-0.2,0-0.4,0.2-0.4,0.3c0,0.2,0.2,0.3,0.4,0.3s0.3-0.2,0.3-0.3C85.4,24.2,85.2,24.1,85,24.1z"/>
		<path class="st0" d="M88,45c0,0.1,0.1,0.2,0.2,0.2s0.2-0.1,0.2-0.2c0-0.1-0.1-0.2-0.2-0.2C88,44.8,88,44.9,88,45z"/>
		<path class="st0" d="M89,38.1c-0.1,0-0.2,0.1-0.2,0.2c0,0.1,0.1,0.2,0.2,0.2c0.1,0,0.2-0.1,0.2-0.2C89.1,38.2,89,38.1,89,38.1z"/>
		<path class="st0" d="M89.4,24.8c0-0.1-0.1-0.1-0.1-0.1c-0.1,0-0.1,0.1-0.1,0.1c0,0.1,0.1,0.1,0.1,0.1S89.4,24.9,89.4,24.8z"/>
		<path class="st0" d="M81.2,55.6c-0.2,0-0.3,0.1-0.3,0.3s0.1,0.3,0.3,0.3s0.3-0.1,0.3-0.3C81.5,55.8,81.4,55.6,81.2,55.6z"/>
		<path class="st0" d="M88.8,18.3c0.1,0,0.2-0.1,0.2-0.2s-0.1-0.2-0.2-0.2c-0.1,0-0.2,0.1-0.2,0.2C88.6,18.3,88.7,18.3,88.8,18.3z"
			/>
		<path class="st0" d="M89.2,14.4c0.1,0,0.2-0.1,0.2-0.2c0-0.1-0.1-0.2-0.2-0.2c-0.1,0-0.2,0.1-0.2,0.2C89,14.3,89.1,14.4,89.2,14.4
			z"/>
		<path class="st0" d="M89.6,6.2c-0.1,0-0.2,0.1-0.2,0.2s0.1,0.2,0.2,0.2c0.1,0,0.2-0.1,0.2-0.2C89.8,6.3,89.7,6.2,89.6,6.2z"/>
		<path class="st0" d="M89.6,2.8c0.1,0,0.2-0.1,0.2-0.2c0-0.1-0.1-0.2-0.2-0.2c-0.1,0-0.2,0.1-0.2,0.2S89.5,2.8,89.6,2.8z"/>
		<path class="st0" d="M89.5,10.5c0.1,0,0.2-0.1,0.2-0.2c0-0.1-0.1-0.2-0.2-0.2c-0.1,0-0.2,0.1-0.2,0.2
			C89.3,10.4,89.4,10.5,89.5,10.5z"/>
		<path class="st0" d="M89.3,31.7c0.1,0,0.2-0.1,0.2-0.2s-0.1-0.2-0.2-0.2c-0.1,0-0.2,0.1-0.2,0.2C89.2,31.6,89.2,31.7,89.3,31.7z"
			/>
		<path class="st0" d="M88.5,35.4c0-0.1-0.1-0.2-0.2-0.2c-0.1,0-0.2,0.1-0.2,0.2c0,0.1,0.1,0.2,0.2,0.2
			C88.4,35.6,88.5,35.5,88.5,35.4z"/>
		<path class="st0" d="M83.1,55.2c-0.1,0-0.2,0.1-0.2,0.2c0,0.1,0.1,0.2,0.2,0.2c0.1,0,0.2-0.1,0.2-0.2
			C83.4,55.3,83.3,55.2,83.1,55.2z"/>
		<circle class="st0" cx="83.2" cy="58.2" r="0.2"/>
		<path class="st0" d="M81,61.3c0,0.1,0.1,0.2,0.2,0.2s0.2-0.1,0.2-0.2c0-0.1-0.1-0.2-0.2-0.2C81.1,61.2,81,61.3,81,61.3z"/>
		<circle class="st0" cx="81.2" cy="58.6" r="0.2"/>
		<path class="st0" d="M87.7,15.8c0.1,0,0.3-0.1,0.3-0.3s-0.1-0.2-0.3-0.2c-0.1,0-0.3,0.1-0.3,0.2S87.6,15.8,87.7,15.8z"/>
		<path class="st0" d="M88.3,22.3c0.1,0,0.2-0.1,0.2-0.2s-0.1-0.2-0.2-0.2c-0.1,0-0.2,0.1-0.2,0.2C88.1,22.2,88.2,22.3,88.3,22.3z"
			/>
		<path class="st0" d="M88.3,4.2c0.1,0,0.2-0.1,0.2-0.2s-0.1-0.2-0.2-0.2c-0.1,0-0.2,0.1-0.2,0.2C88.1,4.2,88.2,4.2,88.3,4.2z"/>
		<path class="st0" d="M88.7,28.7c0-0.1-0.1-0.2-0.2-0.2c-0.1,0-0.2,0.1-0.2,0.2s0.1,0.2,0.2,0.2C88.6,28.9,88.7,28.8,88.7,28.7z"/>
		<path class="st0" d="M88.2,8.1c0.1,0,0.2-0.1,0.2-0.2c0-0.1-0.1-0.2-0.2-0.2c-0.1,0-0.2,0.1-0.2,0.2C88,8,88.1,8.1,88.2,8.1z"/>
		<path class="st0" d="M88,12c0.1,0,0.2-0.1,0.2-0.2c0-0.1-0.1-0.2-0.2-0.2c-0.1,0-0.2,0.1-0.2,0.2C87.8,11.8,87.9,12,88,12z"/>
		<circle class="st0" cx="49.3" cy="76.7" r="0.5"/>
		<path class="st0" d="M80.9,29.8c-0.3,0-0.5,0.2-0.5,0.5s0.2,0.5,0.5,0.5s0.5-0.2,0.5-0.5C81.3,30,81.1,29.8,80.9,29.8z"/>
		<path class="st0" d="M82.6,29.6c0.2,0,0.4-0.2,0.4-0.4c0-0.2-0.2-0.4-0.4-0.4s-0.4,0.2-0.4,0.4C82.1,29.4,82.3,29.6,82.6,29.6z"/>
		<path class="st0" d="M66,48.9c0-0.5-0.4-0.9-0.9-0.9s-0.9,0.4-0.9,0.9s0.4,0.9,0.9,0.9C65.6,49.8,66,49.4,66,48.9z"/>
		<path class="st0" d="M62.5,63.2c0-0.4-0.3-0.8-0.8-0.8c-0.4,0-0.8,0.3-0.8,0.8c0,0.4,0.3,0.8,0.8,0.8C62.1,64,62.5,63.6,62.5,63.2
			z"/>
		<path class="st0" d="M80.1,27.3c-0.3,0-0.5,0.2-0.5,0.5s0.2,0.5,0.5,0.5s0.5-0.2,0.5-0.5S80.3,27.3,80.1,27.3z"/>
		<path class="st0" d="M61.9,56c-0.5,0-0.9,0.4-0.9,0.9s0.4,0.9,0.9,0.9s0.9-0.4,0.9-0.9S62.4,56,61.9,56z"/>
		<circle class="st0" cx="61.8" cy="61.1" r="0.8"/>
		<path class="st0" d="M63.6,52.8c0.5,0,0.9-0.4,0.9-0.9S64.1,51,63.6,51c-0.5,0-0.9,0.4-0.9,0.9C62.7,52.4,63.1,52.8,63.6,52.8z"/>
		<circle class="st0" cx="61.8" cy="54.8" r="0.9"/>
		<path class="st0" d="M61.9,58.2c-0.5,0-0.8,0.4-0.8,0.8c0,0.5,0.4,0.8,0.8,0.8c0.5,0,0.8-0.4,0.8-0.8
			C62.7,58.6,62.4,58.2,61.9,58.2z"/>
		<path class="st0" d="M63.7,53.2c-0.5,0-0.9,0.4-0.9,0.8c0,0.5,0.4,0.9,0.9,0.9c0.5,0,0.8-0.4,0.8-0.9
			C64.6,53.6,64.2,53.2,63.7,53.2z"/>
		<path class="st0" d="M81.7,26.2c-0.3,0-0.5,0.2-0.5,0.5s0.2,0.5,0.5,0.5s0.5-0.2,0.5-0.5C82.2,26.4,82,26.2,81.7,26.2z"/>
		<path class="st0" d="M72.5,29.1c-0.4,0-0.8,0.3-0.8,0.8c0,0.4,0.3,0.8,0.8,0.8c0.4,0,0.8-0.3,0.8-0.8C73.3,29.4,73,29.1,72.5,29.1
			z"/>
		<path class="st0" d="M72.4,33.1c0-0.4-0.3-0.8-0.8-0.8c-0.4,0-0.8,0.3-0.8,0.8c0,0.4,0.3,0.8,0.8,0.8C72,33.9,72.4,33.6,72.4,33.1
			z"/>
		<path class="st0" d="M71.7,26.9c-0.4,0-0.8,0.4-0.8,0.8s0.4,0.8,0.8,0.8c0.4,0,0.8-0.4,0.8-0.8C72.5,27.2,72.2,26.9,71.7,26.9z"/>
		<path class="st0" d="M70.1,27.9c-0.5,0-0.9,0.4-0.9,0.9s0.4,0.9,0.9,0.9s0.8-0.4,0.8-0.9S70.5,27.9,70.1,27.9z"/>
		<path class="st0" d="M68.3,32c0,0.5,0.4,0.9,0.9,0.9s0.9-0.4,0.9-0.9s-0.4-0.9-0.9-0.9C68.7,31.2,68.3,31.6,68.3,32z"/>
		<path class="st0" d="M71.7,30.9c0-0.4-0.4-0.8-0.8-0.8s-0.8,0.4-0.8,0.8c0,0.5,0.4,0.8,0.8,0.8S71.7,31.4,71.7,30.9z"/>
		<circle class="st0" cx="73.3" cy="32.1" r="0.7"/>
		<path class="st0" d="M69,34.2c0,0.5,0.4,0.8,0.8,0.8c0.5,0,0.8-0.4,0.8-0.8c0-0.5-0.4-0.8-0.8-0.8S69,33.7,69,34.2z"/>
		<path class="st0" d="M71.3,36.4c0-0.4-0.4-0.8-0.8-0.8c-0.4,0-0.8,0.4-0.8,0.8c0,0.4,0.4,0.8,0.8,0.8C71,37.2,71.3,36.8,71.3,36.4
			z"/>
		<path class="st0" d="M69.3,38.8c-0.5,0-0.8,0.4-0.8,0.8c0,0.4,0.4,0.8,0.8,0.8c0.4,0,0.8-0.4,0.8-0.8
			C70.2,39.2,69.8,38.8,69.3,38.8z"/>
		<path class="st0" d="M69.1,48.9c-0.4,0-0.7,0.3-0.7,0.7s0.3,0.7,0.7,0.7s0.7-0.3,0.7-0.7C69.9,49.2,69.5,48.9,69.1,48.9z"/>
		<circle class="st0" cx="57.3" cy="68" r="0.8"/>
		<path class="st0" d="M72.9,55.5c0,0.3,0.2,0.5,0.5,0.5s0.5-0.2,0.5-0.5S73.7,55,73.4,55C73.1,54.9,72.9,55.2,72.9,55.5z"/>
		<path class="st0" d="M67.6,56.5c-0.4,0-0.7,0.3-0.7,0.7s0.3,0.7,0.7,0.7s0.7-0.3,0.7-0.7S68,56.5,67.6,56.5z"/>
		<circle class="st0" cx="67.6" cy="59.5" r="0.7"/>
		<path class="st0" d="M69.3,51.2c-0.4,0-0.7,0.3-0.7,0.7s0.3,0.7,0.7,0.7s0.7-0.3,0.7-0.7C70,51.6,69.7,51.2,69.3,51.2z"/>
		<circle class="st0" cx="69.5" cy="54.3" r="0.7"/>
		<path class="st0" d="M74.6,42.5c0-0.4-0.3-0.7-0.7-0.7s-0.6,0.3-0.6,0.7s0.3,0.7,0.6,0.7C74.3,43.1,74.6,42.8,74.6,42.5z"/>
		<path class="st0" d="M70.7,53.7c0,0.3,0.3,0.6,0.6,0.6c0.4,0,0.6-0.3,0.6-0.6c0-0.4-0.3-0.6-0.6-0.6C71,53,70.7,53.3,70.7,53.7z"
			/>
		<path class="st0" d="M73.1,49.9c-0.3,0-0.6,0.3-0.6,0.6s0.3,0.6,0.6,0.6s0.6-0.3,0.6-0.6S73.4,49.9,73.1,49.9z"/>
		<path class="st0" d="M74.7,19.1c-0.4,0-0.7,0.3-0.7,0.7c0,0.4,0.3,0.7,0.7,0.7s0.7-0.3,0.7-0.7S75.1,19.1,74.7,19.1z"/>
		<path class="st0" d="M59.9,60.8c-0.5,0-0.8,0.4-0.8,0.8c0,0.5,0.4,0.8,0.8,0.8c0.5,0,0.8-0.4,0.8-0.8
			C60.8,61.2,60.4,60.8,59.9,60.8z"/>
		<circle class="st0" cx="60" cy="57.6" r="0.9"/>
		<path class="st0" d="M62.2,65.3c0-0.4-0.3-0.7-0.7-0.7s-0.7,0.3-0.7,0.7c0,0.4,0.3,0.7,0.7,0.7S62.2,65.7,62.2,65.3z"/>
		<path class="st0" d="M61.3,68c0.4,0,0.7-0.3,0.7-0.7s-0.3-0.7-0.7-0.7s-0.7,0.3-0.7,0.7S60.9,68,61.3,68z"/>
		<path class="st0" d="M60.6,63.7c0-0.4-0.4-0.8-0.8-0.8c-0.4,0-0.8,0.4-0.8,0.8c0,0.4,0.4,0.8,0.8,0.8S60.6,64.2,60.6,63.7z"/>
		<path class="st0" d="M56.3,69.9c0,0.4,0.3,0.7,0.7,0.7s0.7-0.3,0.7-0.7c0-0.4-0.3-0.7-0.7-0.7C56.6,69.2,56.3,69.5,56.3,69.9z"/>
		<path class="st0" d="M60,58.7c-0.5,0-0.9,0.4-0.9,0.9s0.4,0.9,0.9,0.9s0.9-0.4,0.9-0.9C60.9,59.1,60.5,58.7,60,58.7z"/>
		<path class="st0" d="M58.7,64.2c0-0.5-0.4-0.8-0.9-0.8S57,63.8,57,64.2c0,0.5,0.4,0.8,0.8,0.8C58.3,65,58.7,64.7,58.7,64.2z"/>
		<path class="st0" d="M58.4,66.1c0-0.4-0.4-0.8-0.8-0.8c-0.4,0-0.8,0.4-0.8,0.8c0,0.5,0.4,0.8,0.8,0.8
			C58.1,66.9,58.4,66.6,58.4,66.1z"/>
		<path class="st0" d="M59.3,68.4c0.4,0,0.7-0.3,0.7-0.7c0-0.4-0.3-0.7-0.7-0.7s-0.7,0.3-0.7,0.7S58.9,68.4,59.3,68.4z"/>
		<path class="st0" d="M60.3,65.7c0-0.4-0.3-0.8-0.8-0.8c-0.4,0-0.8,0.3-0.8,0.8s0.3,0.8,0.8,0.8C60,66.5,60.3,66.1,60.3,65.7z"/>
		<path class="st0" d="M54.3,70.2c0,0.4,0.3,0.8,0.8,0.8c0.4,0,0.8-0.3,0.8-0.8c0-0.4-0.3-0.8-0.8-0.8S54.3,69.8,54.3,70.2z"/>
		<path class="st0" d="M82.1,44.7c0.2,0,0.4-0.2,0.4-0.4s-0.2-0.4-0.4-0.4s-0.4,0.2-0.4,0.4C81.8,44.6,81.9,44.7,82.1,44.7z"/>
		<path class="st0" d="M80.6,48.2c0.2,0,0.4-0.2,0.4-0.4s-0.2-0.4-0.4-0.4s-0.4,0.2-0.4,0.4S80.4,48.2,80.6,48.2z"/>
		<circle class="st0" cx="81.7" cy="41.7" r="0.4"/>
		<path class="st0" d="M80.3,45.6c0.2,0,0.4-0.2,0.4-0.4s-0.2-0.4-0.4-0.4s-0.4,0.2-0.4,0.4C79.8,45.4,80,45.6,80.3,45.6z"/>
		<path class="st0" d="M81.1,53.5c0.2,0,0.3-0.2,0.3-0.3c0-0.2-0.1-0.3-0.3-0.3s-0.3,0.1-0.3,0.3S80.9,53.5,81.1,53.5z"/>
		<circle class="st0" cx="80.9" cy="50.5" r="0.4"/>
		<path class="st0" d="M80.3,42.5c0-0.2-0.2-0.5-0.5-0.5s-0.5,0.2-0.5,0.5s0.2,0.5,0.5,0.5S80.3,42.7,80.3,42.5z"/>
		<path class="st0" d="M79.6,59.1c0-0.2-0.1-0.3-0.3-0.3S79,58.9,79,59.1s0.1,0.3,0.3,0.3C79.4,59.4,79.6,59.3,79.6,59.1z"/>
		<path class="st0" d="M79.1,64.2c-0.1,0-0.2,0.1-0.2,0.2s0.1,0.2,0.2,0.2c0.1,0,0.2-0.1,0.2-0.2C79.2,64.3,79.2,64.2,79.1,64.2z"/>
		<path class="st0" d="M79.3,56.1c-0.2,0-0.3,0.2-0.3,0.3c0,0.2,0.2,0.3,0.3,0.3s0.3-0.2,0.3-0.3C79.6,56.2,79.4,56.1,79.3,56.1z"/>
		<path class="st0" d="M84.7,49.5c0.1,0,0.2-0.1,0.2-0.2c0-0.1-0.1-0.3-0.2-0.3c-0.1,0-0.3,0.1-0.3,0.3
			C84.5,49.4,84.6,49.5,84.7,49.5z"/>
		<path class="st0" d="M79.5,61.7c0-0.1-0.1-0.3-0.3-0.3c-0.1,0-0.3,0.1-0.3,0.3c0,0.1,0.1,0.3,0.3,0.3S79.5,61.9,79.5,61.7z"/>
		<path class="st0" d="M85.8,43.1c0.1,0,0.3-0.1,0.3-0.3c0-0.1-0.1-0.3-0.3-0.3c-0.1,0-0.3,0.1-0.3,0.3C85.6,43,85.7,43.1,85.8,43.1
			z"/>
		<path class="st0" d="M85.6,40c0-0.2-0.1-0.3-0.3-0.3S85,39.8,85,40s0.1,0.3,0.3,0.3C85.5,40.3,85.6,40.2,85.6,40z"/>
		<path class="st0" d="M84.4,46.7c0.2,0,0.3-0.1,0.3-0.3s-0.1-0.3-0.3-0.3s-0.3,0.1-0.3,0.3C84.1,46.6,84.2,46.7,84.4,46.7z"/>
		<path class="st0" d="M85.1,55.1c0.1,0,0.2-0.1,0.2-0.2c0-0.1-0.1-0.2-0.2-0.2c-0.1,0-0.2,0.1-0.2,0.2S85,55.1,85.1,55.1z"/>
		<circle class="st0" cx="82.5" cy="47.1" r="0.3"/>
		<path class="st0" d="M83,52.9c0.2,0,0.3-0.1,0.3-0.3s-0.1-0.3-0.3-0.3s-0.3,0.1-0.3,0.3C82.7,52.8,82.9,52.9,83,52.9z"/>
		<path class="st0" d="M82.8,50.2c0.2,0,0.3-0.1,0.3-0.3s-0.1-0.3-0.3-0.3s-0.3,0.1-0.3,0.3C82.5,50,82.6,50.2,82.8,50.2z"/>
		<path class="st0" d="M83.9,40.8c0-0.2-0.2-0.4-0.3-0.4c-0.2,0-0.4,0.2-0.4,0.4s0.2,0.3,0.4,0.3C83.7,41.2,83.9,41,83.9,40.8z"/>
		<circle class="st0" cx="84" cy="43.6" r="0.3"/>
		<path class="st0" d="M84.9,52.3c0.1,0,0.2-0.1,0.2-0.2c0-0.1-0.1-0.2-0.2-0.2c-0.1,0-0.2,0.1-0.2,0.2S84.8,52.3,84.9,52.3z"/>
		<path class="st0" d="M76.6,47.2c0.3,0,0.5-0.2,0.5-0.5s-0.2-0.5-0.5-0.5s-0.5,0.2-0.5,0.5C76,46.9,76.3,47.2,76.6,47.2z"/>
		<path class="st0" d="M76.7,44.1c0-0.3-0.3-0.6-0.6-0.6s-0.6,0.3-0.6,0.6s0.3,0.6,0.6,0.6C76.5,44.7,76.7,44.4,76.7,44.1z"/>
		<path class="st0" d="M76.9,49.7c0.3,0,0.5-0.2,0.5-0.5s-0.2-0.5-0.5-0.5s-0.5,0.2-0.5,0.5S76.6,49.7,76.9,49.7z"/>
		<circle class="st0" cx="77.1" cy="51.8" r="0.5"/>
		<path class="st0" d="M75.4,57c-0.3,0-0.5,0.2-0.5,0.5c0,0.2,0.2,0.5,0.5,0.5s0.5-0.2,0.5-0.5C75.8,57.2,75.6,57,75.4,57z"/>
		<path class="st0" d="M79.2,54.2c0.2,0,0.4-0.2,0.4-0.4s-0.2-0.4-0.4-0.4s-0.4,0.2-0.4,0.4C78.8,54,79,54.2,79.2,54.2z"/>
		<path class="st0" d="M75.4,65c0-0.2-0.1-0.3-0.3-0.3s-0.3,0.1-0.3,0.3c0,0.2,0.1,0.3,0.3,0.3S75.4,65.1,75.4,65z"/>
		<path class="st0" d="M76.8,54.3c0,0.2,0.2,0.4,0.4,0.4s0.4-0.2,0.4-0.4s-0.2-0.4-0.4-0.4C77,53.9,76.8,54.1,76.8,54.3z"/>
		<path class="st0" d="M74.9,67.7c0.1,0,0.2-0.1,0.2-0.2s-0.1-0.2-0.2-0.2c-0.1,0-0.2,0.1-0.2,0.2S74.8,67.7,74.9,67.7z"/>
		<path class="st0" d="M75.6,62.5c0-0.2-0.2-0.4-0.4-0.4s-0.4,0.2-0.4,0.4s0.2,0.4,0.4,0.4C75.5,62.8,75.6,62.7,75.6,62.5z"/>
		<circle class="st0" cx="75.4" cy="60" r="0.4"/>
		<path class="st0" d="M78.5,43.3c0-0.3-0.2-0.5-0.5-0.5s-0.5,0.2-0.5,0.5s0.2,0.5,0.5,0.5C78.3,43.8,78.5,43.6,78.5,43.3z"/>
		<path class="st0" d="M78.7,48.9c0.2,0,0.4-0.2,0.4-0.5c0-0.2-0.2-0.5-0.4-0.5c-0.3,0-0.5,0.2-0.5,0.5
			C78.3,48.7,78.5,48.9,78.7,48.9z"/>
		<circle class="st0" cx="78.4" cy="45.9" r="0.5"/>
		<circle class="st0" cx="79" cy="51.1" r="0.4"/>
		<circle class="st0" cx="76.9" cy="67.2" r="0.2"/>
		<path class="st0" d="M77.5,62.1c0-0.2-0.1-0.3-0.3-0.3s-0.3,0.1-0.3,0.3s0.1,0.3,0.3,0.3C77.4,62.4,77.5,62.3,77.5,62.1z"/>
		<path class="st0" d="M77.3,64.7c0-0.1-0.1-0.2-0.2-0.2s-0.2,0.1-0.2,0.2S77,65,77.1,65S77.3,64.8,77.3,64.7z"/>
		<path class="st0" d="M77.7,59.5c0-0.2-0.2-0.4-0.4-0.4s-0.4,0.2-0.4,0.4s0.2,0.4,0.4,0.4S77.7,59.7,77.7,59.5z"/>
		<path class="st0" d="M77.3,56.5c-0.2,0-0.4,0.2-0.4,0.4s0.2,0.4,0.4,0.4s0.4-0.2,0.4-0.4C77.7,56.7,77.5,56.5,77.3,56.5z"/>
		<path class="st0" d="M17.5,29.4c-0.2-0.5-0.5-0.7-0.8-0.9c-0.6-0.4-1.1-0.2-1.5-0.6s-0.3-1-0.6-1.6c-0.1-0.3-0.5-0.4-0.7-0.4
			c-0.5,0-0.8,0.4-0.8,0.8c-1.2,6.4-4,9.1-4,10.4c0,0.5,0.6,0.9,0.9,0.9C11.1,38,17.5,29.4,17.5,29.4z"/>
		<path class="st0" d="M86.3,45.9c0.1,0,0.2-0.1,0.2-0.2c0-0.1-0.1-0.2-0.2-0.2c-0.1,0-0.2,0.1-0.2,0.2C86,45.8,86.1,45.9,86.3,45.9
			z"/>
		<path class="st0" d="M79.8,13.1c0.3,0,0.6-0.3,0.6-0.6s-0.3-0.6-0.6-0.6s-0.6,0.3-0.6,0.6C79.2,12.8,79.5,13.1,79.8,13.1z"/>
		<path class="st0" d="M78.3,14.4c0.3,0,0.6-0.3,0.6-0.6s-0.3-0.6-0.6-0.6s-0.6,0.3-0.6,0.6C77.6,14.2,77.9,14.4,78.3,14.4z"/>
		<path class="st0" d="M76.8,15.8c0.4,0,0.7-0.3,0.7-0.7s-0.3-0.7-0.7-0.7s-0.7,0.3-0.7,0.7S76.4,15.8,76.8,15.8z"/>
		<path class="st0" d="M75.2,17.2c0.4,0,0.7-0.3,0.7-0.7c0-0.4-0.3-0.7-0.7-0.7s-0.7,0.3-0.7,0.7C74.5,16.8,74.8,17.2,75.2,17.2z"/>
		<path class="st0" d="M81.2,11.6c0.3,0,0.5-0.2,0.5-0.5s-0.2-0.5-0.5-0.5s-0.5,0.2-0.5,0.5C80.7,11.4,81,11.6,81.2,11.6z"/>
		<path class="st0" d="M82.4,13.8c0.3,0,0.5-0.2,0.5-0.5s-0.2-0.5-0.5-0.5s-0.5,0.2-0.5,0.5S82.1,13.8,82.4,13.8z"/>
		<path class="st0" d="M82.7,10.2c0.3,0,0.5-0.2,0.5-0.5S83,9.2,82.7,9.2s-0.5,0.2-0.5,0.5C82.3,10,82.5,10.2,82.7,10.2z"/>
		<circle class="st0" cx="80.9" cy="14.7" r="0.5"/>
		<path class="st0" d="M73.7,18.5c0.4,0,0.8-0.4,0.8-0.8s-0.4-0.8-0.8-0.8c-0.4,0-0.8,0.4-0.8,0.8C72.9,18.2,73.3,18.5,73.7,18.5z"
			/>
		<path class="st0" d="M45.2,76c-0.3,0-0.6,0.3-0.6,0.6c0,0.3,0.3,0.6,0.6,0.6s0.6-0.3,0.6-0.6C45.9,76.3,45.6,76,45.2,76z"/>
		<path class="st0" d="M47.3,76.1c-0.3,0-0.6,0.2-0.6,0.6c0,0.3,0.2,0.6,0.6,0.6c0.3,0,0.6-0.3,0.6-0.6
			C47.8,76.4,47.6,76.1,47.3,76.1z"/>
		<path class="st0" d="M75,50.4c0.3,0,0.6-0.3,0.6-0.6s-0.3-0.6-0.6-0.6s-0.6,0.2-0.6,0.6S74.7,50.4,75,50.4z"/>
		<path class="st0" d="M48.4,75.4c0-0.3-0.3-0.6-0.6-0.6s-0.6,0.3-0.6,0.6c0,0.3,0.3,0.6,0.6,0.6S48.4,75.7,48.4,75.4z"/>
		<circle class="st0" cx="83.5" cy="15.7" r="0.4"/>
		<path class="st0" d="M69,22.5c0.5,0,0.9-0.4,0.9-0.9s-0.4-0.9-0.9-0.9s-0.9,0.4-0.9,0.9C68.1,22,68.5,22.5,69,22.5z"/>
		<circle class="st0" cx="72.2" cy="19" r="0.8"/>
		<path class="st0" d="M70.6,21.2c0.5,0,0.9-0.4,0.9-0.9s-0.4-0.9-0.9-0.9s-0.9,0.4-0.9,0.9S70.1,21.2,70.6,21.2z"/>
		<path class="st0" d="M12.6,77.5h21c0.4,0,0.8-0.3,0.9-0.6c0.1,0.3,0.4,0.6,0.8,0.6c0.5,0,0.9-0.4,0.9-0.9v-0.1
			c0.3-0.2,0.5-0.5,0.5-0.8c0,0,0,0,0-0.1c0.1,0,0.1-0.1,0.2-0.1v0.1c0,0.1,0,0.2,0,0.2c-0.3,0.1-0.5,0.4-0.5,0.8
			c0,0.5,0.4,0.8,0.8,0.8c0.5,0,0.8-0.4,0.8-0.8c0-0.1,0-0.1,0-0.2c0.3-0.1,0.6-0.4,0.6-0.8c0-0.1,0-0.1,0-0.2
			c0.3-0.2,0.6-0.5,0.6-0.9c0-0.1,0-0.1,0-0.2c0,0,0.1,0,0.1-0.1v0.1c0,0.1,0,0.3,0.1,0.4c-0.3,0.1-0.5,0.4-0.5,0.7
			c0,0.1,0,0.2,0.1,0.3c-0.3,0.1-0.5,0.4-0.5,0.7c0,0.4,0.4,0.8,0.8,0.8c0.4,0,0.8-0.4,0.8-0.8c0-0.1,0-0.2,0-0.3
			c0.3-0.1,0.6-0.4,0.6-0.8c0-0.1,0-0.2,0-0.3c0.4-0.1,0.6-0.5,0.6-0.9c0-0.1,0-0.2,0-0.3c0.1-0.1,0.2-0.1,0.3-0.2
			c-0.1,0.1-0.1,0.3-0.1,0.4c0,0.2,0,0.3,0.1,0.5c-0.3,0.1-0.5,0.4-0.5,0.7c0,0.2,0,0.3,0.1,0.4c-0.3,0.1-0.6,0.4-0.6,0.7
			c0,0.4,0.3,0.7,0.7,0.7s0.7-0.3,0.7-0.7c0-0.1,0-0.2-0.1-0.3c0.4-0.1,0.6-0.4,0.6-0.8c0-0.1,0-0.2-0.1-0.4
			c0.4-0.1,0.7-0.4,0.7-0.9c0-0.1,0-0.3-0.1-0.4c0.4-0.1,0.6-0.5,0.6-0.9c0-0.1,0-0.3-0.1-0.4c0.1-0.1,0.2-0.2,0.3-0.3
			c-0.1,0.1-0.1,0.3-0.1,0.5s0.1,0.4,0.2,0.5c-0.3,0.1-0.6,0.4-0.6,0.8c0,0.2,0.1,0.4,0.2,0.6c-0.3,0.1-0.6,0.4-0.6,0.7
			c0,0.2,0.1,0.4,0.2,0.5c-0.4,0-0.6,0.3-0.6,0.7c0,0.4,0.3,0.7,0.7,0.7s0.7-0.3,0.7-0.7c0-0.2-0.1-0.3-0.2-0.4
			c0.4,0,0.7-0.3,0.7-0.7c0-0.2-0.1-0.3-0.2-0.4c0.4-0.1,0.7-0.4,0.7-0.8c0-0.2,0-0.3-0.1-0.5c0.4-0.1,0.7-0.5,0.7-0.9
			c0-0.2,0-0.3-0.1-0.5c0.4-0.1,0.6-0.5,0.6-0.9c0-0.2,0-0.4-0.1-0.5c0.3-0.2,0.6-0.5,0.6-0.9c0-0.2-0.1-0.4-0.1-0.5
			c0.1,0,0.1-0.1,0.2-0.1c0,0.1-0.1,0.2-0.1,0.3c0,0.2,0.1,0.5,0.2,0.6c-0.3,0.1-0.6,0.5-0.6,0.9c0,0.2,0.1,0.5,0.2,0.6
			c-0.3,0.1-0.6,0.4-0.6,0.8c0,0.2,0.1,0.5,0.3,0.6c-0.4,0.1-0.6,0.4-0.6,0.8c0,0.3,0.1,0.5,0.4,0.7l0,0c-0.4,0-0.7,0.3-0.7,0.7
			s0.3,0.7,0.7,0.7s0.7-0.3,0.7-0.7c0-0.2-0.1-0.4-0.3-0.6c0,0,0,0,0.1,0c0.4,0,0.8-0.4,0.8-0.8c0-0.2-0.1-0.4-0.2-0.5
			c0.4-0.1,0.7-0.4,0.7-0.9c0-0.2-0.1-0.4-0.2-0.6c0.4-0.1,0.7-0.5,0.7-0.9c0-0.2-0.1-0.4-0.2-0.6c0.4-0.1,0.6-0.5,0.6-0.9
			c0-0.2-0.1-0.4-0.2-0.6c0.4-0.2,0.6-0.5,0.6-0.9c0-0.2-0.1-0.5-0.2-0.6c0.3-0.2,0.6-0.5,0.6-0.9l0,0c0.1,0.1,0.1,0.2,0.2,0.3
			c-0.3,0.1-0.6,0.5-0.6,0.9c0,0.3,0.1,0.6,0.3,0.7c-0.4,0.1-0.6,0.5-0.6,0.9c0,0.3,0.1,0.5,0.3,0.7c-0.4,0.1-0.7,0.4-0.7,0.9
			c0,0.3,0.1,0.5,0.4,0.7c-0.4,0.1-0.7,0.4-0.7,0.8c0,0.3,0.2,0.6,0.4,0.7l0,0c-0.4,0-0.8,0.3-0.8,0.8c0,0.4,0.3,0.8,0.8,0.8
			c0.4,0,0.7-0.3,0.7-0.8c0-0.3-0.1-0.5-0.4-0.6c0,0,0,0,0.1,0c0.5,0,0.8-0.4,0.8-0.8c0-0.3-0.1-0.5-0.3-0.6
			c0.4-0.1,0.8-0.4,0.8-0.9c0-0.3-0.1-0.5-0.3-0.7c0.4-0.1,0.7-0.5,0.7-0.9c0-0.3-0.1-0.5-0.3-0.7c0.4-0.1,0.7-0.5,0.7-0.9
			c0-0.3-0.1-0.5-0.3-0.7c0.4-0.2,0.6-0.5,0.6-0.9c0-0.3-0.1-0.6-0.3-0.8c0.4-0.2,0.6-0.5,0.6-0.9v-0.1c0.1,0.2,0.2,0.3,0.4,0.4
			c-0.4,0.1-0.7,0.5-0.7,0.9s0.2,0.7,0.5,0.8c-0.4,0.1-0.7,0.5-0.7,0.9c0,0.3,0.2,0.6,0.5,0.8c-0.4,0.1-0.8,0.4-0.8,0.9
			c0,0.4,0.2,0.7,0.5,0.8c-0.5,0-0.8,0.4-0.8,0.8c0,0.5,0.4,0.8,0.8,0.8c0.5,0,0.8-0.4,0.8-0.8c0-0.3-0.2-0.6-0.5-0.8
			c0.5,0,0.9-0.4,0.9-0.9c0-0.3-0.2-0.6-0.4-0.8c0.5-0.1,0.8-0.4,0.8-0.9c0-0.3-0.2-0.6-0.4-0.8c0.4-0.1,0.7-0.5,0.7-0.9
			c0-0.3-0.2-0.6-0.4-0.8c0.4-0.1,0.7-0.5,0.7-0.9c0-0.4-0.2-0.7-0.5-0.8c0.4-0.1,0.6-0.5,0.6-1c0-0.1,0-0.1,0-0.2
			c0.1,0.2,0.3,0.4,0.6,0.5c-0.4,0.1-0.7,0.5-0.7,0.9s0.3,0.8,0.7,0.9c-0.5,0-0.8,0.4-0.8,0.9s0.3,0.8,0.8,0.9h-0.1
			c-0.5,0-0.9,0.4-0.9,0.9s0.4,0.9,0.9,0.9s0.9-0.4,0.9-0.9c0-0.4-0.3-0.8-0.7-0.9h0.1c0.5,0,0.9-0.4,0.9-0.9c0-0.4-0.3-0.8-0.6-0.9
			c0.5,0,0.9-0.4,0.9-1c0-0.4-0.2-0.7-0.6-0.9c0.4-0.1,0.8-0.5,0.8-1c0-0.4-0.2-0.8-0.6-0.9c0.4-0.1,0.7-0.5,0.7-1
			c0-0.4-0.2-0.8-0.6-0.9c0.4-0.2,0.6-0.5,0.6-1c0-0.1,0-0.1,0-0.2c0.1,0.2,0.4,0.4,0.6,0.4c-0.4,0.1-0.8,0.5-0.8,1s0.4,1,1,1
			c0.5,0,1-0.4,1-1c0-0.5-0.3-0.9-0.8-1c0.5-0.1,0.8-0.5,0.8-1s-0.3-0.9-0.7-1c0.4-0.1,0.7-0.5,0.7-1c0-0.1,0-0.2,0-0.2
			c0.2,0.3,0.5,0.4,0.8,0.4c0.6,0,1-0.4,1-1c0-0.5-0.4-1-0.9-1c0.5-0.1,0.8-0.5,0.8-1c0-0.1,0-0.2-0.1-0.4c0.2,0.3,0.5,0.5,0.9,0.5
			c0.5,0,1-0.4,1-1c0-0.5-0.4-1-1-1c-0.5,0-1,0.4-1,1c0,0.1,0,0.2,0.1,0.3c-0.2-0.3-0.4-0.5-0.7-0.5c0.4-0.2,0.7-0.5,0.7-1
			c0-0.1,0-0.2,0-0.2c0.2,0.2,0.5,0.4,0.8,0.4c0.6,0,1-0.5,1-1c0-0.6-0.5-1-1-1c0.4-0.1,0.7-0.5,0.7-1c0-0.1,0-0.2,0-0.3
			c0.2,0.2,0.5,0.4,0.8,0.4c0.6,0,1-0.5,1-1c0-0.6-0.4-1-1-1s-1,0.4-1,1c0,0.1,0,0.2,0,0.3c-0.2-0.2-0.4-0.3-0.7-0.4
			c0.3-0.2,0.6-0.5,0.6-1c0-0.1,0-0.1,0-0.2c0.2,0.2,0.4,0.3,0.7,0.3c0.6,0,1-0.5,1-1c0-0.1,0-0.3-0.1-0.4c0.2,0.2,0.5,0.4,0.8,0.4
			c0.5,0,1-0.4,1-1c0-0.5-0.4-1-1-1s-1,0.4-1,1c0,0.1,0,0.2,0.1,0.3c-0.2-0.3-0.5-0.4-0.8-0.4c0.4-0.2,0.6-0.5,0.6-1
			c0-0.1,0-0.2,0-0.3c0.2,0.2,0.4,0.3,0.7,0.3c0.6,0,1-0.5,1-1c0-0.2,0-0.3-0.1-0.5c0.2,0.3,0.5,0.5,0.8,0.5c0.5,0,1-0.4,1-1
			c0-0.5-0.4-1-1-1c-0.5,0-1,0.4-1,1c0,0.2,0,0.3,0.1,0.4c-0.2-0.3-0.5-0.5-0.9-0.5c-0.1,0-0.1,0-0.2,0c0.4-0.1,0.7-0.5,0.7-1
			c0-0.1,0-0.2-0.1-0.3c0.2,0.2,0.4,0.3,0.7,0.3c0.6,0,1-0.5,1-1c0-0.6-0.5-1-1-1c-0.6,0-1,0.5-1,1c0,0.1,0,0.2,0,0.3
			c-0.2-0.2-0.4-0.3-0.7-0.3c0.3-0.2,0.5-0.5,0.5-0.9c0-0.1,0-0.2,0-0.3c0.2,0.1,0.4,0.2,0.6,0.2c0.6,0,1-0.5,1-1
			c0-0.1,0-0.3-0.1-0.4c0.2,0.2,0.4,0.3,0.7,0.3c0.6,0,1-0.5,1-1c0-0.6-0.4-1-1-1c-0.6,0-1,0.5-1,1c0,0.1,0,0.2,0.1,0.3
			c-0.2-0.2-0.5-0.3-0.8-0.3c0,0,0,0-0.1,0c0.3-0.2,0.5-0.5,0.5-0.9c0-0.1,0-0.2,0-0.3c0.2,0.1,0.4,0.2,0.6,0.2c0.6,0,1-0.5,1-1
			c0-0.2,0-0.3-0.1-0.4c0.2,0.2,0.4,0.3,0.7,0.3c0.5,0,1-0.4,1-1s-0.5-1-1-1c-0.6,0-1,0.4-1,1c0,0.1,0,0.3,0.1,0.4
			c-0.2-0.2-0.5-0.3-0.8-0.3h-0.1c0.3-0.2,0.5-0.5,0.5-0.9c0-0.1,0-0.2-0.1-0.3c0.2,0.1,0.4,0.2,0.6,0.2c0.6,0,1-0.5,1-1
			c0-0.2-0.1-0.4-0.1-0.5c0.2,0.2,0.4,0.3,0.7,0.3c0.5,0,1-0.4,1-1c0-0.5-0.4-1-1-1c-0.5,0-1,0.4-1,1c0,0.2,0.1,0.3,0.1,0.5
			c-0.2-0.2-0.5-0.4-0.8-0.4c-0.1,0-0.2,0-0.2,0c0.3-0.2,0.5-0.5,0.5-0.9c0-0.1,0-0.3-0.1-0.4c0.2,0.1,0.4,0.2,0.6,0.2
			c0.6,0,1-0.5,1-1c0-0.6-0.5-1-1-1c-0.1,0-0.2,0-0.2,0c0.3-0.2,0.5-0.5,0.5-0.9c0-0.1,0-0.3-0.1-0.4c0.2,0.1,0.4,0.2,0.6,0.2
			c0.6,0,1-0.5,1-1c0-0.6-0.5-1-1-1c-0.6,0-1,0.5-1,1c0,0.1,0,0.3,0.1,0.4c-0.2-0.1-0.4-0.2-0.6-0.2c-0.6,0-1.1,0.5-1.1,1.1
			c0,0.1,0,0.2,0,0.3c-0.2-0.1-0.4-0.2-0.6-0.2c-0.6,0-1.1,0.5-1.1,1.1c0,0.1,0,0.1,0,0.2c-0.2-0.1-0.3-0.1-0.5-0.1
			c-0.6,0-1.1,0.5-1.1,1.1v0.1C59.9,27,59.7,27,59.5,27c-0.6,0-1.2,0.5-1.2,1.2c0,0,0,0,0,0.1c-0.1-0.1-0.3-0.1-0.4-0.1
			c-0.7,0-1.2,0.5-1.2,1.2l0,0c-0.1,0-0.3-0.1-0.4-0.1c-0.3,0-0.6,0.1-0.8,0.3c0,0-1.8,1.4-6.4,5.2C29.8,50.4,31,62.1,24.5,62.1
			c-2.4,0-4.4-1.9-4.4-4.4c0-8.9,22.2-25.8,22.2-39.4c0-5.8-4.7-10.5-10.6-10.5c-7.5,0-13.1,3.6-16.2,6.9c-2.5,2.6-3.6,5.3-3.6,7.1
			c0,1.3,0.5,2.1,1.4,2.1c3,0,5.6-4,5.9-4.4c0.1-0.1,0.1-0.1,0.3-0.1c0.1,0,0.3,0.1,0.3,0.3c0,0.5-2.5,2.5-2.5,5.6
			c0,1.7,1.3,2.5,1.3,2.5c4.8-1.8,6.3-5.5,7.7-8.8c1-2.3,2.4-5,5.4-5c2.4,0,4.4,2,4.4,4.4C36.1,32.9,7.6,49,7.6,66.2
			C7.7,72.8,10.9,77.5,12.6,77.5z M56.7,49.1c0.1,0.1,0.3,0.2,0.4,0.2c-0.3,0.2-0.5,0.5-0.5,0.9v0.1c-0.1-0.1-0.2-0.2-0.3-0.2
			C56.5,49.9,56.7,49.6,56.7,49.1C56.7,49.2,56.7,49.2,56.7,49.1z M56.4,52.1c0.3-0.2,0.5-0.5,0.5-0.9v-0.1c0.1,0.1,0.3,0.2,0.5,0.3
			c-0.4,0.2-0.6,0.5-0.6,0.9c0,0,0,0.1,0,0.2C56.7,52.2,56.6,52.1,56.4,52.1z M57.8,44.3c0.1,0.1,0.3,0.1,0.4,0.2
			c-0.3,0.2-0.5,0.5-0.5,0.9v0.1c-0.1-0.1-0.2-0.1-0.3-0.2C57.6,45.1,57.8,44.8,57.8,44.3C57.8,44.4,57.8,44.4,57.8,44.3z M59,41.4
			c0.1,0.1,0.3,0.2,0.5,0.2c-0.3,0.2-0.5,0.5-0.5,0.9v0.1c-0.1-0.1-0.3-0.2-0.4-0.2c0.2-0.2,0.4-0.5,0.4-0.8
			C59,41.4,59,41.4,59,41.4z M58.7,46.4c-0.3,0.2-0.6,0.5-0.6,0.9v0.1c-0.1-0.1-0.3-0.2-0.4-0.3c0.3-0.2,0.5-0.5,0.5-0.9v-0.1
			C58.3,46.3,58.5,46.4,58.7,46.4z M57,54.2c0,0.1,0,0.2,0,0.2c-0.1-0.2-0.3-0.3-0.5-0.4c0.4-0.2,0.6-0.5,0.6-1c0-0.1,0-0.1,0-0.2
			c0.2,0.2,0.4,0.3,0.7,0.3C57.3,53.3,57,53.7,57,54.2z M58.4,49.4c0,0.1,0,0.1,0,0.2c-0.1-0.2-0.3-0.3-0.6-0.3
			c0.3-0.2,0.6-0.5,0.6-0.9c0-0.1,0-0.1,0-0.2c0.2,0.2,0.4,0.3,0.7,0.3C58.7,48.5,58.4,48.9,58.4,49.4z M59.5,44.4
			c0,0.1,0,0.1,0,0.2c-0.1-0.1-0.3-0.2-0.5-0.3c0.3-0.2,0.5-0.5,0.5-0.9c0-0.1,0-0.1,0-0.2c0.2,0.1,0.4,0.2,0.7,0.2l0,0
			C59.7,43.6,59.5,44,59.5,44.4z M60.2,38.4c0.2,0.1,0.4,0.2,0.6,0.2c-0.3,0.2-0.5,0.5-0.5,0.9c0,0.1,0,0.1,0,0.2
			c-0.1-0.1-0.3-0.2-0.5-0.2c0.2-0.2,0.4-0.5,0.4-0.8C60.2,38.5,60.2,38.4,60.2,38.4z M61.5,40.4c-0.4,0.1-0.7,0.5-0.7,1
			c0,0.1,0,0.2,0,0.2c-0.2-0.2-0.4-0.3-0.6-0.3c0.3-0.2,0.5-0.5,0.5-0.9c0-0.1,0-0.1,0-0.2c0.2,0.1,0.4,0.2,0.6,0.2
			C61.4,40.4,61.4,40.4,61.5,40.4z M62.4,33.3c0,0.1,0,0.2,0,0.3c-0.2-0.1-0.4-0.2-0.6-0.2c0.2-0.2,0.4-0.5,0.4-0.8
			c0-0.1,0-0.2,0-0.2c0.2,0.1,0.4,0.2,0.6,0.2c0.1,0,0.1,0,0.2,0C62.6,32.6,62.4,32.9,62.4,33.3z M63.8,26.5c0-0.1,0-0.2,0-0.3
			c0.2,0.1,0.3,0.1,0.5,0.1c0.1,0,0.2,0,0.3,0c-0.3,0.2-0.4,0.5-0.4,0.8c0,0.1,0,0.2,0.1,0.3c-0.2-0.1-0.4-0.2-0.6-0.2l0,0
			C63.7,27,63.8,26.8,63.8,26.5z M63.6,29.4c0.1,0,0.2,0,0.3,0c-0.3,0.2-0.5,0.5-0.5,0.9c0,0.1,0,0.2,0,0.3
			c-0.2-0.1-0.4-0.2-0.7-0.2l0,0c0.2-0.2,0.3-0.5,0.3-0.8c0-0.1,0-0.2,0-0.3C63.2,29.3,63.4,29.4,63.6,29.4z M62.3,27.5
			c0.1,0.1,0.3,0.1,0.5,0.1c0,0,0,0,0.1,0c-0.2,0.2-0.3,0.4-0.3,0.7c0,0.1,0,0.2,0,0.2c-0.1-0.1-0.3-0.1-0.5-0.2
			c0.2-0.2,0.2-0.4,0.2-0.7V27.5z M61.5,30.5c0.1,0.1,0.3,0.1,0.5,0.1l0,0c-0.2,0.2-0.3,0.5-0.3,0.8c0,0.1,0,0.1,0,0.2
			c-0.1-0.1-0.3-0.1-0.5-0.2c0.2-0.2,0.3-0.5,0.3-0.7C61.5,30.6,61.5,30.6,61.5,30.5z M61.2,35.5c0-0.1,0-0.1,0-0.2
			c0.2,0.1,0.4,0.2,0.6,0.2h0.1c-0.3,0.2-0.5,0.5-0.5,0.9c0,0.1,0,0.2,0,0.2c-0.2-0.1-0.3-0.2-0.5-0.2
			C61.1,36.2,61.2,35.9,61.2,35.5z M60.7,28.8c0.1,0,0.2,0.1,0.3,0.1c-0.1,0.2-0.2,0.4-0.2,0.7c0,0.1,0,0.1,0,0.2
			c-0.1-0.1-0.2-0.1-0.3-0.1c0.1-0.2,0.2-0.4,0.2-0.6S60.7,28.8,60.7,28.8z M60.6,33.7c0-0.1,0-0.1,0-0.2c0.1,0.1,0.3,0.1,0.5,0.1
			c-0.2,0.2-0.3,0.5-0.3,0.8c0,0.1,0,0.1,0,0.2c-0.1-0.1-0.3-0.1-0.4-0.2C60.5,34.2,60.6,34,60.6,33.7z M59.9,31.7
			c0.1,0,0.2,0.1,0.3,0.1C60,32,60,32.2,60,32.5v0.1c-0.1,0-0.2-0.1-0.3-0.1C59.8,32.3,59.9,32.1,59.9,31.7
			C59.9,31.8,59.9,31.8,59.9,31.7z M59.6,36.5c0.1,0.1,0.3,0.1,0.4,0.1c-0.2,0.2-0.4,0.5-0.4,0.8v0.1c-0.1-0.1-0.2-0.1-0.4-0.2
			C59.4,37.1,59.5,36.8,59.6,36.5C59.6,36.6,59.6,36.6,59.6,36.5z M59.2,30c0.1,0,0.1,0,0.2,0c-0.1,0.2-0.2,0.4-0.2,0.6v0.1
			c-0.1,0-0.1,0-0.2-0.1C59.1,30.6,59.2,30.3,59.2,30C59.2,30.1,59.2,30.1,59.2,30z M59,34.7c0.1,0,0.2,0.1,0.3,0.1
			C59.1,35,59,35.2,59,35.5v0.1c-0.1,0-0.2-0.1-0.3-0.1C58.9,35.3,59,35.1,59,34.7C59,34.8,59,34.8,59,34.7z M58.9,39.6
			c-0.2,0.2-0.4,0.5-0.4,0.8v0.1c-0.1-0.1-0.2-0.1-0.3-0.1c0.2-0.2,0.3-0.5,0.3-0.8v-0.1C58.6,39.6,58.7,39.6,58.9,39.6z M58.3,33
			c0.1,0,0.1,0,0.2,0.1c-0.1,0.2-0.2,0.4-0.2,0.6c0,0,0,0,0,0.1c-0.1,0-0.1,0-0.2-0.1C58.2,33.5,58.3,33.3,58.3,33L58.3,33z
			 M58,37.8C58,37.8,58,37.7,58,37.8c0.1,0,0.2,0,0.2,0c-0.2,0.2-0.3,0.5-0.3,0.7c0,0,0,0,0,0.1c-0.1,0-0.1-0.1-0.2-0.1
			C57.9,38.3,58,38,58,37.8z M57.4,36L57.4,36h0.1c-0.1,0.2-0.2,0.4-0.2,0.7l0,0h-0.1C57.3,36.5,57.4,36.2,57.4,36z M57.4,42.5
			L57.4,42.5c0.1,0,0.2,0,0.3,0c-0.2,0.2-0.4,0.5-0.4,0.8c0,0,0,0,0,0.1c-0.1,0-0.2-0.1-0.2-0.1C57.2,43.1,57.4,42.9,57.4,42.5z
			 M56.9,40.7L56.9,40.7c0.1,0,0.1,0,0.2,0c-0.2,0.2-0.3,0.5-0.3,0.8l0,0c0,0-0.1,0-0.1-0.1C56.8,41.3,56.9,41,56.9,40.7z
			 M56.1,45.5C56.1,45.4,56.1,45.4,56.1,45.5c0.1,0,0.1,0,0.2,0c-0.1,0.1-0.2,0.2-0.2,0.3C56.1,45.7,56.1,45.6,56.1,45.5z
			 M56.4,47.3L56.4,47.3c0.1,0,0.2,0,0.3,0.1c-0.3,0.2-0.4,0.5-0.4,0.9c0,0,0,0,0,0.1c-0.1-0.1-0.2-0.1-0.2-0.1
			C56.3,48,56.4,47.7,56.4,47.3z M55.2,57c0,0.1,0,0.1,0,0.2c-0.1-0.1-0.2-0.3-0.4-0.4c0.3-0.2,0.6-0.5,0.6-1v-0.1
			c0.1,0.1,0.3,0.3,0.5,0.3C55.5,56.2,55.2,56.5,55.2,57z M56,46c0,0.1-0.1,0.2-0.1,0.3l0,0c0,0-0.1-0.1-0.2-0.1
			C55.8,46.2,55.9,46.1,56,46z M55.7,54.1c-0.4,0.2-0.6,0.5-0.6,0.9v0.1c-0.1-0.1-0.2-0.2-0.3-0.2c0.3-0.2,0.5-0.5,0.5-0.9
			c0,0,0,0,0-0.1C55.4,54,55.6,54,55.7,54.1z M55,53.1L55,53.1c-0.1,0-0.1-0.1-0.2-0.1c0.3-0.2,0.5-0.5,0.5-0.9l0,0
			c0.1,0.1,0.2,0.1,0.3,0.2C55.2,52.4,55,52.7,55,53.1z M55,50.2L55,50.2c0.1,0,0.1,0.1,0.2,0.1c-0.1,0.1-0.2,0.2-0.2,0.2
			C55,50.4,55,50.3,55,50.2z M54.8,50.8c0,0.1,0,0.2,0,0.3l0,0c-0.1,0-0.1-0.1-0.2-0.1C54.7,51,54.7,50.9,54.8,50.8z M53.6,54.8
			c0.1,0,0.1,0.1,0.2,0.1c-0.1,0.1-0.2,0.1-0.2,0.2C53.6,55,53.6,54.9,53.6,54.8z M53.6,56.6L53.6,56.6c0.1,0.1,0.2,0.1,0.3,0.2
			c-0.2,0.1-0.3,0.2-0.4,0.4C53.6,57,53.6,56.8,53.6,56.6z M53.3,55.6c0,0.1,0,0.2,0,0.3l-0.1-0.1C53.2,55.7,53.2,55.6,53.3,55.6z
			 M53.4,57.2c-0.1,0.1-0.1,0.3-0.1,0.5l0,0c-0.1-0.1-0.1-0.1-0.2-0.2C53.3,57.5,53.4,57.4,53.4,57.2z M53.6,58.5
			C53.6,58.5,53.6,58.4,53.6,58.5c0.1,0.1,0.2,0.1,0.3,0.2c-0.4,0.2-0.6,0.5-0.6,0.9v0.1c-0.1-0.1-0.2-0.2-0.3-0.3
			C53.4,59.2,53.6,58.9,53.6,58.5z M53.5,60.3L53.5,60.3c0.1,0.1,0.3,0.2,0.4,0.2c-0.4,0.1-0.7,0.5-0.7,0.9c0,0.1,0,0.1,0,0.2
			c-0.1-0.2-0.2-0.3-0.4-0.4C53.3,61.1,53.5,60.7,53.5,60.3z M51.8,59.3l0.1,0.1c-0.1,0-0.1,0.1-0.2,0.1
			C51.8,59.4,51.8,59.4,51.8,59.3z M51.7,61c0.1,0.1,0.1,0.1,0.2,0.2c-0.1,0.1-0.2,0.1-0.3,0.2C51.7,61.3,51.7,61.2,51.7,61z
			 M51.4,60.1c0,0.1,0,0.1,0,0.2l-0.1-0.1C51.4,60.1,51.4,60.1,51.4,60.1z M51.4,61.7c0,0.1-0.1,0.2-0.1,0.4l0,0
			c0-0.1-0.1-0.1-0.2-0.2C51.3,61.9,51.3,61.8,51.4,61.7z M51.5,62.7L51.5,62.7c0.1,0.1,0.2,0.2,0.3,0.2c-0.4,0.2-0.6,0.5-0.6,0.9
			v0.1c-0.1-0.1-0.1-0.2-0.2-0.3C51.3,63.5,51.5,63.2,51.5,62.7z M49.4,65.1c0,0.1,0.1,0.1,0.2,0.2c-0.1,0-0.2,0.1-0.2,0.2
			C49.4,65.3,49.4,65.2,49.4,65.1z M49.1,65.8c0,0.1-0.1,0.2-0.1,0.3l0,0c0-0.1-0.1-0.2-0.1-0.2C49,65.9,49,65.9,49.1,65.8z
			 M46.9,68.7c0,0.1,0.1,0.1,0.1,0.2c-0.1,0-0.2,0.1-0.2,0.1C46.9,68.9,46.9,68.8,46.9,68.7z M44,71.3l0.1-0.1c0,0.1,0,0.2,0,0.2
			c0,0.2,0.1,0.4,0.2,0.5C44.2,72,44.1,72,44,72.1c0.1-0.2,0.2-0.3,0.2-0.5C44.1,71.6,44.1,71.5,44,71.3z M41.6,72.9
			C41.7,72.9,41.7,72.9,41.6,72.9c0.1,0,0.1,0.1,0.1,0.1c0,0.2,0,0.3,0.1,0.5c-0.1,0-0.2,0.1-0.3,0.2c0.1-0.1,0.1-0.3,0.1-0.5
			C41.7,73.1,41.7,73,41.6,72.9z M39.7,73.6L39.7,73.6L39.7,73.6L39.7,73.6z"/>
		<circle class="st0" cx="74.1" cy="23.2" r="0.7"/>
		<path class="st0" d="M79.4,16.6c0.3,0,0.6-0.3,0.6-0.6s-0.3-0.6-0.6-0.6s-0.6,0.3-0.6,0.6C78.8,16.3,79,16.6,79.4,16.6z"/>
		<path class="st0" d="M86.8,51.6c0.1,0,0.2-0.1,0.2-0.2c0-0.1-0.1-0.2-0.2-0.2c-0.1,0-0.2,0.1-0.2,0.2
			C86.7,51.6,86.8,51.6,86.8,51.6z"/>
		<path class="st0" d="M87.6,32.8c0.1,0,0.2-0.1,0.2-0.2c0-0.1-0.1-0.2-0.2-0.2c-0.1,0-0.2,0.1-0.2,0.2S87.5,32.8,87.6,32.8z"/>
		<path class="st0" d="M83.9,12.4c0.2,0,0.4-0.2,0.4-0.4s-0.2-0.4-0.4-0.4s-0.4,0.2-0.4,0.4S83.7,12.4,83.9,12.4z"/>
		<path class="st0" d="M87.7,42.2c0.1,0,0.2-0.1,0.2-0.2c0-0.1-0.1-0.2-0.2-0.2s-0.2,0.1-0.2,0.2C87.5,42.2,87.6,42.2,87.7,42.2z"/>
		<path class="st0" d="M87.6,26.2c0.1,0,0.3-0.1,0.3-0.2s-0.1-0.3-0.3-0.3c-0.1,0-0.2,0.1-0.2,0.3C87.4,26.1,87.5,26.2,87.6,26.2z"
			/>
		<circle class="st0" cx="87.1" cy="39.2" r="0.2"/>
		<path class="st0" d="M86.7,23c-0.2,0-0.3,0.1-0.3,0.3c0,0.2,0.1,0.3,0.3,0.3s0.3-0.1,0.3-0.3S86.8,23,86.7,23z"/>
		<path class="st0" d="M86.6,48.8c0.1,0,0.2-0.1,0.2-0.2s-0.1-0.2-0.2-0.2c-0.1,0-0.2,0.1-0.2,0.2S86.5,48.8,86.6,48.8z"/>
		<circle class="st0" cx="86.8" cy="29.8" r="0.3"/>
		<path class="st0" d="M86.3,36.3c0,0.1,0.1,0.3,0.3,0.3c0.1,0,0.3-0.1,0.3-0.3S86.8,36,86.6,36S86.3,36.2,86.3,36.3z"/>
		<path class="st0" d="M87,19.4c0,0.1,0.1,0.3,0.2,0.3c0.1,0,0.3-0.1,0.3-0.3c0-0.1-0.1-0.3-0.3-0.3C87.1,19.2,87,19.3,87,19.4z"/>
		<path class="st0" d="M84.2,18.1c0,0.2,0.2,0.4,0.4,0.4s0.4-0.2,0.4-0.4c0-0.2-0.2-0.4-0.4-0.4S84.2,17.9,84.2,18.1z"/>
		<path class="st0" d="M85.1,14.8c0.2,0,0.4-0.2,0.4-0.4S85.3,14,85.1,14s-0.4,0.2-0.4,0.4S84.9,14.8,85.1,14.8z"/>
		<path class="st0" d="M87,5.8c0.2,0,0.3-0.1,0.3-0.3c0-0.2-0.1-0.3-0.3-0.3s-0.3,0.1-0.3,0.3C86.7,5.7,86.8,5.8,87,5.8z"/>
		<circle class="st0" cx="84.1" cy="8.4" r="0.4"/>
		<circle class="st0" cx="85.3" cy="10.7" r="0.4"/>
		<path class="st0" d="M85.6,7.3c0.2,0,0.3-0.2,0.3-0.3c0-0.2-0.2-0.4-0.3-0.4c-0.2,0-0.4,0.2-0.4,0.4C85.2,7.1,85.4,7.3,85.6,7.3z"
			/>
		<circle class="st0" cx="86.8" cy="9.3" r="0.3"/>
		<path class="st0" d="M86.6,13.4c0.2,0,0.3-0.1,0.3-0.3s-0.1-0.3-0.3-0.3s-0.3,0.1-0.3,0.3C86.2,13.2,86.4,13.4,86.6,13.4z"/>
		<circle class="st0" cx="86.2" cy="16.9" r="0.3"/>
		<path class="st0" d="M67.5,23.8c0.5,0,1-0.4,1-1c0-0.5-0.4-1-1-1c-0.5,0-1,0.4-1,1C66.5,23.3,66.9,23.8,67.5,23.8z"/>
		<path class="st0" d="M55.3,77c0.2,0,0.3-0.1,0.3-0.3c0-0.2-0.1-0.3-0.3-0.3S55,76.5,55,76.7C55,76.9,55.1,77,55.3,77z"/>
		<circle class="st0" cx="55.4" cy="68.4" r="0.8"/>
		<path class="st0" d="M56.1,75.1c0-0.2-0.2-0.4-0.4-0.4s-0.4,0.2-0.4,0.4c0,0.2,0.2,0.4,0.4,0.4C56,75.5,56.1,75.3,56.1,75.1z"/>
		<path class="st0" d="M56.8,73.5c0-0.3-0.2-0.5-0.5-0.5s-0.5,0.2-0.5,0.5S56,74,56.3,74C56.5,74,56.8,73.7,56.8,73.5z"/>
		<circle class="st0" cx="56.6" cy="71.7" r="0.6"/>
		<circle class="st0" cx="58" cy="62.2" r="0.9"/>
		<path class="st0" d="M56.1,63.7c0.5,0,0.9-0.4,0.9-0.9s-0.4-0.9-0.9-0.9s-0.9,0.4-0.9,0.9C55.1,63.3,55.6,63.7,56.1,63.7z"/>
		<path class="st0" d="M56.2,59.9c-0.5,0-1,0.4-1,0.9s0.4,1,1,1c0.5,0,1-0.4,1-1C57.1,60.3,56.7,59.9,56.2,59.9z"/>
		<path class="st0" d="M57.3,77c0.1,0,0.2-0.1,0.2-0.2s-0.1-0.2-0.2-0.2s-0.2,0.1-0.2,0.2S57.2,77,57.3,77z"/>
		<path class="st0" d="M55.6,67.4c0.5,0,0.9-0.4,0.9-0.9s-0.4-0.9-0.9-0.9s-0.9,0.4-0.9,0.9C54.8,67,55.2,67.4,55.6,67.4z"/>
		<path class="st0" d="M55.9,65.6c0.5,0,0.9-0.4,0.9-0.9s-0.4-0.9-0.9-0.9S55,64.2,55,64.7S55.4,65.6,55.9,65.6z"/>
		<path class="st0" d="M59.8,75.3c0.1,0,0.3-0.1,0.3-0.3c0-0.1-0.1-0.3-0.3-0.3c-0.1,0-0.3,0.1-0.3,0.3
			C59.5,75.2,59.6,75.3,59.8,75.3z"/>
		<path class="st0" d="M61.2,71.3c0-0.3-0.2-0.5-0.5-0.5s-0.5,0.2-0.5,0.5s0.2,0.5,0.5,0.5C60.9,71.8,61.2,71.6,61.2,71.3z"/>
		<path class="st0" d="M62.6,73.1c0-0.2-0.2-0.4-0.4-0.4s-0.4,0.2-0.4,0.4s0.2,0.4,0.4,0.4C62.4,73.4,62.6,73.3,62.6,73.1z"/>
		<circle class="st0" cx="61" cy="69.3" r="0.6"/>
		<path class="st0" d="M61.8,75.2c0.1,0,0.2-0.1,0.2-0.2s-0.1-0.2-0.2-0.2c-0.1,0-0.2,0.1-0.2,0.2C61.5,75.2,61.7,75.2,61.8,75.2z"
			/>
		<path class="st0" d="M59.3,76.9c0.1,0,0.2-0.1,0.2-0.2s-0.1-0.2-0.2-0.2c-0.1,0-0.2,0.1-0.2,0.2S59.2,76.9,59.3,76.9z"/>
		<ellipse class="st0" cx="59" cy="69.6" rx="0.7" ry="0.7"/>
		<path class="st0" d="M59.2,71.5c0-0.3-0.3-0.6-0.6-0.6S58,71.2,58,71.5c0,0.3,0.3,0.6,0.6,0.6C59,72.1,59.2,71.8,59.2,71.5z"/>
		<circle class="st0" cx="58.2" cy="73.3" r="0.5"/>
		<path class="st0" d="M57.8,75.4c0.2,0,0.3-0.1,0.3-0.3c0-0.2-0.1-0.3-0.3-0.3s-0.3,0.1-0.3,0.3C57.5,75.3,57.6,75.4,57.8,75.4z"/>
		<circle class="st0" cx="60.2" cy="73.2" r="0.4"/>
		<circle class="st0" cx="66.8" cy="25.9" r="1"/>
		<path class="st0" d="M65.3,40.3c0.5,0,0.9-0.4,0.9-0.9s-0.4-0.9-0.9-0.9s-0.9,0.4-0.9,0.9C64.4,39.9,64.8,40.3,65.3,40.3z"/>
		<circle class="st0" cx="67.6" cy="27.9" r="0.9"/>
		<path class="st0" d="M63.8,37.3c0,0.5,0.4,1,1,1c0.5,0,1-0.4,1-1c0-0.5-0.4-1-1-1C64.2,36.3,63.8,36.8,63.8,37.3z"/>
		<path class="st0" d="M64.8,34.2c0,0.5,0.4,1,1,1c0.5,0,1-0.4,1-1c0-0.5-0.4-1-1-1C65.3,33.2,64.8,33.7,64.8,34.2z"/>
		<circle class="st0" cx="66.8" cy="31.1" r="0.9"/>
		<circle class="st0" cx="58.1" cy="60.2" r="0.9"/>
		<path class="st0" d="M71.5,21.4c-0.5,0-0.8,0.4-0.8,0.8c0,0.5,0.4,0.8,0.8,0.8c0.5,0,0.8-0.4,0.8-0.8C72.4,21.8,72,21.4,71.5,21.4
			z"/>
		<path class="st0" d="M73.1,20.2c-0.4,0-0.8,0.4-0.8,0.8s0.4,0.8,0.8,0.8c0.4,0,0.8-0.4,0.8-0.8S73.6,20.2,73.1,20.2z"/>
		<path class="st0" d="M70,22.6c-0.5,0-0.9,0.4-0.9,0.9s0.4,0.9,0.9,0.9s0.9-0.4,0.9-0.9C70.8,23,70.4,22.6,70,22.6z"/>
		<path class="st0" d="M68.4,23.8c-0.5,0-0.9,0.4-0.9,0.9s0.4,0.9,0.9,0.9s0.9-0.4,0.9-0.9C69.3,24.2,68.9,23.8,68.4,23.8z"/>
		<circle class="st0" cx="74.7" cy="47.4" r="0.6"/>
		<path class="st0" d="M59.8,52.5c-0.5,0-1,0.4-1,1c0,0.5,0.4,1,1,1c0.5,0,1-0.4,1-1S60.4,52.5,59.8,52.5z"/>
		<path class="st0" d="M63.1,42.5c0,0.5,0.4,1,1,1c0.5,0,1-0.4,1-1c0-0.5-0.4-1-1-1C63.5,41.5,63.1,41.9,63.1,42.5z"/>
		<path class="st0" d="M58.1,59.2c0.5,0,0.9-0.4,0.9-0.9s-0.4-0.9-0.9-0.9s-0.9,0.4-0.9,0.9S57.6,59.2,58.1,59.2z"/>
		<path class="st0" d="M60,56.4c0.5,0,0.9-0.4,0.9-0.9s-0.4-0.9-0.9-0.9s-0.9,0.4-0.9,0.9C59,56,59.4,56.4,60,56.4z"/>
		<path class="st0" d="M61.7,45.5c0,0.5,0.4,1,1,1c0.5,0,1-0.4,1-1c0-0.5-0.4-1-1-1C62.2,44.5,61.7,45,61.7,45.5z"/>
		<circle class="st0" cx="61.2" cy="48.5" r="1"/>
		<circle class="st0" cx="61.5" cy="50.6" r="1"/>
		<path class="st0" d="M61.7,53.6c0.5,0,0.9-0.4,0.9-0.9s-0.4-0.9-0.9-0.9s-0.9,0.4-0.9,0.9C60.8,53.2,61.2,53.6,61.7,53.6z"/>
		<circle class="st0" cx="58.1" cy="56.2" r="1"/>
		<path class="st0" d="M71.6,65.6c0-0.2-0.2-0.4-0.4-0.4s-0.4,0.2-0.4,0.4c0,0.2,0.2,0.4,0.4,0.4S71.6,65.8,71.6,65.6z"/>
		<circle class="st0" cx="70.9" cy="68" r="0.3"/>
		<path class="st0" d="M71.8,63.2c0-0.3-0.2-0.5-0.5-0.5s-0.5,0.2-0.5,0.5s0.2,0.5,0.5,0.5S71.8,63.5,71.8,63.2z"/>
		<path class="st0" d="M72,60.9c0-0.3-0.2-0.5-0.5-0.5S71,60.6,71,60.9s0.2,0.5,0.5,0.5C71.7,61.4,72,61.2,72,60.9z"/>
		<path class="st0" d="M71.5,57.9c-0.3,0-0.6,0.3-0.6,0.6s0.2,0.6,0.6,0.6c0.3,0,0.6-0.3,0.6-0.6C72.1,58.2,71.8,57.9,71.5,57.9z"/>
		<path class="st0" d="M71.4,46.5c0-0.4-0.3-0.7-0.7-0.7S70,46.1,70,46.5s0.3,0.7,0.7,0.7S71.4,46.9,71.4,46.5z"/>
		<path class="st0" d="M69.6,56c-0.4,0-0.7,0.3-0.7,0.6c0,0.4,0.3,0.7,0.7,0.7s0.6-0.3,0.6-0.7C70.2,56.3,69.9,56,69.6,56z"/>
		<path class="st0" d="M71.5,55.5c-0.3,0-0.6,0.3-0.6,0.6s0.3,0.6,0.6,0.6s0.6-0.3,0.6-0.6S71.8,55.5,71.5,55.5z"/>
		<path class="st0" d="M71,49.6c0.4,0,0.7-0.3,0.7-0.7s-0.3-0.7-0.7-0.7s-0.7,0.3-0.7,0.7C70.3,49.2,70.6,49.6,71,49.6z"/>
		<path class="st0" d="M70.6,70.5c0.1,0,0.2-0.1,0.2-0.2s-0.1-0.2-0.2-0.2c-0.1,0-0.2,0.1-0.2,0.2C70.3,70.4,70.5,70.5,70.6,70.5z"
			/>
		<path class="st0" d="M75,44.9c0-0.3-0.3-0.6-0.6-0.6s-0.6,0.3-0.6,0.6s0.3,0.6,0.6,0.6S75,45.2,75,44.9z"/>
		<path class="st0" d="M73.9,60.4c0-0.3-0.2-0.5-0.5-0.5s-0.5,0.2-0.5,0.5s0.2,0.5,0.5,0.5S73.9,60.7,73.9,60.4z"/>
		<path class="st0" d="M73.7,62.9c0-0.2-0.2-0.4-0.4-0.4s-0.4,0.2-0.4,0.4s0.2,0.4,0.4,0.4C73.5,63.3,73.7,63.1,73.7,62.9z"/>
		<path class="st0" d="M73.4,57.4c-0.3,0-0.5,0.2-0.5,0.5s0.2,0.5,0.5,0.5s0.5-0.2,0.5-0.5C73.9,57.7,73.7,57.4,73.4,57.4z"/>
		<path class="st0" d="M69.6,58.4c-0.3,0-0.6,0.3-0.6,0.6s0.3,0.6,0.6,0.6s0.6-0.3,0.6-0.6C70.2,58.6,69.9,58.4,69.6,58.4z"/>
		<circle class="st0" cx="72.5" cy="45.7" r="0.7"/>
		<path class="st0" d="M72.8,48.8c0.4,0,0.6-0.3,0.6-0.6c0-0.4-0.3-0.6-0.6-0.6c-0.4,0-0.6,0.3-0.6,0.6
			C72.2,48.5,72.5,48.8,72.8,48.8z"/>
		<path class="st0" d="M72.6,70.2c0.1,0,0.2-0.1,0.2-0.2s-0.1-0.2-0.2-0.2c-0.1,0-0.2,0.1-0.2,0.2C72.4,70.2,72.5,70.2,72.6,70.2z"
			/>
		<path class="st0" d="M73.2,67.7c0-0.2-0.1-0.3-0.3-0.3s-0.3,0.1-0.3,0.3c0,0.2,0.1,0.3,0.3,0.3C73,68,73.2,67.9,73.2,67.7z"/>
		<path class="st0" d="M73.5,65.3c0-0.2-0.2-0.4-0.4-0.4s-0.4,0.2-0.4,0.4c0,0.2,0.2,0.4,0.4,0.4C73.3,65.7,73.5,65.5,73.5,65.3z"/>
		<path class="st0" d="M69.6,65.9c0-0.3-0.2-0.5-0.5-0.5s-0.5,0.2-0.5,0.5s0.2,0.5,0.5,0.5S69.6,66.2,69.6,65.9z"/>
		<circle class="st0" cx="64.9" cy="68.8" r="0.5"/>
		<path class="st0" d="M65,70.9c0-0.2-0.2-0.4-0.4-0.4s-0.4,0.2-0.4,0.4c0,0.2,0.2,0.4,0.4,0.4C64.8,71.3,65,71.1,65,70.9z"/>
		<path class="st0" d="M64.2,73.2c0.2,0,0.3-0.1,0.3-0.3c0-0.2-0.1-0.3-0.3-0.3s-0.3,0.1-0.3,0.3S64.1,73.2,64.2,73.2z"/>
		<path class="st0" d="M65.8,66.6c0-0.3-0.3-0.6-0.6-0.6s-0.6,0.3-0.6,0.6c0,0.3,0.3,0.6,0.6,0.6C65.5,67.2,65.8,66.9,65.8,66.6z"/>
		<path class="st0" d="M66.1,64.5c0-0.3-0.3-0.6-0.6-0.6s-0.6,0.3-0.6,0.6c0,0.3,0.3,0.6,0.6,0.6S66.1,64.8,66.1,64.5z"/>
		<path class="st0" d="M63.5,69.1c0-0.3-0.3-0.6-0.6-0.6s-0.6,0.3-0.6,0.6c0,0.3,0.3,0.6,0.6,0.6C63.3,69.6,63.5,69.4,63.5,69.1z"/>
		<path class="st0" d="M66.2,73c0.1,0,0.2-0.1,0.2-0.2s-0.1-0.2-0.2-0.2c-0.1,0-0.2,0.1-0.2,0.2S66.1,73,66.2,73z"/>
		<path class="st0" d="M70.1,61.3c0-0.3-0.3-0.6-0.6-0.6s-0.6,0.3-0.6,0.6s0.3,0.6,0.6,0.6C69.8,61.9,70.1,61.6,70.1,61.3z"/>
		<path class="st0" d="M63.8,75.2c0.1,0,0.2-0.1,0.2-0.2s-0.1-0.2-0.2-0.2c-0.1,0-0.2,0.1-0.2,0.2S63.7,75.2,63.8,75.2z"/>
		<circle class="st0" cx="63.3" cy="67" r="0.6"/>
		<path class="st0" d="M68.2,72.8c0.1,0,0.2-0.1,0.2-0.2s-0.1-0.2-0.2-0.2c-0.1,0-0.2,0.1-0.2,0.2C68.1,72.7,68.1,72.8,68.2,72.8z"
			/>
		<path class="st0" d="M69.3,68.2c0-0.2-0.2-0.4-0.4-0.4s-0.4,0.2-0.4,0.4c0,0.2,0.2,0.4,0.4,0.4S69.3,68.4,69.3,68.2z"/>
		<path class="st0" d="M63.1,71.1c0-0.3-0.2-0.5-0.5-0.5s-0.5,0.2-0.5,0.5s0.2,0.5,0.5,0.5S63.1,71.3,63.1,71.1z"/>
		<circle class="st0" cx="69.4" cy="63.6" r="0.5"/>
		<circle class="st0" cx="68.6" cy="70.5" r="0.3"/>
		<path class="st0" d="M67,70.7c0-0.2-0.2-0.4-0.4-0.4s-0.4,0.2-0.4,0.4c0,0.2,0.2,0.4,0.4,0.4C66.8,71,67,70.9,67,70.7z"/>
		<path class="st0" d="M67.7,66.3c0-0.3-0.2-0.5-0.5-0.5s-0.5,0.2-0.5,0.5s0.2,0.5,0.5,0.5S67.7,66.6,67.7,66.3z"/>
		<path class="st0" d="M67.4,68.5c0-0.2-0.2-0.5-0.5-0.5s-0.5,0.2-0.5,0.5c0,0.2,0.2,0.5,0.5,0.5C67.2,68.9,67.4,68.7,67.4,68.5z"/>
		<path class="st0" d="M68,64c0-0.3-0.3-0.6-0.6-0.6s-0.6,0.3-0.6,0.6c0,0.3,0.3,0.6,0.6,0.6S68,64.4,68,64z"/>
		<path class="st0" d="M68.2,61.8c0-0.3-0.3-0.6-0.6-0.6S67,61.5,67,61.8s0.3,0.6,0.6,0.6C67.9,62.4,68.2,62.1,68.2,61.8z"/>
	</g>
</g>
</svg>
