<?xml version="1.0" encoding="utf-8"?>
<!-- Generator: Adobe Illustrator 24.1.2, SVG Export Plug-In . SVG Version: 6.00 Build 0)  -->
<svg version="1.1" id="Layer_1" xmlns="http://www.w3.org/2000/svg" xmlns:xlink="http://www.w3.org/1999/xlink" x="0px" y="0px"
	 viewBox="0 0 400 201.9" style="enable-background:new 0 0 400 201.9;" xml:space="preserve">
<style type="text/css">
	.st0{fill:#E5DDD0;}
	.st1{fill:#231F20;}
</style>
<g>
	<g>
		<circle class="st0" cx="226" cy="29.9" r="0.9"/>
		<path class="st0" d="M223.1,36.3c0,0.5,0.4,0.9,0.9,0.9s0.9-0.4,0.9-0.9c0-0.5-0.4-0.9-0.9-0.9S223.1,35.8,223.1,36.3z"/>
		<path class="st0" d="M224.2,33.1c0,0.5,0.4,0.9,0.9,0.9c0.5,0,0.9-0.4,0.9-0.9c0-0.5-0.4-0.9-0.9-0.9
			C224.6,32.2,224.2,32.6,224.2,33.1z"/>
		<circle class="st0" cx="226.8" cy="26.7" r="0.9"/>
		<path class="st0" d="M231,25.8c-0.4,0-0.8,0.3-0.8,0.8c0,0.4,0.3,0.8,0.8,0.8s0.8-0.3,0.8-0.8C231.7,26.1,231.4,25.8,231,25.8z"/>
		<path class="st0" d="M224.6,39.3c0.5,0,0.9-0.4,0.9-0.9c0-0.5-0.4-0.9-0.9-0.9c-0.5,0-0.9,0.4-0.9,0.9
			C223.8,38.9,224.2,39.3,224.6,39.3z"/>
		<path class="st0" d="M232.6,24.7c-0.4,0-0.7,0.3-0.7,0.7c0,0.4,0.3,0.7,0.7,0.7c0.4,0,0.7-0.3,0.7-0.7
			C233.3,25,233,24.7,232.6,24.7z"/>
		<path class="st0" d="M231.1,28.7c0,0.4,0.3,0.7,0.7,0.7c0.4,0,0.7-0.3,0.7-0.7c0-0.4-0.3-0.7-0.7-0.7
			C231.4,28,231.1,28.3,231.1,28.7z"/>
		<circle class="st0" cx="228.5" cy="25.5" r="0.8"/>
		<path class="st0" d="M230.1,23.6c-0.4,0-0.8,0.4-0.8,0.8c0,0.4,0.4,0.8,0.8,0.8c0.4,0,0.8-0.4,0.8-0.8
			C230.9,23.9,230.5,23.6,230.1,23.6z"/>
		<path class="st0" d="M223.2,54.2c0.4,0,0.8-0.4,0.8-0.8c0-0.4-0.4-0.8-0.8-0.8c-0.4,0-0.8,0.4-0.8,0.8
			C222.4,53.8,222.7,54.2,223.2,54.2z"/>
		<path class="st0" d="M222,62.7c0-0.4-0.3-0.7-0.7-0.7c-0.4,0-0.7,0.3-0.7,0.7c0,0.4,0.3,0.7,0.7,0.7C221.7,63.5,222,63.1,222,62.7
			z"/>
		<path class="st0" d="M221.4,57.6c-0.4,0-0.8,0.4-0.8,0.8c0,0.4,0.4,0.8,0.8,0.8s0.8-0.4,0.8-0.8C222.2,58,221.8,57.6,221.4,57.6z"
			/>
		<path class="st0" d="M221.4,59.8c-0.4,0-0.8,0.3-0.8,0.8c0,0.4,0.3,0.8,0.8,0.8c0.4,0,0.8-0.3,0.8-0.8
			C222.1,60.2,221.8,59.8,221.4,59.8z"/>
		<path class="st0" d="M223,52c0.5,0,0.8-0.4,0.8-0.8c0-0.5-0.4-0.8-0.8-0.8s-0.8,0.4-0.8,0.8C222.2,51.6,222.5,52,223,52z"/>
		<path class="st0" d="M221.4,55.4c-0.5,0-0.8,0.4-0.8,0.8c0,0.5,0.4,0.8,0.8,0.8c0.4,0,0.8-0.4,0.8-0.8
			C222.2,55.8,221.8,55.4,221.4,55.4z"/>
		<path class="st0" d="M222.5,41.5c0,0.5,0.4,0.9,0.9,0.9c0.5,0,0.9-0.4,0.9-0.9s-0.4-0.9-0.9-0.9C222.9,40.6,222.5,41,222.5,41.5z"
			/>
		<path class="st0" d="M219.7,47.6c0,0.5,0.4,0.9,0.9,0.9c0.5,0,0.9-0.4,0.9-0.9c0-0.5-0.4-0.9-0.9-0.9
			C220.1,46.7,219.7,47.1,219.7,47.6z"/>
		<path class="st0" d="M221.2,44.6c0,0.5,0.4,0.9,0.9,0.9c0.5,0,0.9-0.4,0.9-0.9c0-0.5-0.4-0.9-0.9-0.9
			C221.6,43.7,221.2,44.1,221.2,44.6z"/>
		<path class="st0" d="M220.9,50.7c0.5,0,0.9-0.4,0.9-0.9c0-0.5-0.4-0.9-0.9-0.9c-0.5,0-0.9,0.4-0.9,0.9
			C220,50.2,220.4,50.7,220.9,50.7z"/>
		<path class="st0" d="M221.1,65.5c0.4,0,0.7-0.3,0.7-0.7c0-0.4-0.3-0.7-0.7-0.7c-0.4,0-0.7,0.3-0.7,0.7
			C220.4,65.2,220.7,65.5,221.1,65.5z"/>
		<path class="st0" d="M236.5,28.9c0-0.3-0.3-0.6-0.6-0.6c-0.3,0-0.6,0.3-0.6,0.6c0,0.3,0.3,0.6,0.6,0.6
			C236.3,29.4,236.5,29.2,236.5,28.9z"/>
		<path class="st0" d="M230.6,35.4c0-0.4-0.3-0.7-0.7-0.7s-0.8,0.3-0.8,0.7c0,0.4,0.3,0.8,0.8,0.8C230.3,36.1,230.6,35.8,230.6,35.4
			z"/>
		<circle class="st0" cx="223.3" cy="55.6" r="0.8"/>
		<path class="st0" d="M230.5,38.4c0.4,0,0.7-0.3,0.7-0.7c0-0.4-0.3-0.7-0.7-0.7c-0.4,0-0.7,0.3-0.7,0.7
			C229.8,38.1,230.1,38.4,230.5,38.4z"/>
		<circle class="st0" cx="227.5" cy="41.9" r="0.8"/>
		<path class="st0" d="M229.5,38.7c0-0.4-0.3-0.8-0.8-0.8c-0.4,0-0.8,0.3-0.8,0.8c0,0.4,0.3,0.8,0.8,0.8
			C229.1,39.4,229.5,39.1,229.5,38.7z"/>
		<circle class="st0" cx="234.3" cy="29.9" r="0.6"/>
		<path class="st0" d="M226.1,45.8c0.4,0,0.8-0.4,0.8-0.8c0-0.4-0.4-0.8-0.8-0.8c-0.4,0-0.8,0.4-0.8,0.8
			C225.3,45.5,225.6,45.8,226.1,45.8z"/>
		<circle class="st0" cx="231.6" cy="34.4" r="0.7"/>
		<path class="st0" d="M235,32.9c0.3,0,0.6-0.3,0.6-0.6c0-0.3-0.3-0.6-0.6-0.6c-0.3,0-0.6,0.3-0.6,0.6
			C234.4,32.7,234.7,32.9,235,32.9z"/>
		<path class="st0" d="M233.3,31c0-0.4-0.3-0.7-0.7-0.7c-0.4,0-0.7,0.3-0.7,0.7c0,0.4,0.3,0.7,0.7,0.7C233,31.7,233.3,31.4,233.3,31
			z"/>
		<path class="st0" d="M233.3,34c0.4,0,0.6-0.3,0.6-0.6c0-0.4-0.3-0.6-0.6-0.6c-0.4,0-0.6,0.3-0.6,0.6C232.7,33.7,233,34,233.3,34z"
			/>
		<path class="st0" d="M232.8,27.6c0,0.4,0.3,0.7,0.7,0.7c0.4,0,0.7-0.3,0.7-0.7c0-0.4-0.3-0.7-0.7-0.7
			C233.1,27,232.8,27.2,232.8,27.6z"/>
		<path class="st0" d="M235.9,22.4c-0.3,0-0.6,0.3-0.6,0.6c0,0.3,0.3,0.6,0.6,0.6c0.3,0,0.6-0.3,0.6-0.6
			C236.4,22.7,236.2,22.4,235.9,22.4z"/>
		<path class="st0" d="M236.8,31.8c0.3,0,0.5-0.2,0.5-0.5c0-0.3-0.2-0.5-0.5-0.5s-0.5,0.2-0.5,0.5C236.2,31.6,236.5,31.8,236.8,31.8
			z"/>
		<path class="st0" d="M236.8,24.8c-0.3,0-0.5,0.2-0.5,0.6c0,0.3,0.2,0.6,0.5,0.6s0.6-0.2,0.6-0.6C237.3,25,237.1,24.8,236.8,24.8z"
			/>
		<circle class="st0" cx="234.2" cy="24.2" r="0.6"/>
		<path class="st0" d="M234.5,26.5c0,0.3,0.3,0.6,0.6,0.6c0.3,0,0.6-0.3,0.6-0.6c0-0.3-0.3-0.6-0.6-0.6
			C234.8,25.9,234.5,26.2,234.5,26.5z"/>
		<path class="st0" d="M226.5,42.8c0-0.5-0.4-0.8-0.8-0.8c-0.5,0-0.8,0.4-0.8,0.8c0,0.5,0.4,0.8,0.8,0.8
			C226.1,43.6,226.5,43.2,226.5,42.8z"/>
		<path class="st0" d="M224.3,46.7c0.5,0,0.9-0.4,0.9-0.8s-0.4-0.8-0.9-0.8c-0.5,0-0.8,0.4-0.8,0.8
			C223.4,46.4,223.8,46.7,224.3,46.7z"/>
		<path class="st0" d="M224.3,40.6c0,0.5,0.4,0.9,0.9,0.9c0.5,0,0.9-0.4,0.9-0.9c0-0.5-0.4-0.9-0.9-0.9
			C224.7,39.7,224.3,40.1,224.3,40.6z"/>
		<path class="st0" d="M221.6,46.7c0,0.5,0.4,0.9,0.9,0.9c0.5,0,0.9-0.4,0.9-0.9c0-0.5-0.4-0.9-0.9-0.9
			C222,45.9,221.6,46.3,221.6,46.7z"/>
		<path class="st0" d="M223,43.7c0,0.5,0.4,0.9,0.9,0.9c0.5,0,0.9-0.4,0.9-0.9c0-0.5-0.4-0.9-0.9-0.9C223.4,42.8,223,43.2,223,43.7z
			"/>
		<path class="st0" d="M234.6,38.8c0.3,0,0.6-0.3,0.6-0.6c0-0.3-0.3-0.6-0.6-0.6c-0.3,0-0.6,0.3-0.6,0.6
			C234,38.5,234.3,38.8,234.6,38.8z"/>
		<path class="st0" d="M241.7,21.5c-0.2,0-0.4,0.2-0.4,0.4c0,0.2,0.2,0.4,0.4,0.4c0.2,0,0.4-0.2,0.4-0.4
			C242.1,21.6,241.9,21.5,241.7,21.5z"/>
		<circle class="st0" cx="241.9" cy="28.1" r="0.4"/>
		<path class="st0" d="M241,25.1c-0.2,0-0.4,0.2-0.4,0.4c0,0.2,0.2,0.4,0.4,0.4c0.2,0,0.4-0.2,0.4-0.4
			C241.4,25.3,241.2,25.1,241,25.1z"/>
		<path class="st0" d="M240.6,19c-0.2,0-0.4,0.2-0.4,0.4c0,0.2,0.2,0.4,0.4,0.4c0.2,0,0.4-0.2,0.4-0.4C241.1,19.1,240.9,19,240.6,19
			z"/>
		<path class="st0" d="M241.7,34.8c0.2,0,0.4-0.2,0.4-0.4s-0.2-0.4-0.4-0.4c-0.2,0-0.4,0.2-0.4,0.4
			C241.3,34.7,241.5,34.8,241.7,34.8z"/>
		<path class="st0" d="M241.4,31.8c0-0.2-0.2-0.4-0.4-0.4c-0.2,0-0.4,0.2-0.4,0.4c0,0.2,0.2,0.4,0.4,0.4
			C241.2,32.2,241.4,32,241.4,31.8z"/>
		<path class="st0" d="M238.2,36.8c0.3,0,0.5-0.2,0.5-0.5c0-0.3-0.2-0.5-0.5-0.5c-0.3,0-0.5,0.2-0.5,0.5S237.9,36.8,238.2,36.8z"/>
		<circle class="st0" cx="239.2" cy="32.8" r="0.4"/>
		<path class="st0" d="M240.6,38.5c0.2,0,0.4-0.2,0.4-0.4c0-0.2-0.2-0.4-0.4-0.4c-0.2,0-0.4,0.2-0.4,0.4
			C240.2,38.3,240.3,38.5,240.6,38.5z"/>
		<path class="st0" d="M239.9,35.9c0.2,0,0.4-0.2,0.4-0.4c0-0.2-0.2-0.4-0.4-0.4c-0.2,0-0.4,0.2-0.4,0.4
			C239.5,35.7,239.7,35.9,239.9,35.9z"/>
		<path class="st0" d="M239.6,23c0,0.2,0.2,0.4,0.4,0.4c0.2,0,0.4-0.2,0.4-0.4c0-0.2-0.2-0.4-0.4-0.4
			C239.8,22.6,239.6,22.8,239.6,23z"/>
		<circle class="st0" cx="238.8" cy="39" r="0.4"/>
		<path class="st0" d="M234.3,20.7c0,0.4,0.3,0.6,0.6,0.6c0.3,0,0.6-0.3,0.6-0.6c0-0.4-0.3-0.6-0.6-0.6
			C234.5,20.1,234.3,20.4,234.3,20.7z"/>
		<path class="st0" d="M223.3,59.3c-0.4,0-0.7,0.3-0.7,0.7c0,0.4,0.3,0.7,0.7,0.7c0.4,0,0.7-0.3,0.7-0.7
			C224,59.6,223.7,59.3,223.3,59.3z"/>
		<path class="st0" d="M232.6,22c0,0.4,0.3,0.7,0.7,0.7c0.4,0,0.7-0.3,0.7-0.7c0-0.4-0.3-0.7-0.7-0.7
			C232.9,21.3,232.6,21.6,232.6,22z"/>
		<circle class="st0" cx="233.9" cy="18.5" r="0.7"/>
		<path class="st0" d="M236.5,18.9c-0.3,0-0.6,0.3-0.6,0.6c0,0.3,0.3,0.6,0.6,0.6c0.3,0,0.6-0.3,0.6-0.6
			C237,19.2,236.8,18.9,236.5,18.9z"/>
		<path class="st0" d="M236.9,21.8c0,0.3,0.2,0.5,0.5,0.5c0.3,0,0.5-0.2,0.5-0.5c0-0.3-0.2-0.5-0.5-0.5
			C237.2,21.3,236.9,21.5,236.9,21.8z"/>
		<path class="st0" d="M239.6,16.5c-0.3,0-0.5,0.2-0.5,0.5c0,0.3,0.2,0.5,0.5,0.5s0.5-0.2,0.5-0.5C240.1,16.7,239.9,16.5,239.6,16.5
			z"/>
		<path class="st0" d="M237.9,24.2c0,0.3,0.2,0.5,0.5,0.5c0.3,0,0.5-0.2,0.5-0.5c0-0.3-0.2-0.5-0.5-0.5
			C238.1,23.7,237.9,23.9,237.9,24.2z"/>
		<path class="st0" d="M238.6,20.6c0,0.3,0.2,0.5,0.5,0.5c0.3,0,0.5-0.2,0.5-0.5s-0.2-0.5-0.5-0.5C238.8,20.1,238.6,20.3,238.6,20.6
			z"/>
		<path class="st0" d="M238,17.7c-0.3,0-0.5,0.2-0.5,0.5c0,0.3,0.2,0.5,0.5,0.5c0.3,0,0.5-0.2,0.5-0.5C238.6,18,238.3,17.7,238,17.7
			z"/>
		<path class="st0" d="M235.4,16.6c-0.3,0-0.6,0.3-0.6,0.6s0.3,0.6,0.6,0.6c0.4,0,0.6-0.3,0.6-0.6S235.8,16.6,235.4,16.6z"/>
		<path class="st0" d="M229.7,44c0.4,0,0.7-0.3,0.7-0.7c0-0.4-0.3-0.7-0.7-0.7c-0.4,0-0.7,0.3-0.7,0.7C229,43.7,229.3,44,229.7,44z"
			/>
		<path class="st0" d="M225.2,55.7c0.4,0,0.7-0.3,0.7-0.7c0-0.4-0.3-0.7-0.7-0.7c-0.4,0-0.7,0.3-0.7,0.7
			C224.4,55.3,224.8,55.7,225.2,55.7z"/>
		<path class="st0" d="M229.2,41.7c0.4,0,0.7-0.3,0.7-0.7c0-0.4-0.3-0.7-0.7-0.7c-0.4,0-0.7,0.3-0.7,0.7
			C228.5,41.4,228.8,41.7,229.2,41.7z"/>
		<path class="st0" d="M238,33.8c0-0.3-0.2-0.5-0.5-0.5c-0.3,0-0.5,0.2-0.5,0.5c0,0.3,0.2,0.5,0.5,0.5C237.8,34.3,238,34.1,238,33.8
			z"/>
		<path class="st0" d="M225.1,53.4c0.4,0,0.8-0.3,0.8-0.8c0-0.4-0.3-0.8-0.8-0.8c-0.4,0-0.8,0.3-0.8,0.8
			C224.3,53.1,224.6,53.4,225.1,53.4z"/>
		<path class="st0" d="M227.2,47.3c0-0.4-0.3-0.8-0.8-0.8s-0.8,0.4-0.8,0.8c0,0.4,0.3,0.8,0.8,0.8S227.2,47.7,227.2,47.3z"/>
		<path class="st0" d="M223.3,57.1c-0.4,0-0.7,0.3-0.7,0.7c0,0.4,0.3,0.7,0.7,0.7c0.4,0,0.7-0.3,0.7-0.7
			C224.1,57.4,223.7,57.1,223.3,57.1z"/>
		<path class="st0" d="M223.2,61.6c-0.4,0-0.7,0.3-0.7,0.7c0,0.4,0.3,0.7,0.7,0.7c0.4,0,0.7-0.3,0.7-0.7
			C223.9,61.9,223.6,61.6,223.2,61.6z"/>
		<path class="st0" d="M224.9,51.2c0.4,0,0.8-0.4,0.8-0.8c0-0.4-0.4-0.8-0.8-0.8c-0.4,0-0.8,0.4-0.8,0.8S224.4,51.2,224.9,51.2z"/>
		<path class="st0" d="M225.4,48.1c0-0.5-0.4-0.8-0.8-0.8c-0.5,0-0.8,0.4-0.8,0.8s0.4,0.8,0.8,0.8C225,48.9,225.4,48.6,225.4,48.1z"
			/>
		<path class="st0" d="M228.6,44.2c0-0.4-0.3-0.8-0.8-0.8c-0.4,0-0.7,0.3-0.7,0.8s0.3,0.8,0.7,0.8C228.3,44.9,228.6,44.6,228.6,44.2
			z"/>
		<circle class="st0" cx="235.1" cy="40.7" r="0.5"/>
		<circle class="st0" cx="235.7" cy="34.8" r="0.6"/>
		<path class="st0" d="M231,40.7c0.4,0,0.7-0.3,0.7-0.7c0-0.4-0.3-0.7-0.7-0.7c-0.4,0-0.7,0.3-0.7,0.7
			C230.3,40.4,230.6,40.7,231,40.7z"/>
		<path class="st0" d="M236.9,40.4c0.3,0,0.5-0.2,0.5-0.5c0-0.3-0.2-0.5-0.5-0.5s-0.5,0.2-0.5,0.5C236.5,40.1,236.7,40.4,236.9,40.4
			z"/>
		<path class="st0" d="M236.4,37.8c0.3,0,0.5-0.2,0.5-0.5c0-0.3-0.2-0.5-0.5-0.5c-0.3,0-0.5,0.2-0.5,0.5
			C235.9,37.6,236.1,37.8,236.4,37.8z"/>
		<path class="st0" d="M226.4,38.2c0.5,0,0.9-0.4,0.9-0.8c0-0.5-0.4-0.8-0.9-0.8c-0.5,0-0.8,0.4-0.8,0.8
			C225.5,37.9,225.9,38.2,226.4,38.2z"/>
		<path class="st0" d="M232.9,36.7c0-0.4-0.3-0.7-0.7-0.7c-0.4,0-0.7,0.3-0.7,0.7c0,0.4,0.3,0.7,0.7,0.7
			C232.6,37.4,232.9,37.1,232.9,36.7z"/>
		<path class="st0" d="M232.8,39.8c0.4,0,0.6-0.3,0.6-0.6c0-0.4-0.3-0.6-0.6-0.6c-0.3,0-0.6,0.3-0.6,0.6
			C232.2,39.5,232.5,39.8,232.8,39.8z"/>
		<path class="st0" d="M233.3,42.2c0.3,0,0.6-0.3,0.6-0.6c0-0.3-0.3-0.6-0.6-0.6c-0.3,0-0.6,0.3-0.6,0.6
			C232.7,41.9,233,42.2,233.3,42.2z"/>
		<path class="st0" d="M234.6,35.8c0-0.3-0.3-0.6-0.6-0.6s-0.6,0.3-0.6,0.6c0,0.3,0.3,0.6,0.6,0.6S234.6,36.1,234.6,35.8z"/>
		<circle class="st0" cx="228.8" cy="51.3" r="0.7"/>
		<path class="st0" d="M211,72.1c0-0.4-0.3-0.7-0.7-0.7s-0.7,0.3-0.7,0.7c0,0.4,0.3,0.7,0.7,0.7S211,72.5,211,72.1z"/>
		<path class="st0" d="M209.8,70.4c0,0.4,0.4,0.8,0.8,0.8c0.4,0,0.8-0.4,0.8-0.8c0-0.4-0.4-0.8-0.8-0.8
			C210.2,69.6,209.8,70,209.8,70.4z"/>
		<path class="st0" d="M207.9,75.3c0-0.3-0.3-0.6-0.6-0.6c-0.3,0-0.6,0.3-0.6,0.6c0,0.3,0.3,0.6,0.6,0.6
			C207.7,75.9,207.9,75.6,207.9,75.3z"/>
		<path class="st0" d="M211.8,68.7c0-0.5-0.4-0.8-0.9-0.8c-0.5,0-0.8,0.4-0.8,0.8c0,0.5,0.4,0.9,0.8,0.9
			C211.4,69.6,211.8,69.2,211.8,68.7z"/>
		<path class="st0" d="M210.5,73.7c0-0.4-0.3-0.7-0.6-0.7c-0.4,0-0.6,0.3-0.6,0.7c0,0.4,0.3,0.6,0.6,0.6
			C210.2,74.4,210.5,74.1,210.5,73.7z"/>
		<circle class="st0" cx="210.9" cy="76.7" r="0.4"/>
		<circle class="st0" cx="207.8" cy="73.8" r="0.7"/>
		<path class="st0" d="M224.9,35.2c0,0.5,0.4,0.9,0.9,0.9c0.5,0,0.9-0.4,0.9-0.9c0-0.5-0.4-0.9-0.9-0.9S224.9,34.7,224.9,35.2z"/>
		<path class="st0" d="M208.9,77.1c0.2,0,0.4-0.2,0.4-0.4c0-0.2-0.2-0.4-0.4-0.4c-0.2,0-0.4,0.2-0.4,0.4
			C208.4,76.9,208.6,77.1,208.9,77.1z"/>
		<circle class="st0" cx="208.2" cy="72.3" r="0.8"/>
		<path class="st0" d="M209.9,75.3c0-0.3-0.2-0.5-0.5-0.5s-0.5,0.2-0.5,0.5c0,0.3,0.2,0.5,0.5,0.5C209.6,75.8,209.9,75.5,209.9,75.3
			z"/>
		<path class="st0" d="M211.8,75.2c0-0.2-0.2-0.4-0.4-0.4c-0.2,0-0.4,0.2-0.4,0.4c0,0.2,0.2,0.4,0.4,0.4
			C211.6,75.6,211.8,75.4,211.8,75.2z"/>
		<path class="st0" d="M242.7,30.5c-0.2,0-0.3,0.2-0.3,0.3c0,0.2,0.2,0.3,0.3,0.3c0.2,0,0.3-0.1,0.3-0.3
			C243,30.6,242.9,30.5,242.7,30.5z"/>
		<path class="st0" d="M242,37.2c0,0.2,0.1,0.3,0.3,0.3c0.2,0,0.3-0.1,0.3-0.3c0-0.2-0.1-0.3-0.3-0.3C242.2,36.9,242,37,242,37.2z"
			/>
		<path class="st0" d="M230.9,52.4c-0.3,0-0.6,0.3-0.6,0.6c0,0.3,0.3,0.6,0.6,0.6c0.3,0,0.6-0.3,0.6-0.6
			C231.5,52.7,231.2,52.4,230.9,52.4z"/>
		<path class="st0" d="M232.4,54.9c0,0.3,0.2,0.5,0.5,0.5c0.3,0,0.5-0.2,0.5-0.5c0-0.3-0.2-0.5-0.5-0.5S232.4,54.6,232.4,54.9z"/>
		<path class="st0" d="M232.8,51.9c-0.3,0-0.5,0.2-0.5,0.5c0,0.3,0.2,0.5,0.5,0.5c0.3,0,0.5-0.2,0.5-0.5
			C233.3,52.1,233.1,51.9,232.8,51.9z"/>
		<path class="st0" d="M212.9,71.9c0-0.4-0.3-0.7-0.7-0.7c-0.4,0-0.7,0.3-0.7,0.7c0,0.4,0.3,0.7,0.7,0.7
			C212.6,72.6,212.9,72.3,212.9,71.9z"/>
		<path class="st0" d="M212.4,73.6c0-0.3-0.3-0.6-0.6-0.6c-0.3,0-0.6,0.3-0.6,0.6c0,0.3,0.3,0.6,0.6,0.6
			C212.1,74.2,212.4,73.9,212.4,73.6z"/>
		<path class="st0" d="M243.9,27c0-0.2-0.1-0.3-0.3-0.3s-0.3,0.1-0.3,0.3c0,0.2,0.1,0.3,0.3,0.3S243.9,27.2,243.9,27z"/>
		<circle class="st0" cx="243.3" cy="20.7" r="0.3"/>
		<path class="st0" d="M243.1,33.5c0,0.2,0.1,0.3,0.3,0.3c0.2,0,0.3-0.1,0.3-0.3c0-0.2-0.1-0.3-0.3-0.3
			C243.3,33.2,243.1,33.4,243.1,33.5z"/>
		<path class="st0" d="M242.6,24.1c-0.2,0-0.4,0.2-0.4,0.3c0,0.2,0.2,0.3,0.4,0.3c0.2,0,0.3-0.2,0.3-0.3
			C243,24.2,242.8,24.1,242.6,24.1z"/>
		<path class="st0" d="M245.6,45c0,0.1,0.1,0.2,0.2,0.2s0.2-0.1,0.2-0.2c0-0.1-0.1-0.2-0.2-0.2C245.6,44.8,245.6,44.9,245.6,45z"/>
		<path class="st0" d="M246.6,38.1c-0.1,0-0.2,0.1-0.2,0.2c0,0.1,0.1,0.2,0.2,0.2c0.1,0,0.2-0.1,0.2-0.2
			C246.7,38.2,246.6,38.1,246.6,38.1z"/>
		<path class="st0" d="M247,24.8c0-0.1-0.1-0.1-0.1-0.1c-0.1,0-0.1,0.1-0.1,0.1c0,0.1,0.1,0.1,0.1,0.1C246.9,24.9,247,24.9,247,24.8
			z"/>
		<path class="st0" d="M238.8,55.6c-0.2,0-0.3,0.1-0.3,0.3c0,0.2,0.1,0.3,0.3,0.3c0.2,0,0.3-0.1,0.3-0.3
			C239.1,55.8,239,55.6,238.8,55.6z"/>
		<path class="st0" d="M246.4,18.3c0.1,0,0.2-0.1,0.2-0.2c0-0.1-0.1-0.2-0.2-0.2c-0.1,0-0.2,0.1-0.2,0.2
			C246.2,18.3,246.3,18.3,246.4,18.3z"/>
		<path class="st0" d="M246.8,14.4c0.1,0,0.2-0.1,0.2-0.2c0-0.1-0.1-0.2-0.2-0.2c-0.1,0-0.2,0.1-0.2,0.2
			C246.6,14.3,246.7,14.4,246.8,14.4z"/>
		<path class="st0" d="M247.2,6.2c-0.1,0-0.2,0.1-0.2,0.2s0.1,0.2,0.2,0.2c0.1,0,0.2-0.1,0.2-0.2C247.4,6.3,247.3,6.2,247.2,6.2z"/>
		<path class="st0" d="M247.2,2.8c0.1,0,0.2-0.1,0.2-0.2c0-0.1-0.1-0.2-0.2-0.2c-0.1,0-0.2,0.1-0.2,0.2C247,2.7,247.1,2.8,247.2,2.8
			z"/>
		<path class="st0" d="M247.1,10.5c0.1,0,0.2-0.1,0.2-0.2c0-0.1-0.1-0.2-0.2-0.2c-0.1,0-0.2,0.1-0.2,0.2
			C246.9,10.4,247,10.5,247.1,10.5z"/>
		<path class="st0" d="M246.9,31.7c0.1,0,0.2-0.1,0.2-0.2c0-0.1-0.1-0.2-0.2-0.2c-0.1,0-0.2,0.1-0.2,0.2
			C246.8,31.6,246.8,31.7,246.9,31.7z"/>
		<path class="st0" d="M246.1,35.4c0-0.1-0.1-0.2-0.2-0.2c-0.1,0-0.2,0.1-0.2,0.2c0,0.1,0.1,0.2,0.2,0.2
			C246,35.6,246.1,35.5,246.1,35.4z"/>
		<path class="st0" d="M240.7,55.2c-0.1,0-0.2,0.1-0.2,0.2c0,0.1,0.1,0.2,0.2,0.2c0.1,0,0.2-0.1,0.2-0.2
			C241,55.3,240.9,55.2,240.7,55.2z"/>
		<circle class="st0" cx="240.8" cy="58.2" r="0.2"/>
		<path class="st0" d="M238.6,61.3c0,0.1,0.1,0.2,0.2,0.2s0.2-0.1,0.2-0.2c0-0.1-0.1-0.2-0.2-0.2C238.7,61.2,238.6,61.3,238.6,61.3z
			"/>
		<circle class="st0" cx="238.8" cy="58.6" r="0.2"/>
		<path class="st0" d="M245.3,15.8c0.1,0,0.3-0.1,0.3-0.3s-0.1-0.2-0.3-0.2c-0.1,0-0.3,0.1-0.3,0.2S245.2,15.8,245.3,15.8z"/>
		<path class="st0" d="M245.9,22.3c0.1,0,0.2-0.1,0.2-0.2c0-0.1-0.1-0.2-0.2-0.2c-0.1,0-0.2,0.1-0.2,0.2
			C245.7,22.2,245.8,22.3,245.9,22.3z"/>
		<path class="st0" d="M245.9,4.2c0.1,0,0.2-0.1,0.2-0.2c0-0.1-0.1-0.2-0.2-0.2c-0.1,0-0.2,0.1-0.2,0.2
			C245.7,4.2,245.8,4.2,245.9,4.2z"/>
		<path class="st0" d="M246.3,28.7c0-0.1-0.1-0.2-0.2-0.2c-0.1,0-0.2,0.1-0.2,0.2c0,0.1,0.1,0.2,0.2,0.2
			C246.2,28.9,246.3,28.8,246.3,28.7z"/>
		<path class="st0" d="M245.8,8.1c0.1,0,0.2-0.1,0.2-0.2c0-0.1-0.1-0.2-0.2-0.2c-0.1,0-0.2,0.1-0.2,0.2C245.6,8,245.7,8.1,245.8,8.1
			z"/>
		<path class="st0" d="M245.6,12c0.1,0,0.2-0.1,0.2-0.2c0-0.1-0.1-0.2-0.2-0.2c-0.1,0-0.2,0.1-0.2,0.2C245.4,11.8,245.5,12,245.6,12
			z"/>
		<circle class="st0" cx="206.9" cy="76.7" r="0.5"/>
		<path class="st0" d="M238.5,29.8c-0.3,0-0.5,0.2-0.5,0.5c0,0.3,0.2,0.5,0.5,0.5c0.3,0,0.5-0.2,0.5-0.5
			C238.9,30,238.7,29.8,238.5,29.8z"/>
		<path class="st0" d="M240.2,29.6c0.2,0,0.4-0.2,0.4-0.4c0-0.2-0.2-0.4-0.4-0.4c-0.2,0-0.4,0.2-0.4,0.4
			C239.7,29.4,239.9,29.6,240.2,29.6z"/>
		<path class="st0" d="M223.6,48.9c0-0.5-0.4-0.9-0.9-0.9c-0.5,0-0.9,0.4-0.9,0.9c0,0.5,0.4,0.9,0.9,0.9
			C223.2,49.8,223.6,49.4,223.6,48.9z"/>
		<path class="st0" d="M220.1,63.2c0-0.4-0.3-0.8-0.8-0.8c-0.4,0-0.8,0.3-0.8,0.8c0,0.4,0.3,0.8,0.8,0.8
			C219.7,64,220.1,63.6,220.1,63.2z"/>
		<path class="st0" d="M237.7,27.3c-0.3,0-0.5,0.2-0.5,0.5s0.2,0.5,0.5,0.5s0.5-0.2,0.5-0.5S237.9,27.3,237.7,27.3z"/>
		<path class="st0" d="M219.5,56c-0.5,0-0.9,0.4-0.9,0.9c0,0.5,0.4,0.9,0.9,0.9c0.5,0,0.9-0.4,0.9-0.9C220.4,56.4,220,56,219.5,56z"
			/>
		<circle class="st0" cx="219.4" cy="61.1" r="0.8"/>
		<path class="st0" d="M221.2,52.8c0.5,0,0.9-0.4,0.9-0.9c0-0.5-0.4-0.9-0.9-0.9s-0.9,0.4-0.9,0.9C220.3,52.4,220.7,52.8,221.2,52.8
			z"/>
		<circle class="st0" cx="219.4" cy="54.8" r="0.9"/>
		<path class="st0" d="M219.5,58.2c-0.5,0-0.8,0.4-0.8,0.8c0,0.5,0.4,0.8,0.8,0.8c0.5,0,0.8-0.4,0.8-0.8
			C220.3,58.6,220,58.2,219.5,58.2z"/>
		<path class="st0" d="M221.3,53.2c-0.5,0-0.9,0.4-0.9,0.8c0,0.5,0.4,0.9,0.9,0.9c0.5,0,0.8-0.4,0.8-0.9
			C222.2,53.6,221.8,53.2,221.3,53.2z"/>
		<path class="st0" d="M239.3,26.2c-0.3,0-0.5,0.2-0.5,0.5c0,0.3,0.2,0.5,0.5,0.5c0.3,0,0.5-0.2,0.5-0.5
			C239.8,26.4,239.6,26.2,239.3,26.2z"/>
		<path class="st0" d="M230.1,29.1c-0.4,0-0.8,0.3-0.8,0.8c0,0.4,0.3,0.8,0.8,0.8c0.4,0,0.8-0.3,0.8-0.8
			C230.9,29.4,230.6,29.1,230.1,29.1z"/>
		<path class="st0" d="M230,33.1c0-0.4-0.3-0.8-0.8-0.8c-0.4,0-0.8,0.3-0.8,0.8c0,0.4,0.3,0.8,0.8,0.8C229.6,33.9,230,33.6,230,33.1
			z"/>
		<path class="st0" d="M229.3,26.9c-0.4,0-0.8,0.4-0.8,0.8c0,0.4,0.4,0.8,0.8,0.8c0.4,0,0.8-0.4,0.8-0.8
			C230.1,27.2,229.8,26.9,229.3,26.9z"/>
		<path class="st0" d="M227.7,27.9c-0.5,0-0.9,0.4-0.9,0.9c0,0.5,0.4,0.9,0.9,0.9s0.8-0.4,0.8-0.9C228.5,28.3,228.1,27.9,227.7,27.9
			z"/>
		<path class="st0" d="M225.9,32c0,0.5,0.4,0.9,0.9,0.9c0.5,0,0.9-0.4,0.9-0.9c0-0.5-0.4-0.9-0.9-0.9
			C226.3,31.2,225.9,31.6,225.9,32z"/>
		<path class="st0" d="M229.3,30.9c0-0.4-0.4-0.8-0.8-0.8s-0.8,0.4-0.8,0.8c0,0.5,0.4,0.8,0.8,0.8S229.3,31.4,229.3,30.9z"/>
		<circle class="st0" cx="230.9" cy="32.1" r="0.7"/>
		<path class="st0" d="M226.6,34.2c0,0.5,0.4,0.8,0.8,0.8c0.5,0,0.8-0.4,0.8-0.8c0-0.5-0.4-0.8-0.8-0.8
			C227,33.4,226.6,33.7,226.6,34.2z"/>
		<path class="st0" d="M228.9,36.4c0-0.4-0.4-0.8-0.8-0.8c-0.4,0-0.8,0.4-0.8,0.8c0,0.4,0.4,0.8,0.8,0.8
			C228.6,37.2,228.9,36.8,228.9,36.4z"/>
		<path class="st0" d="M226.9,38.8c-0.5,0-0.8,0.4-0.8,0.8c0,0.4,0.4,0.8,0.8,0.8c0.4,0,0.8-0.4,0.8-0.8
			C227.8,39.2,227.4,38.8,226.9,38.8z"/>
		<path class="st0" d="M226.7,48.9c-0.4,0-0.7,0.3-0.7,0.7c0,0.4,0.3,0.7,0.7,0.7c0.4,0,0.7-0.3,0.7-0.7
			C227.5,49.2,227.1,48.9,226.7,48.9z"/>
		<circle class="st0" cx="214.9" cy="68" r="0.8"/>
		<path class="st0" d="M230.5,55.5c0,0.3,0.2,0.5,0.5,0.5c0.3,0,0.5-0.2,0.5-0.5c0-0.3-0.2-0.5-0.5-0.5
			C230.7,54.9,230.5,55.2,230.5,55.5z"/>
		<path class="st0" d="M225.2,56.5c-0.4,0-0.7,0.3-0.7,0.7c0,0.4,0.3,0.7,0.7,0.7c0.4,0,0.7-0.3,0.7-0.7
			C225.9,56.8,225.6,56.5,225.2,56.5z"/>
		<circle class="st0" cx="225.2" cy="59.5" r="0.7"/>
		<path class="st0" d="M226.9,51.2c-0.4,0-0.7,0.3-0.7,0.7c0,0.4,0.3,0.7,0.7,0.7s0.7-0.3,0.7-0.7C227.6,51.6,227.3,51.2,226.9,51.2
			z"/>
		<circle class="st0" cx="227.1" cy="54.3" r="0.7"/>
		<path class="st0" d="M232.2,42.5c0-0.4-0.3-0.7-0.7-0.7c-0.4,0-0.6,0.3-0.6,0.7c0,0.4,0.3,0.7,0.6,0.7
			C231.9,43.1,232.2,42.8,232.2,42.5z"/>
		<path class="st0" d="M228.3,53.7c0,0.3,0.3,0.6,0.6,0.6c0.4,0,0.6-0.3,0.6-0.6c0-0.4-0.3-0.6-0.6-0.6
			C228.6,53,228.3,53.3,228.3,53.7z"/>
		<path class="st0" d="M230.7,49.9c-0.3,0-0.6,0.3-0.6,0.6c0,0.3,0.3,0.6,0.6,0.6s0.6-0.3,0.6-0.6C231.3,50.2,231,49.9,230.7,49.9z"
			/>
		<path class="st0" d="M232.3,19.1c-0.4,0-0.7,0.3-0.7,0.7c0,0.4,0.3,0.7,0.7,0.7c0.4,0,0.7-0.3,0.7-0.7S232.7,19.1,232.3,19.1z"/>
		<path class="st0" d="M217.5,60.8c-0.5,0-0.8,0.4-0.8,0.8c0,0.5,0.4,0.8,0.8,0.8c0.5,0,0.8-0.4,0.8-0.8
			C218.4,61.2,218,60.8,217.5,60.8z"/>
		<circle class="st0" cx="217.6" cy="57.6" r="0.9"/>
		<path class="st0" d="M219.8,65.3c0-0.4-0.3-0.7-0.7-0.7s-0.7,0.3-0.7,0.7c0,0.4,0.3,0.7,0.7,0.7S219.8,65.7,219.8,65.3z"/>
		<path class="st0" d="M218.9,68c0.4,0,0.7-0.3,0.7-0.7s-0.3-0.7-0.7-0.7c-0.4,0-0.7,0.3-0.7,0.7C218.2,67.7,218.5,68,218.9,68z"/>
		<path class="st0" d="M218.2,63.7c0-0.4-0.4-0.8-0.8-0.8c-0.4,0-0.8,0.4-0.8,0.8c0,0.4,0.4,0.8,0.8,0.8
			C217.8,64.5,218.2,64.2,218.2,63.7z"/>
		<path class="st0" d="M213.9,69.9c0,0.4,0.3,0.7,0.7,0.7c0.4,0,0.7-0.3,0.7-0.7c0-0.4-0.3-0.7-0.7-0.7
			C214.2,69.2,213.9,69.5,213.9,69.9z"/>
		<path class="st0" d="M217.6,58.7c-0.5,0-0.9,0.4-0.9,0.9c0,0.5,0.4,0.9,0.9,0.9c0.5,0,0.9-0.4,0.9-0.9
			C218.5,59.1,218.1,58.7,217.6,58.7z"/>
		<path class="st0" d="M216.3,64.2c0-0.5-0.4-0.8-0.9-0.8c-0.5,0-0.8,0.4-0.8,0.8c0,0.5,0.4,0.8,0.8,0.8
			C215.9,65,216.3,64.7,216.3,64.2z"/>
		<path class="st0" d="M216,66.1c0-0.4-0.4-0.8-0.8-0.8c-0.4,0-0.8,0.4-0.8,0.8c0,0.5,0.4,0.8,0.8,0.8C215.7,66.9,216,66.6,216,66.1
			z"/>
		<path class="st0" d="M216.9,68.4c0.4,0,0.7-0.3,0.7-0.7c0-0.4-0.3-0.7-0.7-0.7s-0.7,0.3-0.7,0.7C216.2,68.1,216.5,68.4,216.9,68.4
			z"/>
		<path class="st0" d="M217.9,65.7c0-0.4-0.3-0.8-0.8-0.8c-0.4,0-0.8,0.3-0.8,0.8s0.3,0.8,0.8,0.8C217.6,66.5,217.9,66.1,217.9,65.7
			z"/>
		<path class="st0" d="M211.9,70.2c0,0.4,0.3,0.8,0.8,0.8c0.4,0,0.8-0.3,0.8-0.8c0-0.4-0.3-0.8-0.8-0.8S211.9,69.8,211.9,70.2z"/>
		<path class="st0" d="M239.7,44.7c0.2,0,0.4-0.2,0.4-0.4c0-0.2-0.2-0.4-0.4-0.4s-0.4,0.2-0.4,0.4C239.4,44.6,239.5,44.7,239.7,44.7
			z"/>
		<path class="st0" d="M238.2,48.2c0.2,0,0.4-0.2,0.4-0.4s-0.2-0.4-0.4-0.4c-0.2,0-0.4,0.2-0.4,0.4S238,48.2,238.2,48.2z"/>
		<circle class="st0" cx="239.3" cy="41.7" r="0.4"/>
		<path class="st0" d="M237.9,45.6c0.2,0,0.4-0.2,0.4-0.4c0-0.2-0.2-0.4-0.4-0.4c-0.2,0-0.4,0.2-0.4,0.4
			C237.4,45.4,237.6,45.6,237.9,45.6z"/>
		<path class="st0" d="M238.7,53.5c0.2,0,0.3-0.2,0.3-0.3c0-0.2-0.1-0.3-0.3-0.3c-0.2,0-0.3,0.1-0.3,0.3
			C238.4,53.4,238.5,53.5,238.7,53.5z"/>
		<circle class="st0" cx="238.5" cy="50.5" r="0.4"/>
		<path class="st0" d="M237.9,42.5c0-0.2-0.2-0.5-0.5-0.5s-0.5,0.2-0.5,0.5c0,0.3,0.2,0.5,0.5,0.5S237.9,42.7,237.9,42.5z"/>
		<path class="st0" d="M237.2,59.1c0-0.2-0.1-0.3-0.3-0.3c-0.2,0-0.3,0.1-0.3,0.3c0,0.2,0.1,0.3,0.3,0.3
			C237,59.4,237.2,59.3,237.2,59.1z"/>
		<path class="st0" d="M236.7,64.2c-0.1,0-0.2,0.1-0.2,0.2c0,0.1,0.1,0.2,0.2,0.2c0.1,0,0.2-0.1,0.2-0.2
			C236.8,64.3,236.8,64.2,236.7,64.2z"/>
		<path class="st0" d="M236.9,56.1c-0.2,0-0.3,0.2-0.3,0.3c0,0.2,0.2,0.3,0.3,0.3s0.3-0.2,0.3-0.3C237.2,56.2,237,56.1,236.9,56.1z"
			/>
		<path class="st0" d="M242.3,49.5c0.1,0,0.2-0.1,0.2-0.2c0-0.1-0.1-0.3-0.2-0.3c-0.1,0-0.3,0.1-0.3,0.3
			C242.1,49.4,242.2,49.5,242.3,49.5z"/>
		<path class="st0" d="M237.1,61.7c0-0.1-0.1-0.3-0.3-0.3c-0.1,0-0.3,0.1-0.3,0.3c0,0.1,0.1,0.3,0.3,0.3
			C237,62,237.1,61.9,237.1,61.7z"/>
		<path class="st0" d="M243.4,43.1c0.1,0,0.3-0.1,0.3-0.3c0-0.1-0.1-0.3-0.3-0.3c-0.1,0-0.3,0.1-0.3,0.3
			C243.2,43,243.3,43.1,243.4,43.1z"/>
		<path class="st0" d="M243.2,40c0-0.2-0.1-0.3-0.3-0.3c-0.2,0-0.3,0.1-0.3,0.3c0,0.2,0.1,0.3,0.3,0.3
			C243.1,40.3,243.2,40.2,243.2,40z"/>
		<path class="st0" d="M242,46.7c0.2,0,0.3-0.1,0.3-0.3c0-0.2-0.1-0.3-0.3-0.3c-0.2,0-0.3,0.1-0.3,0.3
			C241.7,46.6,241.8,46.7,242,46.7z"/>
		<path class="st0" d="M242.7,55.1c0.1,0,0.2-0.1,0.2-0.2c0-0.1-0.1-0.2-0.2-0.2c-0.1,0-0.2,0.1-0.2,0.2
			C242.5,55,242.6,55.1,242.7,55.1z"/>
		<circle class="st0" cx="240.1" cy="47.1" r="0.3"/>
		<path class="st0" d="M240.6,52.9c0.2,0,0.3-0.1,0.3-0.3c0-0.2-0.1-0.3-0.3-0.3c-0.2,0-0.3,0.1-0.3,0.3
			C240.3,52.8,240.5,52.9,240.6,52.9z"/>
		<path class="st0" d="M240.4,50.2c0.2,0,0.3-0.1,0.3-0.3c0-0.2-0.1-0.3-0.3-0.3c-0.2,0-0.3,0.1-0.3,0.3
			C240.1,50,240.2,50.2,240.4,50.2z"/>
		<path class="st0" d="M241.5,40.8c0-0.2-0.2-0.4-0.3-0.4c-0.2,0-0.4,0.2-0.4,0.4c0,0.2,0.2,0.3,0.4,0.3
			C241.3,41.2,241.5,41,241.5,40.8z"/>
		<circle class="st0" cx="241.6" cy="43.6" r="0.3"/>
		<path class="st0" d="M242.5,52.3c0.1,0,0.2-0.1,0.2-0.2c0-0.1-0.1-0.2-0.2-0.2c-0.1,0-0.2,0.1-0.2,0.2
			C242.3,52.2,242.4,52.3,242.5,52.3z"/>
		<path class="st0" d="M234.2,47.2c0.3,0,0.5-0.2,0.5-0.5c0-0.3-0.2-0.5-0.5-0.5c-0.3,0-0.5,0.2-0.5,0.5
			C233.6,46.9,233.9,47.2,234.2,47.2z"/>
		<path class="st0" d="M234.3,44.1c0-0.3-0.3-0.6-0.6-0.6c-0.3,0-0.6,0.3-0.6,0.6c0,0.3,0.3,0.6,0.6,0.6
			C234.1,44.7,234.3,44.4,234.3,44.1z"/>
		<path class="st0" d="M234.5,49.7c0.3,0,0.5-0.2,0.5-0.5c0-0.3-0.2-0.5-0.5-0.5c-0.3,0-0.5,0.2-0.5,0.5
			C234,49.5,234.2,49.7,234.5,49.7z"/>
		<circle class="st0" cx="234.7" cy="51.8" r="0.5"/>
		<path class="st0" d="M233,57c-0.3,0-0.5,0.2-0.5,0.5c0,0.2,0.2,0.5,0.5,0.5c0.3,0,0.5-0.2,0.5-0.5C233.4,57.2,233.2,57,233,57z"/>
		<path class="st0" d="M236.8,54.2c0.2,0,0.4-0.2,0.4-0.4c0-0.2-0.2-0.4-0.4-0.4s-0.4,0.2-0.4,0.4C236.4,54,236.6,54.2,236.8,54.2z"
			/>
		<path class="st0" d="M233,65c0-0.2-0.1-0.3-0.3-0.3c-0.2,0-0.3,0.1-0.3,0.3c0,0.2,0.1,0.3,0.3,0.3C232.9,65.3,233,65.1,233,65z"/>
		<path class="st0" d="M234.4,54.3c0,0.2,0.2,0.4,0.4,0.4c0.2,0,0.4-0.2,0.4-0.4c0-0.2-0.2-0.4-0.4-0.4
			C234.6,53.9,234.4,54.1,234.4,54.3z"/>
		<path class="st0" d="M232.5,67.7c0.1,0,0.2-0.1,0.2-0.2c0-0.1-0.1-0.2-0.2-0.2c-0.1,0-0.2,0.1-0.2,0.2
			C232.3,67.6,232.4,67.7,232.5,67.7z"/>
		<path class="st0" d="M233.2,62.5c0-0.2-0.2-0.4-0.4-0.4c-0.2,0-0.4,0.2-0.4,0.4c0,0.2,0.2,0.4,0.4,0.4
			C233.1,62.8,233.2,62.7,233.2,62.5z"/>
		<circle class="st0" cx="233" cy="60" r="0.4"/>
		<path class="st0" d="M236.1,43.3c0-0.3-0.2-0.5-0.5-0.5c-0.3,0-0.5,0.2-0.5,0.5c0,0.3,0.2,0.5,0.5,0.5
			C235.9,43.8,236.1,43.6,236.1,43.3z"/>
		<path class="st0" d="M236.3,48.9c0.2,0,0.4-0.2,0.4-0.5c0-0.2-0.2-0.5-0.4-0.5c-0.3,0-0.5,0.2-0.5,0.5
			C235.9,48.7,236.1,48.9,236.3,48.9z"/>
		<circle class="st0" cx="236" cy="45.9" r="0.5"/>
		<circle class="st0" cx="236.6" cy="51.1" r="0.4"/>
		<circle class="st0" cx="234.5" cy="67.2" r="0.2"/>
		<path class="st0" d="M235.1,62.1c0-0.2-0.1-0.3-0.3-0.3c-0.2,0-0.3,0.1-0.3,0.3c0,0.2,0.1,0.3,0.3,0.3
			C235,62.4,235.1,62.3,235.1,62.1z"/>
		<path class="st0" d="M234.9,64.7c0-0.1-0.1-0.2-0.2-0.2s-0.2,0.1-0.2,0.2c0,0.1,0.1,0.3,0.2,0.3S234.9,64.8,234.9,64.7z"/>
		<path class="st0" d="M235.3,59.5c0-0.2-0.2-0.4-0.4-0.4s-0.4,0.2-0.4,0.4c0,0.2,0.2,0.4,0.4,0.4C235.1,59.9,235.3,59.7,235.3,59.5
			z"/>
		<path class="st0" d="M234.9,56.5c-0.2,0-0.4,0.2-0.4,0.4c0,0.2,0.2,0.4,0.4,0.4c0.2,0,0.4-0.2,0.4-0.4
			C235.3,56.7,235.1,56.5,234.9,56.5z"/>
		<path class="st0" d="M175.1,29.4c-0.2-0.5-0.5-0.7-0.8-0.9c-0.6-0.4-1.1-0.2-1.5-0.6c-0.4-0.4-0.3-1-0.6-1.6
			c-0.1-0.3-0.5-0.4-0.7-0.4c-0.5,0-0.8,0.4-0.8,0.8c-1.2,6.4-4,9.1-4,10.4c0,0.5,0.6,0.9,0.9,0.9C168.7,38,175.1,29.4,175.1,29.4z"
			/>
		<path class="st0" d="M243.9,45.9c0.1,0,0.2-0.1,0.2-0.2c0-0.1-0.1-0.2-0.2-0.2c-0.1,0-0.2,0.1-0.2,0.2
			C243.6,45.8,243.7,45.9,243.9,45.9z"/>
		<path class="st0" d="M237.4,13.1c0.3,0,0.6-0.3,0.6-0.6c0-0.3-0.3-0.6-0.6-0.6c-0.3,0-0.6,0.3-0.6,0.6
			C236.8,12.8,237.1,13.1,237.4,13.1z"/>
		<path class="st0" d="M235.9,14.4c0.3,0,0.6-0.3,0.6-0.6c0-0.3-0.3-0.6-0.6-0.6c-0.3,0-0.6,0.3-0.6,0.6
			C235.2,14.2,235.5,14.4,235.9,14.4z"/>
		<path class="st0" d="M234.4,15.8c0.4,0,0.7-0.3,0.7-0.7c0-0.4-0.3-0.7-0.7-0.7c-0.4,0-0.7,0.3-0.7,0.7
			C233.7,15.5,234,15.8,234.4,15.8z"/>
		<path class="st0" d="M232.8,17.2c0.4,0,0.7-0.3,0.7-0.7c0-0.4-0.3-0.7-0.7-0.7c-0.4,0-0.7,0.3-0.7,0.7
			C232.1,16.8,232.4,17.2,232.8,17.2z"/>
		<path class="st0" d="M238.8,11.6c0.3,0,0.5-0.2,0.5-0.5c0-0.3-0.2-0.5-0.5-0.5c-0.3,0-0.5,0.2-0.5,0.5
			C238.3,11.4,238.6,11.6,238.8,11.6z"/>
		<path class="st0" d="M240,13.8c0.3,0,0.5-0.2,0.5-0.5s-0.2-0.5-0.5-0.5c-0.3,0-0.5,0.2-0.5,0.5S239.7,13.8,240,13.8z"/>
		<path class="st0" d="M240.3,10.2c0.3,0,0.5-0.2,0.5-0.5c0-0.3-0.2-0.5-0.5-0.5c-0.3,0-0.5,0.2-0.5,0.5
			C239.9,10,240.1,10.2,240.3,10.2z"/>
		<circle class="st0" cx="238.5" cy="14.7" r="0.5"/>
		<path class="st0" d="M231.3,18.5c0.4,0,0.8-0.4,0.8-0.8c0-0.4-0.4-0.8-0.8-0.8c-0.4,0-0.8,0.4-0.8,0.8
			C230.5,18.2,230.9,18.5,231.3,18.5z"/>
		<path class="st0" d="M202.8,76c-0.3,0-0.6,0.3-0.6,0.6c0,0.3,0.3,0.6,0.6,0.6c0.3,0,0.6-0.3,0.6-0.6C203.5,76.3,203.2,76,202.8,76
			z"/>
		<path class="st0" d="M204.9,76.1c-0.3,0-0.6,0.2-0.6,0.6c0,0.3,0.2,0.6,0.6,0.6c0.3,0,0.6-0.3,0.6-0.6
			C205.4,76.4,205.2,76.1,204.9,76.1z"/>
		<path class="st0" d="M232.6,50.4c0.3,0,0.6-0.3,0.6-0.6c0-0.3-0.3-0.6-0.6-0.6c-0.3,0-0.6,0.2-0.6,0.6
			C232,50.2,232.3,50.4,232.6,50.4z"/>
		<path class="st0" d="M206,75.4c0-0.3-0.3-0.6-0.6-0.6c-0.3,0-0.6,0.3-0.6,0.6c0,0.3,0.3,0.6,0.6,0.6C205.7,76,206,75.7,206,75.4z"
			/>
		<circle class="st0" cx="241.1" cy="15.7" r="0.4"/>
		<path class="st0" d="M226.6,22.5c0.5,0,0.9-0.4,0.9-0.9c0-0.5-0.4-0.9-0.9-0.9c-0.5,0-0.9,0.4-0.9,0.9
			C225.7,22,226.1,22.5,226.6,22.5z"/>
		<circle class="st0" cx="229.8" cy="19" r="0.8"/>
		<path class="st0" d="M228.2,21.2c0.5,0,0.9-0.4,0.9-0.9s-0.4-0.9-0.9-0.9c-0.5,0-0.9,0.4-0.9,0.9S227.7,21.2,228.2,21.2z"/>
		<path class="st0" d="M170.2,77.5l21,0c0.4,0,0.8-0.3,0.9-0.6c0.1,0.3,0.4,0.6,0.8,0.6c0.5,0,0.9-0.4,0.9-0.9c0,0,0-0.1,0-0.1
			c0.3-0.2,0.5-0.5,0.5-0.8c0,0,0,0,0-0.1c0.1,0,0.1-0.1,0.2-0.1c0,0,0,0.1,0,0.1c0,0.1,0,0.2,0,0.2c-0.3,0.1-0.5,0.4-0.5,0.8
			c0,0.5,0.4,0.8,0.8,0.8c0.5,0,0.8-0.4,0.8-0.8c0-0.1,0-0.1,0-0.2c0.3-0.1,0.6-0.4,0.6-0.8c0-0.1,0-0.1,0-0.2
			c0.3-0.2,0.6-0.5,0.6-0.9c0-0.1,0-0.1,0-0.2c0,0,0.1,0,0.1-0.1c0,0,0,0.1,0,0.1c0,0.1,0,0.3,0.1,0.4c-0.3,0.1-0.5,0.4-0.5,0.7
			c0,0.1,0,0.2,0.1,0.3c-0.3,0.1-0.5,0.4-0.5,0.7c0,0.4,0.4,0.8,0.8,0.8c0.4,0,0.8-0.4,0.8-0.8c0-0.1,0-0.2,0-0.3
			c0.3-0.1,0.6-0.4,0.6-0.8c0-0.1,0-0.2,0-0.3c0.4-0.1,0.6-0.5,0.6-0.9c0-0.1,0-0.2,0-0.3c0.1-0.1,0.2-0.1,0.3-0.2
			c-0.1,0.1-0.1,0.3-0.1,0.4c0,0.2,0,0.3,0.1,0.5c-0.3,0.1-0.5,0.4-0.5,0.7c0,0.2,0,0.3,0.1,0.4c-0.3,0.1-0.6,0.4-0.6,0.7
			c0,0.4,0.3,0.7,0.7,0.7c0.4,0,0.7-0.3,0.7-0.7c0-0.1,0-0.2-0.1-0.3c0.4-0.1,0.6-0.4,0.6-0.8c0-0.1,0-0.2-0.1-0.4
			c0.4-0.1,0.7-0.4,0.7-0.9c0-0.1,0-0.3-0.1-0.4c0.4-0.1,0.6-0.5,0.6-0.9c0-0.1,0-0.3-0.1-0.4c0.1-0.1,0.2-0.2,0.3-0.3
			c-0.1,0.1-0.1,0.3-0.1,0.5c0,0.2,0.1,0.4,0.2,0.5c-0.3,0.1-0.6,0.4-0.6,0.8c0,0.2,0.1,0.4,0.2,0.6c-0.3,0.1-0.6,0.4-0.6,0.7
			c0,0.2,0.1,0.4,0.2,0.5c-0.4,0-0.6,0.3-0.6,0.7c0,0.4,0.3,0.7,0.7,0.7c0.4,0,0.7-0.3,0.7-0.7c0-0.2-0.1-0.3-0.2-0.4
			c0.4,0,0.7-0.3,0.7-0.7c0-0.2-0.1-0.3-0.2-0.4c0.4-0.1,0.7-0.4,0.7-0.8c0-0.2,0-0.3-0.1-0.5c0.4-0.1,0.7-0.5,0.7-0.9
			c0-0.2,0-0.3-0.1-0.5c0.4-0.1,0.6-0.5,0.6-0.9c0-0.2,0-0.4-0.1-0.5c0.3-0.2,0.6-0.5,0.6-0.9c0-0.2-0.1-0.4-0.1-0.5
			c0.1,0,0.1-0.1,0.2-0.1c0,0.1-0.1,0.2-0.1,0.3c0,0.2,0.1,0.5,0.2,0.6c-0.3,0.1-0.6,0.5-0.6,0.9c0,0.2,0.1,0.5,0.2,0.6
			c-0.3,0.1-0.6,0.4-0.6,0.8c0,0.2,0.1,0.5,0.3,0.6c-0.4,0.1-0.6,0.4-0.6,0.8c0,0.3,0.1,0.5,0.4,0.7c0,0,0,0,0,0
			c-0.4,0-0.7,0.3-0.7,0.7s0.3,0.7,0.7,0.7c0.4,0,0.7-0.3,0.7-0.7c0-0.2-0.1-0.4-0.3-0.6c0,0,0,0,0.1,0c0.4,0,0.8-0.4,0.8-0.8
			c0-0.2-0.1-0.4-0.2-0.5c0.4-0.1,0.7-0.4,0.7-0.9c0-0.2-0.1-0.4-0.2-0.6c0.4-0.1,0.7-0.5,0.7-0.9c0-0.2-0.1-0.4-0.2-0.6
			c0.4-0.1,0.6-0.5,0.6-0.9c0-0.2-0.1-0.4-0.2-0.6c0.4-0.2,0.6-0.5,0.6-0.9c0-0.2-0.1-0.5-0.2-0.6c0.3-0.2,0.6-0.5,0.6-0.9
			c0,0,0,0,0,0c0.1,0.1,0.1,0.2,0.2,0.3c-0.3,0.1-0.6,0.5-0.6,0.9c0,0.3,0.1,0.6,0.3,0.7c-0.4,0.1-0.6,0.5-0.6,0.9
			c0,0.3,0.1,0.5,0.3,0.7c-0.4,0.1-0.7,0.4-0.7,0.9c0,0.3,0.1,0.5,0.4,0.7c-0.4,0.1-0.7,0.4-0.7,0.8c0,0.3,0.2,0.6,0.4,0.7
			c0,0,0,0,0,0c-0.4,0-0.8,0.3-0.8,0.8c0,0.4,0.3,0.8,0.8,0.8c0.4,0,0.7-0.3,0.7-0.8c0-0.3-0.1-0.5-0.4-0.6c0,0,0,0,0.1,0
			c0.5,0,0.8-0.4,0.8-0.8c0-0.3-0.1-0.5-0.3-0.6c0.4-0.1,0.8-0.4,0.8-0.9c0-0.3-0.1-0.5-0.3-0.7c0.4-0.1,0.7-0.5,0.7-0.9
			c0-0.3-0.1-0.5-0.3-0.7c0.4-0.1,0.7-0.5,0.7-0.9c0-0.3-0.1-0.5-0.3-0.7c0.4-0.2,0.6-0.5,0.6-0.9c0-0.3-0.1-0.6-0.3-0.8
			c0.4-0.2,0.6-0.5,0.6-0.9c0,0,0-0.1,0-0.1c0.1,0.2,0.2,0.3,0.4,0.4c-0.4,0.1-0.7,0.5-0.7,0.9c0,0.4,0.2,0.7,0.5,0.8
			c-0.4,0.1-0.7,0.5-0.7,0.9c0,0.3,0.2,0.6,0.5,0.8c-0.4,0.1-0.8,0.4-0.8,0.9c0,0.4,0.2,0.7,0.5,0.8c-0.5,0-0.8,0.4-0.8,0.8
			c0,0.5,0.4,0.8,0.8,0.8c0.5,0,0.8-0.4,0.8-0.8c0-0.3-0.2-0.6-0.5-0.8c0.5,0,0.9-0.4,0.9-0.9c0-0.3-0.2-0.6-0.4-0.8
			c0.5-0.1,0.8-0.4,0.8-0.9c0-0.3-0.2-0.6-0.4-0.8c0.4-0.1,0.7-0.5,0.7-0.9c0-0.3-0.2-0.6-0.4-0.8c0.4-0.1,0.7-0.5,0.7-0.9
			c0-0.4-0.2-0.7-0.5-0.8c0.4-0.1,0.6-0.5,0.6-1c0-0.1,0-0.1,0-0.2c0.1,0.2,0.3,0.4,0.6,0.5c-0.4,0.1-0.7,0.5-0.7,0.9
			c0,0.4,0.3,0.8,0.7,0.9c-0.5,0-0.8,0.4-0.8,0.9c0,0.5,0.3,0.8,0.8,0.9c0,0-0.1,0-0.1,0c-0.5,0-0.9,0.4-0.9,0.9
			c0,0.5,0.4,0.9,0.9,0.9s0.9-0.4,0.9-0.9c0-0.4-0.3-0.8-0.7-0.9c0,0,0.1,0,0.1,0c0.5,0,0.9-0.4,0.9-0.9c0-0.4-0.3-0.8-0.6-0.9
			c0.5,0,0.9-0.4,0.9-1c0-0.4-0.2-0.7-0.6-0.9c0.4-0.1,0.8-0.5,0.8-1c0-0.4-0.2-0.8-0.6-0.9c0.4-0.1,0.7-0.5,0.7-1
			c0-0.4-0.2-0.8-0.6-0.9c0.4-0.2,0.6-0.5,0.6-1c0-0.1,0-0.1,0-0.2c0.1,0.2,0.4,0.4,0.6,0.4c-0.4,0.1-0.8,0.5-0.8,1c0,0.5,0.4,1,1,1
			c0.5,0,1-0.4,1-1c0-0.5-0.3-0.9-0.8-1c0.5-0.1,0.8-0.5,0.8-1c0-0.5-0.3-0.9-0.7-1c0.4-0.1,0.7-0.5,0.7-1c0-0.1,0-0.2,0-0.2
			c0.2,0.3,0.5,0.4,0.8,0.4c0.6,0,1-0.4,1-1c0-0.5-0.4-1-0.9-1c0.5-0.1,0.8-0.5,0.8-1c0-0.1,0-0.2-0.1-0.4c0.2,0.3,0.5,0.5,0.9,0.5
			c0.5,0,1-0.4,1-1c0-0.5-0.4-1-1-1c-0.5,0-1,0.4-1,1c0,0.1,0,0.2,0.1,0.3c-0.2-0.3-0.4-0.5-0.7-0.5c0.4-0.2,0.7-0.5,0.7-1
			c0-0.1,0-0.2,0-0.2c0.2,0.2,0.5,0.4,0.8,0.4c0.6,0,1-0.5,1-1c0-0.6-0.5-1-1-1c0.4-0.1,0.7-0.5,0.7-1c0-0.1,0-0.2,0-0.3
			c0.2,0.2,0.5,0.4,0.8,0.4c0.6,0,1-0.5,1-1c0-0.6-0.4-1-1-1c-0.6,0-1,0.4-1,1c0,0.1,0,0.2,0,0.3c-0.2-0.2-0.4-0.3-0.7-0.4
			c0.3-0.2,0.6-0.5,0.6-1c0-0.1,0-0.1,0-0.2c0.2,0.2,0.4,0.3,0.7,0.3c0.6,0,1-0.5,1-1c0-0.1,0-0.3-0.1-0.4c0.2,0.2,0.5,0.4,0.8,0.4
			c0.5,0,1-0.4,1-1c0-0.5-0.4-1-1-1c-0.6,0-1,0.4-1,1c0,0.1,0,0.2,0.1,0.3c-0.2-0.3-0.5-0.4-0.8-0.4c0.4-0.2,0.6-0.5,0.6-1
			c0-0.1,0-0.2,0-0.3c0.2,0.2,0.4,0.3,0.7,0.3c0.6,0,1-0.5,1-1c0-0.2,0-0.3-0.1-0.5c0.2,0.3,0.5,0.5,0.8,0.5c0.5,0,1-0.4,1-1
			c0-0.5-0.4-1-1-1c-0.5,0-1,0.4-1,1c0,0.2,0,0.3,0.1,0.4c-0.2-0.3-0.5-0.5-0.9-0.5c-0.1,0-0.1,0-0.2,0c0.4-0.1,0.7-0.5,0.7-1
			c0-0.1,0-0.2-0.1-0.3c0.2,0.2,0.4,0.3,0.7,0.3c0.6,0,1-0.5,1-1c0-0.6-0.5-1-1-1c-0.6,0-1,0.5-1,1c0,0.1,0,0.2,0,0.3
			c-0.2-0.2-0.4-0.3-0.7-0.3c0.3-0.2,0.5-0.5,0.5-0.9c0-0.1,0-0.2,0-0.3c0.2,0.1,0.4,0.2,0.6,0.2c0.6,0,1-0.5,1-1
			c0-0.1,0-0.3-0.1-0.4c0.2,0.2,0.4,0.3,0.7,0.3c0.6,0,1-0.5,1-1c0-0.6-0.4-1-1-1c-0.6,0-1,0.5-1,1c0,0.1,0,0.2,0.1,0.3
			c-0.2-0.2-0.5-0.3-0.8-0.3c0,0,0,0-0.1,0c0.3-0.2,0.5-0.5,0.5-0.9c0-0.1,0-0.2,0-0.3c0.2,0.1,0.4,0.2,0.6,0.2c0.6,0,1-0.5,1-1
			c0-0.2,0-0.3-0.1-0.4c0.2,0.2,0.4,0.3,0.7,0.3c0.5,0,1-0.4,1-1s-0.5-1-1-1c-0.6,0-1,0.4-1,1c0,0.1,0,0.3,0.1,0.4
			c-0.2-0.2-0.5-0.3-0.8-0.3c0,0-0.1,0-0.1,0c0.3-0.2,0.5-0.5,0.5-0.9c0-0.1,0-0.2-0.1-0.3c0.2,0.1,0.4,0.2,0.6,0.2c0.6,0,1-0.5,1-1
			c0-0.2-0.1-0.4-0.1-0.5c0.2,0.2,0.4,0.3,0.7,0.3c0.5,0,1-0.4,1-1c0-0.5-0.4-1-1-1c-0.5,0-1,0.4-1,1c0,0.2,0.1,0.3,0.1,0.5
			c-0.2-0.2-0.5-0.4-0.8-0.4c-0.1,0-0.2,0-0.2,0c0.3-0.2,0.5-0.5,0.5-0.9c0-0.1,0-0.3-0.1-0.4c0.2,0.1,0.4,0.2,0.6,0.2
			c0.6,0,1-0.5,1-1c0-0.6-0.5-1-1-1c-0.1,0-0.2,0-0.2,0c0.3-0.2,0.5-0.5,0.5-0.9c0-0.1,0-0.3-0.1-0.4c0.2,0.1,0.4,0.2,0.6,0.2
			c0.6,0,1-0.5,1-1c0-0.6-0.5-1-1-1c-0.6,0-1,0.5-1,1c0,0.1,0,0.3,0.1,0.4c-0.2-0.1-0.4-0.2-0.6-0.2c-0.6,0-1.1,0.5-1.1,1.1
			c0,0.1,0,0.2,0,0.3c-0.2-0.1-0.4-0.2-0.6-0.2c-0.6,0-1.1,0.5-1.1,1.1c0,0.1,0,0.1,0,0.2c-0.2-0.1-0.3-0.1-0.5-0.1
			c-0.6,0-1.1,0.5-1.1,1.1c0,0,0,0.1,0,0.1c-0.1-0.1-0.3-0.1-0.5-0.1c-0.6,0-1.2,0.5-1.2,1.2c0,0,0,0,0,0.1
			c-0.1-0.1-0.3-0.1-0.4-0.1c-0.7,0-1.2,0.5-1.2,1.2v0c-0.1,0-0.3-0.1-0.4-0.1c-0.3,0-0.6,0.1-0.8,0.3c0,0-1.8,1.4-6.4,5.2
			c-19.3,15.6-18.1,27.3-24.6,27.3c-2.4,0-4.4-1.9-4.4-4.4c0-8.9,22.2-25.8,22.2-39.4c0-5.8-4.7-10.5-10.6-10.5
			c-7.5,0-13.1,3.6-16.2,6.9c-2.5,2.6-3.6,5.3-3.6,7.1c0,1.3,0.5,2.1,1.4,2.1c3,0,5.6-4,5.9-4.4c0.1-0.1,0.1-0.1,0.3-0.1
			c0.1,0,0.3,0.1,0.3,0.3c0,0.5-2.5,2.5-2.5,5.6c0,1.7,1.3,2.5,1.3,2.5c4.8-1.8,6.3-5.5,7.7-8.8c1-2.3,2.4-5,5.4-5
			c2.4,0,4.4,2,4.4,4.4c0,14.5-28.5,30.6-28.5,47.8C165.3,72.8,168.5,77.5,170.2,77.5z M214.3,49.1c0.1,0.1,0.3,0.2,0.4,0.2
			c-0.3,0.2-0.5,0.5-0.5,0.9c0,0,0,0.1,0,0.1c-0.1-0.1-0.2-0.2-0.3-0.2C214.1,49.9,214.3,49.6,214.3,49.1
			C214.3,49.2,214.3,49.2,214.3,49.1z M214,52.1c0.3-0.2,0.5-0.5,0.5-0.9c0,0,0-0.1,0-0.1c0.1,0.1,0.3,0.2,0.5,0.3
			c-0.4,0.2-0.6,0.5-0.6,0.9c0,0,0,0.1,0,0.2C214.3,52.2,214.2,52.1,214,52.1z M215.4,44.3c0.1,0.1,0.3,0.1,0.4,0.2
			c-0.3,0.2-0.5,0.5-0.5,0.9c0,0,0,0.1,0,0.1c-0.1-0.1-0.2-0.1-0.3-0.2C215.2,45.1,215.4,44.8,215.4,44.3
			C215.4,44.4,215.4,44.4,215.4,44.3z M216.6,41.4c0.1,0.1,0.3,0.2,0.5,0.2c-0.3,0.2-0.5,0.5-0.5,0.9c0,0,0,0.1,0,0.1
			c-0.1-0.1-0.3-0.2-0.4-0.2c0.2-0.2,0.4-0.5,0.4-0.8C216.6,41.4,216.6,41.4,216.6,41.4z M216.3,46.4c-0.3,0.2-0.6,0.5-0.6,0.9
			c0,0,0,0.1,0,0.1c-0.1-0.1-0.3-0.2-0.4-0.3c0.3-0.2,0.5-0.5,0.5-0.9c0,0,0-0.1,0-0.1C215.9,46.3,216.1,46.4,216.3,46.4z
			 M214.6,54.2c0,0.1,0,0.2,0,0.2c-0.1-0.2-0.3-0.3-0.5-0.4c0.4-0.2,0.6-0.5,0.6-1c0-0.1,0-0.1,0-0.2c0.2,0.2,0.4,0.3,0.7,0.3
			C214.9,53.3,214.6,53.7,214.6,54.2z M216,49.4c0,0.1,0,0.1,0,0.2c-0.1-0.2-0.3-0.3-0.6-0.3c0.3-0.2,0.6-0.5,0.6-0.9
			c0-0.1,0-0.1,0-0.2c0.2,0.2,0.4,0.3,0.7,0.3C216.3,48.5,216,48.9,216,49.4z M217.1,44.4c0,0.1,0,0.1,0,0.2
			c-0.1-0.1-0.3-0.2-0.5-0.3c0.3-0.2,0.5-0.5,0.5-0.9c0-0.1,0-0.1,0-0.2c0.2,0.1,0.4,0.2,0.7,0.2h0C217.3,43.6,217.1,44,217.1,44.4z
			 M217.8,38.4c0.2,0.1,0.4,0.2,0.6,0.2c-0.3,0.2-0.5,0.5-0.5,0.9c0,0.1,0,0.1,0,0.2c-0.1-0.1-0.3-0.2-0.5-0.2
			c0.2-0.2,0.4-0.5,0.4-0.8C217.8,38.5,217.8,38.4,217.8,38.4z M219.1,40.4c-0.4,0.1-0.7,0.5-0.7,1c0,0.1,0,0.2,0,0.2
			c-0.2-0.2-0.4-0.3-0.6-0.3c0.3-0.2,0.5-0.5,0.5-0.9c0-0.1,0-0.1,0-0.2c0.2,0.1,0.4,0.2,0.6,0.2C219,40.4,219,40.4,219.1,40.4z
			 M220,33.3c0,0.1,0,0.2,0,0.3c-0.2-0.1-0.4-0.2-0.6-0.2c0.2-0.2,0.4-0.5,0.4-0.8c0-0.1,0-0.2,0-0.2c0.2,0.1,0.4,0.2,0.6,0.2
			c0.1,0,0.1,0,0.2,0C220.2,32.6,220,32.9,220,33.3z M221.4,26.5c0-0.1,0-0.2,0-0.3c0.2,0.1,0.3,0.1,0.5,0.1c0.1,0,0.2,0,0.3,0
			c-0.3,0.2-0.4,0.5-0.4,0.8c0,0.1,0,0.2,0.1,0.3c-0.2-0.1-0.4-0.2-0.6-0.2c0,0,0,0,0,0C221.3,27,221.4,26.8,221.4,26.5z
			 M221.2,29.4c0.1,0,0.2,0,0.3,0c-0.3,0.2-0.5,0.5-0.5,0.9c0,0.1,0,0.2,0,0.3c-0.2-0.1-0.4-0.2-0.7-0.2h0c0.2-0.2,0.3-0.5,0.3-0.8
			c0-0.1,0-0.2,0-0.3C220.8,29.3,221,29.4,221.2,29.4z M219.9,27.5c0.1,0.1,0.3,0.1,0.5,0.1c0,0,0,0,0.1,0c-0.2,0.2-0.3,0.4-0.3,0.7
			c0,0.1,0,0.2,0,0.2c-0.1-0.1-0.3-0.1-0.5-0.2c0.2-0.2,0.2-0.4,0.2-0.7C219.9,27.6,219.9,27.5,219.9,27.5z M219.1,30.5
			c0.1,0.1,0.3,0.1,0.5,0.1c0,0,0,0,0,0c-0.2,0.2-0.3,0.5-0.3,0.8c0,0.1,0,0.1,0,0.2c-0.1-0.1-0.3-0.1-0.5-0.2
			c0.2-0.2,0.3-0.5,0.3-0.7C219.1,30.6,219.1,30.6,219.1,30.5z M218.8,35.5c0-0.1,0-0.1,0-0.2c0.2,0.1,0.4,0.2,0.6,0.2
			c0,0,0.1,0,0.1,0c-0.3,0.2-0.5,0.5-0.5,0.9c0,0.1,0,0.2,0,0.2c-0.2-0.1-0.3-0.2-0.5-0.2C218.7,36.2,218.8,35.9,218.8,35.5z
			 M218.3,28.8c0.1,0,0.2,0.1,0.3,0.1c-0.1,0.2-0.2,0.4-0.2,0.7c0,0.1,0,0.1,0,0.2c-0.1-0.1-0.2-0.1-0.3-0.1
			c0.1-0.2,0.2-0.4,0.2-0.6C218.3,28.9,218.3,28.8,218.3,28.8z M218.2,33.7c0-0.1,0-0.1,0-0.2c0.1,0.1,0.3,0.1,0.5,0.1
			c-0.2,0.2-0.3,0.5-0.3,0.8c0,0.1,0,0.1,0,0.2c-0.1-0.1-0.3-0.1-0.4-0.2C218.1,34.2,218.2,34,218.2,33.7z M217.5,31.7
			c0.1,0,0.2,0.1,0.3,0.1c-0.2,0.2-0.2,0.4-0.2,0.7c0,0,0,0.1,0,0.1c-0.1,0-0.2-0.1-0.3-0.1c0.1-0.2,0.2-0.4,0.2-0.7
			C217.5,31.8,217.5,31.8,217.5,31.7z M217.2,36.5c0.1,0.1,0.3,0.1,0.4,0.1c-0.2,0.2-0.4,0.5-0.4,0.8c0,0,0,0.1,0,0.1
			c-0.1-0.1-0.2-0.1-0.4-0.2c0.2-0.2,0.3-0.5,0.3-0.8C217.2,36.6,217.2,36.6,217.2,36.5z M216.8,30c0.1,0,0.1,0,0.2,0
			c-0.1,0.2-0.2,0.4-0.2,0.6c0,0,0,0.1,0,0.1c-0.1,0-0.1,0-0.2-0.1C216.7,30.6,216.8,30.3,216.8,30C216.8,30.1,216.8,30.1,216.8,30z
			 M216.6,34.7c0.1,0,0.2,0.1,0.3,0.1c-0.2,0.2-0.3,0.4-0.3,0.7c0,0,0,0.1,0,0.1c-0.1,0-0.2-0.1-0.3-0.1
			C216.5,35.3,216.6,35.1,216.6,34.7C216.6,34.8,216.6,34.8,216.6,34.7z M216.5,39.6c-0.2,0.2-0.4,0.5-0.4,0.8c0,0,0,0.1,0,0.1
			c-0.1-0.1-0.2-0.1-0.3-0.1c0.2-0.2,0.3-0.5,0.3-0.8c0,0,0-0.1,0-0.1C216.2,39.6,216.3,39.6,216.5,39.6z M215.9,33
			c0.1,0,0.1,0,0.2,0.1c-0.1,0.2-0.2,0.4-0.2,0.6c0,0,0,0,0,0.1c-0.1,0-0.1,0-0.2-0.1C215.8,33.5,215.9,33.3,215.9,33
			C215.9,33,215.9,33,215.9,33z M215.6,37.8C215.6,37.8,215.6,37.7,215.6,37.8c0.1,0,0.2,0,0.2,0c-0.2,0.2-0.3,0.5-0.3,0.7
			c0,0,0,0,0,0.1c-0.1,0-0.1-0.1-0.2-0.1C215.5,38.3,215.6,38,215.6,37.8z M215,36L215,36c0,0,0.1,0,0.1,0c-0.1,0.2-0.2,0.4-0.2,0.7
			v0c0,0-0.1,0-0.1,0C214.9,36.5,215,36.2,215,36z M215,42.5C215,42.5,215,42.5,215,42.5c0.1,0,0.2,0,0.3,0
			c-0.2,0.2-0.4,0.5-0.4,0.8c0,0,0,0,0,0.1c-0.1,0-0.2-0.1-0.2-0.1C214.8,43.1,215,42.9,215,42.5z M214.5,40.7
			C214.5,40.7,214.5,40.7,214.5,40.7c0.1,0,0.1,0,0.2,0c-0.2,0.2-0.3,0.5-0.3,0.8c0,0,0,0,0,0c0,0-0.1,0-0.1-0.1
			C214.4,41.3,214.5,41,214.5,40.7z M213.7,45.5C213.7,45.4,213.7,45.4,213.7,45.5c0.1,0,0.1,0,0.2,0c-0.1,0.1-0.2,0.2-0.2,0.3
			C213.7,45.7,213.7,45.6,213.7,45.5z M214,47.3C214,47.3,214,47.3,214,47.3c0.1,0,0.2,0,0.3,0.1c-0.3,0.2-0.4,0.5-0.4,0.9
			c0,0,0,0,0,0.1c-0.1-0.1-0.2-0.1-0.2-0.1C213.9,48,214,47.7,214,47.3z M212.8,57c0,0.1,0,0.1,0,0.2c-0.1-0.1-0.2-0.3-0.4-0.4
			c0.3-0.2,0.6-0.5,0.6-1c0,0,0-0.1,0-0.1c0.1,0.1,0.3,0.3,0.5,0.3C213.1,56.2,212.8,56.5,212.8,57z M213.6,46
			c0,0.1-0.1,0.2-0.1,0.3v0c0,0-0.1-0.1-0.2-0.1C213.4,46.2,213.5,46.1,213.6,46z M213.3,54.1c-0.4,0.2-0.6,0.5-0.6,0.9
			c0,0,0,0.1,0,0.1c-0.1-0.1-0.2-0.2-0.3-0.2c0.3-0.2,0.5-0.5,0.5-0.9c0,0,0,0,0-0.1C213,54,213.2,54,213.3,54.1z M212.6,53.1
			C212.6,53.1,212.6,53.1,212.6,53.1c-0.1,0-0.1-0.1-0.2-0.1c0.3-0.2,0.5-0.5,0.5-0.9c0,0,0,0,0,0c0.1,0.1,0.2,0.1,0.3,0.2
			C212.8,52.4,212.6,52.7,212.6,53.1z M212.6,50.2L212.6,50.2c0.1,0,0.1,0.1,0.2,0.1c-0.1,0.1-0.2,0.2-0.2,0.2
			C212.6,50.4,212.6,50.3,212.6,50.2z M212.4,50.8c0,0.1,0,0.2,0,0.3c0,0,0,0,0,0c-0.1,0-0.1-0.1-0.2-0.1
			C212.3,51,212.3,50.9,212.4,50.8z M211.2,54.8c0.1,0,0.1,0.1,0.2,0.1c-0.1,0.1-0.2,0.1-0.2,0.2C211.2,55,211.2,54.9,211.2,54.8z
			 M211.2,56.6L211.2,56.6c0.1,0.1,0.2,0.1,0.3,0.2c-0.2,0.1-0.3,0.2-0.4,0.4C211.2,57,211.2,56.8,211.2,56.6z M210.9,55.6
			c0,0.1,0,0.2,0,0.3c0,0-0.1-0.1-0.1-0.1C210.8,55.7,210.8,55.6,210.9,55.6z M211,57.2c-0.1,0.1-0.1,0.3-0.1,0.5c0,0,0,0,0,0
			c-0.1-0.1-0.1-0.1-0.2-0.2C210.9,57.5,211,57.4,211,57.2z M211.2,58.5C211.2,58.5,211.2,58.4,211.2,58.5c0.1,0.1,0.2,0.1,0.3,0.2
			c-0.4,0.2-0.6,0.5-0.6,0.9c0,0,0,0.1,0,0.1c-0.1-0.1-0.2-0.2-0.3-0.3C211,59.2,211.2,58.9,211.2,58.5z M211.1,60.3
			c0,0,0-0.1,0-0.1c0.1,0.2,0.3,0.3,0.4,0.3c-0.4,0.1-0.7,0.5-0.7,0.9c0,0.1,0,0.1,0,0.2c-0.1-0.2-0.2-0.3-0.4-0.4
			C210.9,61.1,211.1,60.7,211.1,60.3z M209.4,59.3c0,0,0.1,0.1,0.1,0.1c-0.1,0-0.1,0.1-0.2,0.1C209.4,59.4,209.4,59.4,209.4,59.3z
			 M209.3,61c0.1,0.1,0.1,0.1,0.2,0.2c-0.1,0.1-0.2,0.1-0.3,0.2C209.3,61.3,209.3,61.2,209.3,61z M209,60.1c0,0.1,0,0.1,0,0.2
			c0,0-0.1-0.1-0.1-0.1C209,60.1,209,60.1,209,60.1z M209,61.7c0,0.1-0.1,0.2-0.1,0.4c0,0,0,0,0,0c0-0.1-0.1-0.1-0.2-0.2
			C208.9,61.9,208.9,61.8,209,61.7z M209.1,62.7C209.1,62.7,209.1,62.7,209.1,62.7c0.1,0.1,0.2,0.2,0.3,0.2
			c-0.4,0.2-0.6,0.5-0.6,0.9c0,0,0,0.1,0,0.1c-0.1-0.1-0.1-0.2-0.2-0.3C208.9,63.5,209.1,63.2,209.1,62.7z M207,65.1
			c0,0.1,0.1,0.1,0.2,0.2c-0.1,0-0.2,0.1-0.2,0.2C207,65.3,207,65.2,207,65.1z M206.7,65.8c0,0.1-0.1,0.2-0.1,0.3c0,0,0,0,0,0
			c0-0.1-0.1-0.2-0.1-0.2C206.6,65.9,206.6,65.9,206.7,65.8z M204.5,68.7c0,0.1,0.1,0.1,0.1,0.2c-0.1,0-0.2,0.1-0.2,0.1
			C204.5,68.9,204.5,68.8,204.5,68.7z M201.6,71.3c0,0,0.1-0.1,0.1-0.1c0,0.1,0,0.2,0,0.2c0,0.2,0.1,0.4,0.2,0.5
			c-0.1,0.1-0.2,0.1-0.3,0.2c0.1-0.2,0.2-0.3,0.2-0.5C201.7,71.6,201.7,71.5,201.6,71.3z M199.2,72.9
			C199.3,72.9,199.3,72.9,199.2,72.9c0.1,0,0.1,0.1,0.1,0.1c0,0.2,0,0.3,0.1,0.5c-0.1,0-0.2,0.1-0.3,0.2c0.1-0.1,0.1-0.3,0.1-0.5
			C199.3,73.1,199.3,73,199.2,72.9z M197.3,73.6L197.3,73.6C197.3,73.6,197.3,73.6,197.3,73.6L197.3,73.6z"/>
		<circle class="st0" cx="231.7" cy="23.2" r="0.7"/>
		<path class="st0" d="M237,16.6c0.3,0,0.6-0.3,0.6-0.6c0-0.3-0.3-0.6-0.6-0.6c-0.3,0-0.6,0.3-0.6,0.6
			C236.4,16.3,236.6,16.6,237,16.6z"/>
		<path class="st0" d="M244.4,51.6c0.1,0,0.2-0.1,0.2-0.2c0-0.1-0.1-0.2-0.2-0.2c-0.1,0-0.2,0.1-0.2,0.2
			C244.3,51.6,244.4,51.6,244.4,51.6z"/>
		<path class="st0" d="M245.2,32.8c0.1,0,0.2-0.1,0.2-0.2c0-0.1-0.1-0.2-0.2-0.2c-0.1,0-0.2,0.1-0.2,0.2
			C245,32.7,245.1,32.8,245.2,32.8z"/>
		<path class="st0" d="M241.5,12.4c0.2,0,0.4-0.2,0.4-0.4s-0.2-0.4-0.4-0.4c-0.2,0-0.4,0.2-0.4,0.4S241.3,12.4,241.5,12.4z"/>
		<path class="st0" d="M245.3,42.2c0.1,0,0.2-0.1,0.2-0.2c0-0.1-0.1-0.2-0.2-0.2s-0.2,0.1-0.2,0.2C245.1,42.2,245.2,42.2,245.3,42.2
			z"/>
		<path class="st0" d="M245.2,26.2c0.1,0,0.3-0.1,0.3-0.2c0-0.1-0.1-0.3-0.3-0.3c-0.1,0-0.2,0.1-0.2,0.3
			C245,26.1,245.1,26.2,245.2,26.2z"/>
		<circle class="st0" cx="244.7" cy="39.2" r="0.2"/>
		<path class="st0" d="M244.3,23c-0.2,0-0.3,0.1-0.3,0.3c0,0.2,0.1,0.3,0.3,0.3c0.2,0,0.3-0.1,0.3-0.3C244.6,23.1,244.4,23,244.3,23
			z"/>
		<path class="st0" d="M244.2,48.8c0.1,0,0.2-0.1,0.2-0.2s-0.1-0.2-0.2-0.2c-0.1,0-0.2,0.1-0.2,0.2C244,48.7,244.1,48.8,244.2,48.8z
			"/>
		<circle class="st0" cx="244.4" cy="29.8" r="0.3"/>
		<path class="st0" d="M243.9,36.3c0,0.1,0.1,0.3,0.3,0.3c0.1,0,0.3-0.1,0.3-0.3c0-0.2-0.1-0.3-0.3-0.3
			C244,36,243.9,36.2,243.9,36.3z"/>
		<path class="st0" d="M244.6,19.4c0,0.1,0.1,0.3,0.2,0.3c0.1,0,0.3-0.1,0.3-0.3c0-0.1-0.1-0.3-0.3-0.3
			C244.7,19.2,244.6,19.3,244.6,19.4z"/>
		<path class="st0" d="M241.8,18.1c0,0.2,0.2,0.4,0.4,0.4s0.4-0.2,0.4-0.4c0-0.2-0.2-0.4-0.4-0.4S241.8,17.9,241.8,18.1z"/>
		<path class="st0" d="M242.7,14.8c0.2,0,0.4-0.2,0.4-0.4c0-0.2-0.2-0.4-0.4-0.4c-0.2,0-0.4,0.2-0.4,0.4
			C242.3,14.6,242.5,14.8,242.7,14.8z"/>
		<path class="st0" d="M244.6,5.8c0.2,0,0.3-0.1,0.3-0.3c0-0.2-0.1-0.3-0.3-0.3c-0.2,0-0.3,0.1-0.3,0.3
			C244.3,5.7,244.4,5.8,244.6,5.8z"/>
		<circle class="st0" cx="241.7" cy="8.4" r="0.4"/>
		<circle class="st0" cx="242.9" cy="10.7" r="0.4"/>
		<path class="st0" d="M243.2,7.3c0.2,0,0.3-0.2,0.3-0.3c0-0.2-0.2-0.4-0.3-0.4c-0.2,0-0.4,0.2-0.4,0.4C242.8,7.1,243,7.3,243.2,7.3
			z"/>
		<circle class="st0" cx="244.4" cy="9.3" r="0.3"/>
		<path class="st0" d="M244.2,13.4c0.2,0,0.3-0.1,0.3-0.3c0-0.2-0.1-0.3-0.3-0.3s-0.3,0.1-0.3,0.3C243.8,13.2,244,13.4,244.2,13.4z"
			/>
		<circle class="st0" cx="243.8" cy="16.9" r="0.3"/>
		<path class="st0" d="M225.1,23.8c0.5,0,1-0.4,1-1c0-0.5-0.4-1-1-1c-0.5,0-1,0.4-1,1C224.1,23.3,224.5,23.8,225.1,23.8z"/>
		<path class="st0" d="M212.9,77c0.2,0,0.3-0.1,0.3-0.3c0-0.2-0.1-0.3-0.3-0.3c-0.2,0-0.3,0.1-0.3,0.3C212.6,76.9,212.7,77,212.9,77
			z"/>
		<circle class="st0" cx="213" cy="68.4" r="0.8"/>
		<path class="st0" d="M213.7,75.1c0-0.2-0.2-0.4-0.4-0.4c-0.2,0-0.4,0.2-0.4,0.4c0,0.2,0.2,0.4,0.4,0.4
			C213.6,75.5,213.7,75.3,213.7,75.1z"/>
		<path class="st0" d="M214.4,73.5c0-0.3-0.2-0.5-0.5-0.5c-0.3,0-0.5,0.2-0.5,0.5c0,0.3,0.2,0.5,0.5,0.5
			C214.1,74,214.4,73.7,214.4,73.5z"/>
		<circle class="st0" cx="214.2" cy="71.7" r="0.6"/>
		<circle class="st0" cx="215.6" cy="62.2" r="0.9"/>
		<path class="st0" d="M213.7,63.7c0.5,0,0.9-0.4,0.9-0.9c0-0.5-0.4-0.9-0.9-0.9c-0.5,0-0.9,0.4-0.9,0.9
			C212.7,63.3,213.2,63.7,213.7,63.7z"/>
		<path class="st0" d="M213.8,59.9c-0.5,0-1,0.4-1,0.9c0,0.5,0.4,1,1,1c0.5,0,1-0.4,1-1C214.7,60.3,214.3,59.9,213.8,59.9z"/>
		<path class="st0" d="M214.9,77c0.1,0,0.2-0.1,0.2-0.2c0-0.1-0.1-0.2-0.2-0.2s-0.2,0.1-0.2,0.2C214.7,76.9,214.8,77,214.9,77z"/>
		<path class="st0" d="M213.2,67.4c0.5,0,0.9-0.4,0.9-0.9c0-0.5-0.4-0.9-0.9-0.9s-0.9,0.4-0.9,0.9C212.4,67,212.8,67.4,213.2,67.4z"
			/>
		<path class="st0" d="M213.5,65.6c0.5,0,0.9-0.4,0.9-0.9c0-0.5-0.4-0.9-0.9-0.9c-0.5,0-0.9,0.4-0.9,0.9
			C212.6,65.2,213,65.6,213.5,65.6z"/>
		<path class="st0" d="M217.4,75.3c0.1,0,0.3-0.1,0.3-0.3c0-0.1-0.1-0.3-0.3-0.3c-0.1,0-0.3,0.1-0.3,0.3
			C217.1,75.2,217.2,75.3,217.4,75.3z"/>
		<path class="st0" d="M218.8,71.3c0-0.3-0.2-0.5-0.5-0.5c-0.3,0-0.5,0.2-0.5,0.5c0,0.3,0.2,0.5,0.5,0.5
			C218.5,71.8,218.8,71.6,218.8,71.3z"/>
		<path class="st0" d="M220.2,73.1c0-0.2-0.2-0.4-0.4-0.4c-0.2,0-0.4,0.2-0.4,0.4s0.2,0.4,0.4,0.4C220,73.4,220.2,73.3,220.2,73.1z"
			/>
		<circle class="st0" cx="218.6" cy="69.3" r="0.6"/>
		<path class="st0" d="M219.4,75.2c0.1,0,0.2-0.1,0.2-0.2c0-0.1-0.1-0.2-0.2-0.2c-0.1,0-0.2,0.1-0.2,0.2
			C219.1,75.2,219.3,75.2,219.4,75.2z"/>
		<path class="st0" d="M216.9,76.9c0.1,0,0.2-0.1,0.2-0.2c0-0.1-0.1-0.2-0.2-0.2c-0.1,0-0.2,0.1-0.2,0.2
			C216.7,76.8,216.8,76.9,216.9,76.9z"/>
		<ellipse class="st0" cx="216.6" cy="69.6" rx="0.7" ry="0.7"/>
		<path class="st0" d="M216.8,71.5c0-0.3-0.3-0.6-0.6-0.6c-0.3,0-0.6,0.3-0.6,0.6c0,0.3,0.3,0.6,0.6,0.6
			C216.6,72.1,216.8,71.8,216.8,71.5z"/>
		<circle class="st0" cx="215.8" cy="73.3" r="0.5"/>
		<path class="st0" d="M215.4,75.4c0.2,0,0.3-0.1,0.3-0.3c0-0.2-0.1-0.3-0.3-0.3c-0.2,0-0.3,0.1-0.3,0.3
			C215.1,75.3,215.2,75.4,215.4,75.4z"/>
		<circle class="st0" cx="217.8" cy="73.2" r="0.4"/>
		<circle class="st0" cx="224.4" cy="25.9" r="1"/>
		<path class="st0" d="M222.9,40.3c0.5,0,0.9-0.4,0.9-0.9c0-0.5-0.4-0.9-0.9-0.9c-0.5,0-0.9,0.4-0.9,0.9
			C222,39.9,222.4,40.3,222.9,40.3z"/>
		<circle class="st0" cx="225.2" cy="27.9" r="0.9"/>
		<path class="st0" d="M221.4,37.3c0,0.5,0.4,1,1,1c0.5,0,1-0.4,1-1c0-0.5-0.4-1-1-1C221.8,36.3,221.4,36.8,221.4,37.3z"/>
		<path class="st0" d="M222.4,34.2c0,0.5,0.4,1,1,1c0.5,0,1-0.4,1-1c0-0.5-0.4-1-1-1C222.9,33.2,222.4,33.7,222.4,34.2z"/>
		<circle class="st0" cx="224.4" cy="31.1" r="0.9"/>
		<circle class="st0" cx="215.7" cy="60.2" r="0.9"/>
		<path class="st0" d="M229.1,21.4c-0.5,0-0.8,0.4-0.8,0.8c0,0.5,0.4,0.8,0.8,0.8c0.5,0,0.8-0.4,0.8-0.8
			C230,21.8,229.6,21.4,229.1,21.4z"/>
		<path class="st0" d="M230.7,20.2c-0.4,0-0.8,0.4-0.8,0.8c0,0.4,0.4,0.8,0.8,0.8c0.4,0,0.8-0.4,0.8-0.8
			C231.5,20.6,231.2,20.2,230.7,20.2z"/>
		<path class="st0" d="M227.6,22.6c-0.5,0-0.9,0.4-0.9,0.9c0,0.5,0.4,0.9,0.9,0.9c0.5,0,0.9-0.4,0.9-0.9
			C228.4,23,228,22.6,227.6,22.6z"/>
		<path class="st0" d="M226,23.8c-0.5,0-0.9,0.4-0.9,0.9c0,0.5,0.4,0.9,0.9,0.9c0.5,0,0.9-0.4,0.9-0.9
			C226.9,24.2,226.5,23.8,226,23.8z"/>
		<circle class="st0" cx="232.3" cy="47.4" r="0.6"/>
		<path class="st0" d="M217.4,52.5c-0.5,0-1,0.4-1,1c0,0.5,0.4,1,1,1c0.5,0,1-0.4,1-1C218.4,52.9,218,52.5,217.4,52.5z"/>
		<path class="st0" d="M220.7,42.5c0,0.5,0.4,1,1,1c0.5,0,1-0.4,1-1c0-0.5-0.4-1-1-1C221.1,41.5,220.7,41.9,220.7,42.5z"/>
		<path class="st0" d="M215.7,59.2c0.5,0,0.9-0.4,0.9-0.9c0-0.5-0.4-0.9-0.9-0.9c-0.5,0-0.9,0.4-0.9,0.9
			C214.8,58.8,215.2,59.2,215.7,59.2z"/>
		<path class="st0" d="M217.6,56.4c0.5,0,0.9-0.4,0.9-0.9c0-0.5-0.4-0.9-0.9-0.9c-0.5,0-0.9,0.4-0.9,0.9
			C216.6,56,217,56.4,217.6,56.4z"/>
		<path class="st0" d="M219.3,45.5c0,0.5,0.4,1,1,1c0.5,0,1-0.4,1-1c0-0.5-0.4-1-1-1C219.8,44.5,219.3,45,219.3,45.5z"/>
		<circle class="st0" cx="218.8" cy="48.5" r="1"/>
		<circle class="st0" cx="219.1" cy="50.6" r="1"/>
		<path class="st0" d="M219.3,53.6c0.5,0,0.9-0.4,0.9-0.9c0-0.5-0.4-0.9-0.9-0.9c-0.5,0-0.9,0.4-0.9,0.9
			C218.4,53.2,218.8,53.6,219.3,53.6z"/>
		<circle class="st0" cx="215.7" cy="56.2" r="1"/>
		<path class="st0" d="M229.2,65.6c0-0.2-0.2-0.4-0.4-0.4c-0.2,0-0.4,0.2-0.4,0.4c0,0.2,0.2,0.4,0.4,0.4
			C229,66,229.2,65.8,229.2,65.6z"/>
		<circle class="st0" cx="228.5" cy="68" r="0.3"/>
		<path class="st0" d="M229.4,63.2c0-0.3-0.2-0.5-0.5-0.5c-0.3,0-0.5,0.2-0.5,0.5c0,0.3,0.2,0.5,0.5,0.5
			C229.2,63.7,229.4,63.5,229.4,63.2z"/>
		<path class="st0" d="M229.6,60.9c0-0.3-0.2-0.5-0.5-0.5c-0.3,0-0.5,0.2-0.5,0.5c0,0.3,0.2,0.5,0.5,0.5
			C229.3,61.4,229.6,61.2,229.6,60.9z"/>
		<path class="st0" d="M229.1,57.9c-0.3,0-0.6,0.3-0.6,0.6s0.2,0.6,0.6,0.6c0.3,0,0.6-0.3,0.6-0.6C229.7,58.2,229.4,57.9,229.1,57.9
			z"/>
		<path class="st0" d="M229,46.5c0-0.4-0.3-0.7-0.7-0.7c-0.4,0-0.7,0.3-0.7,0.7c0,0.4,0.3,0.7,0.7,0.7C228.7,47.2,229,46.9,229,46.5
			z"/>
		<path class="st0" d="M227.2,56c-0.4,0-0.7,0.3-0.7,0.6c0,0.4,0.3,0.7,0.7,0.7c0.4,0,0.6-0.3,0.6-0.7C227.8,56.3,227.5,56,227.2,56
			z"/>
		<path class="st0" d="M229.1,55.5c-0.3,0-0.6,0.3-0.6,0.6c0,0.3,0.3,0.6,0.6,0.6c0.3,0,0.6-0.3,0.6-0.6S229.4,55.5,229.1,55.5z"/>
		<path class="st0" d="M228.6,49.6c0.4,0,0.7-0.3,0.7-0.7c0-0.4-0.3-0.7-0.7-0.7s-0.7,0.3-0.7,0.7C227.9,49.2,228.2,49.6,228.6,49.6
			z"/>
		<path class="st0" d="M228.2,70.5c0.1,0,0.2-0.1,0.2-0.2c0-0.1-0.1-0.2-0.2-0.2c-0.1,0-0.2,0.1-0.2,0.2
			C227.9,70.4,228.1,70.5,228.2,70.5z"/>
		<path class="st0" d="M232.6,44.9c0-0.3-0.3-0.6-0.6-0.6c-0.3,0-0.6,0.3-0.6,0.6c0,0.3,0.3,0.6,0.6,0.6
			C232.3,45.5,232.6,45.2,232.6,44.9z"/>
		<path class="st0" d="M231.5,60.4c0-0.3-0.2-0.5-0.5-0.5c-0.3,0-0.5,0.2-0.5,0.5c0,0.3,0.2,0.5,0.5,0.5
			C231.3,60.9,231.5,60.7,231.5,60.4z"/>
		<path class="st0" d="M231.3,62.9c0-0.2-0.2-0.4-0.4-0.4c-0.2,0-0.4,0.2-0.4,0.4c0,0.2,0.2,0.4,0.4,0.4
			C231.1,63.3,231.3,63.1,231.3,62.9z"/>
		<path class="st0" d="M231,57.4c-0.3,0-0.5,0.2-0.5,0.5c0,0.3,0.2,0.5,0.5,0.5s0.5-0.2,0.5-0.5C231.5,57.7,231.3,57.4,231,57.4z"/>
		<path class="st0" d="M227.2,58.4c-0.3,0-0.6,0.3-0.6,0.6c0,0.3,0.3,0.6,0.6,0.6c0.3,0,0.6-0.3,0.6-0.6
			C227.8,58.6,227.5,58.4,227.2,58.4z"/>
		<circle class="st0" cx="230.1" cy="45.7" r="0.7"/>
		<path class="st0" d="M230.4,48.8c0.4,0,0.6-0.3,0.6-0.6c0-0.4-0.3-0.6-0.6-0.6c-0.4,0-0.6,0.3-0.6,0.6
			C229.8,48.5,230.1,48.8,230.4,48.8z"/>
		<path class="st0" d="M230.2,70.2c0.1,0,0.2-0.1,0.2-0.2c0-0.1-0.1-0.2-0.2-0.2c-0.1,0-0.2,0.1-0.2,0.2
			C230,70.2,230.1,70.2,230.2,70.2z"/>
		<path class="st0" d="M230.8,67.7c0-0.2-0.1-0.3-0.3-0.3c-0.2,0-0.3,0.1-0.3,0.3c0,0.2,0.1,0.3,0.3,0.3
			C230.6,68,230.8,67.9,230.8,67.7z"/>
		<path class="st0" d="M231.1,65.3c0-0.2-0.2-0.4-0.4-0.4s-0.4,0.2-0.4,0.4c0,0.2,0.2,0.4,0.4,0.4C230.9,65.7,231.1,65.5,231.1,65.3
			z"/>
		<path class="st0" d="M227.2,65.9c0-0.3-0.2-0.5-0.5-0.5c-0.3,0-0.5,0.2-0.5,0.5c0,0.3,0.2,0.5,0.5,0.5
			C227,66.4,227.2,66.2,227.2,65.9z"/>
		<circle class="st0" cx="222.5" cy="68.8" r="0.5"/>
		<path class="st0" d="M222.6,70.9c0-0.2-0.2-0.4-0.4-0.4c-0.2,0-0.4,0.2-0.4,0.4c0,0.2,0.2,0.4,0.4,0.4
			C222.4,71.3,222.6,71.1,222.6,70.9z"/>
		<path class="st0" d="M221.8,73.2c0.2,0,0.3-0.1,0.3-0.3c0-0.2-0.1-0.3-0.3-0.3c-0.2,0-0.3,0.1-0.3,0.3
			C221.5,73.1,221.7,73.2,221.8,73.2z"/>
		<path class="st0" d="M223.4,66.6c0-0.3-0.3-0.6-0.6-0.6c-0.3,0-0.6,0.3-0.6,0.6c0,0.3,0.3,0.6,0.6,0.6
			C223.1,67.2,223.4,66.9,223.4,66.6z"/>
		<path class="st0" d="M223.7,64.5c0-0.3-0.3-0.6-0.6-0.6c-0.3,0-0.6,0.3-0.6,0.6c0,0.3,0.3,0.6,0.6,0.6S223.7,64.8,223.7,64.5z"/>
		<path class="st0" d="M221.1,69.1c0-0.3-0.3-0.6-0.6-0.6c-0.3,0-0.6,0.3-0.6,0.6c0,0.3,0.3,0.6,0.6,0.6
			C220.9,69.6,221.1,69.4,221.1,69.1z"/>
		<path class="st0" d="M223.8,73c0.1,0,0.2-0.1,0.2-0.2c0-0.1-0.1-0.2-0.2-0.2c-0.1,0-0.2,0.1-0.2,0.2C223.6,72.9,223.7,73,223.8,73
			z"/>
		<path class="st0" d="M227.7,61.3c0-0.3-0.3-0.6-0.6-0.6c-0.3,0-0.6,0.3-0.6,0.6s0.3,0.6,0.6,0.6C227.4,61.9,227.7,61.6,227.7,61.3
			z"/>
		<path class="st0" d="M221.4,75.2c0.1,0,0.2-0.1,0.2-0.2c0-0.1-0.1-0.2-0.2-0.2c-0.1,0-0.2,0.1-0.2,0.2
			C221.2,75.1,221.3,75.2,221.4,75.2z"/>
		<circle class="st0" cx="220.9" cy="67" r="0.6"/>
		<path class="st0" d="M225.8,72.8c0.1,0,0.2-0.1,0.2-0.2c0-0.1-0.1-0.2-0.2-0.2c-0.1,0-0.2,0.1-0.2,0.2
			C225.7,72.7,225.7,72.8,225.8,72.8z"/>
		<path class="st0" d="M226.9,68.2c0-0.2-0.2-0.4-0.4-0.4s-0.4,0.2-0.4,0.4c0,0.2,0.2,0.4,0.4,0.4S226.9,68.4,226.9,68.2z"/>
		<path class="st0" d="M220.7,71.1c0-0.3-0.2-0.5-0.5-0.5c-0.3,0-0.5,0.2-0.5,0.5c0,0.3,0.2,0.5,0.5,0.5
			C220.5,71.6,220.7,71.3,220.7,71.1z"/>
		<circle class="st0" cx="227" cy="63.6" r="0.5"/>
		<circle class="st0" cx="226.2" cy="70.5" r="0.3"/>
		<path class="st0" d="M224.6,70.7c0-0.2-0.2-0.4-0.4-0.4c-0.2,0-0.4,0.2-0.4,0.4c0,0.2,0.2,0.4,0.4,0.4
			C224.4,71,224.6,70.9,224.6,70.7z"/>
		<path class="st0" d="M225.3,66.3c0-0.3-0.2-0.5-0.5-0.5c-0.3,0-0.5,0.2-0.5,0.5c0,0.3,0.2,0.5,0.5,0.5
			C225.1,66.8,225.3,66.6,225.3,66.3z"/>
		<path class="st0" d="M225,68.5c0-0.2-0.2-0.5-0.5-0.5c-0.3,0-0.5,0.2-0.5,0.5c0,0.2,0.2,0.5,0.5,0.5C224.8,68.9,225,68.7,225,68.5
			z"/>
		<path class="st0" d="M225.6,64c0-0.3-0.3-0.6-0.6-0.6c-0.3,0-0.6,0.3-0.6,0.6c0,0.3,0.3,0.6,0.6,0.6
			C225.3,64.6,225.6,64.4,225.6,64z"/>
		<path class="st0" d="M225.8,61.8c0-0.3-0.3-0.6-0.6-0.6c-0.3,0-0.6,0.3-0.6,0.6c0,0.3,0.3,0.6,0.6,0.6
			C225.5,62.4,225.8,62.1,225.8,61.8z"/>
	</g>
	<g>
		<path class="st1" d="M342.3,145.2v-43.7c0-3.4,2.7-3.4,4-3.4v-1.1h-15.5v1.1c1.3,0,4,0,4,3.4v43.7c0,3.4-2.8,3.4-4,3.4v1.1h15.5
			v-1.1C345,148.6,342.3,148.6,342.3,145.2z"/>
		<path class="st1" d="M289.4,96.9h-13.9v1.1c6.7,0,4.9,4.4,4.1,7c-1.9,5.8-12.2,37.2-12.2,37.2h-0.2L254.4,104
			c-0.3-0.9-0.9-2.6-0.9-3.5c0-1.6,1-2.4,4-2.4v-1.1h-15.9v1.1c3.5,0,3.9,1.9,4.6,3.7l17,48.5h4.9c0,0,14.4-44.1,15.7-47.8
			c1.1-3.5,2.9-4.4,5.7-4.4L289.4,96.9L289.4,96.9z"/>
		<path class="st1" d="M308,118.8c-9.6-2-13.4-3.2-13.4-9.1c0-6,5-10.6,13.4-10.6c6,0,12.2,3.9,13.3,11h1.2l-0.3-11.4
			c-3.3-1.8-9.6-2.7-12.9-2.7c-12.5,0-20.6,7-20.6,15.1c0,10,7.2,12.5,20.6,15.3c5.4,1.1,9.9,2.7,9.9,9.3c0,8.5-7.2,11.7-12.9,11.7
			c-8.1,0-13.7-5.6-15.6-13.5h-1.2l0.5,12.7c4.5,2.7,9.3,3.8,14.1,3.8c14.4,0,21-7.7,21-16.8C325.1,122.9,317.7,120.9,308,118.8z"/>
		<path class="st1" d="M371.5,145.4l-21.7-24.7c0,0,15.1-16.5,16.8-18.3c2.3-2.5,4.3-4.4,7.5-4.4v-1.1h-15v1.1
			c6.4,0,4.5,3.1,3.3,4.4c-1.1,1.2-19.1,20.9-19.1,20.9l23,26.4h10.4v-1.1C374.3,148.6,373.1,147.4,371.5,145.4z"/>
		<path class="st1" d="M396.6,98.1v-1.1h-15.5v1.1c1.3,0,4,0,4,3.4v43.7c0,3.4-2.8,3.4-4,3.4v1.1h15.5v-1.1c-1.3,0-4,0-4-3.4v-43.7
			C392.7,98.1,395.4,98.1,396.6,98.1z"/>
		<path class="st1" d="M109.1,98.1l0-1.1H94.8v1.1c5.2,0,6.4,2,4.5,8.4C98.6,109,89,142.4,89,142.4h-0.2c0,0-10.3-34.2-11.1-36.9
			c-1.1-3.7-2.9-7.4,3.5-7.4v-1.1H63v1.1c2.9,0,5,0.9,6,3.7c0.6,1.7,4.5,12.9,4.5,14.3c0,1.5-4.7,17.2-7.2,25.6l-0.2,0
			c0,0-10.4-33.4-11.5-37c-0.6-1.8-1.1-2.9-1.1-4.2c0-1.6,1.1-2.4,3.7-2.4v-1.1H41.7v1.1c3.5,0,4.4,2.3,5.3,5.2l15,46.9h5.2l8.1-30
			h0.2l8.9,30h5.5l13.5-46.5C104.3,100.1,106.7,98.1,109.1,98.1z"/>
		<path class="st1" d="M23.3,118.8c-9.6-2-13.4-3.2-13.4-9.1c0-6,5.1-10.6,13.4-10.6c5.9,0,12.2,3.9,13.3,11l1.2,0l-0.3-11.4
			c-3.3-1.8-9.6-2.7-12.9-2.7c-12.5,0-20.6,7-20.6,15.1c0,10,7.2,12.5,20.6,15.3c5.4,1.1,9.9,2.7,9.9,9.3c0,8.5-7.2,11.7-12.9,11.7
			c-8.1,0-13.7-5.6-15.6-13.5H4.9l0.5,12.7c4.5,2.7,9.3,3.8,14.1,3.8c14.5,0,21-7.7,21-16.8C40.4,122.9,33.1,120.9,23.3,118.8z"/>
		<path class="st1" d="M187.6,142.7l-14-19c8.4-0.4,14.7-6.1,14.7-14.4c0-6.8-5.9-12.4-17.1-12.4h-19.4v1.1l0,0c1.8,0,4,0.4,4,3.4
			v43.7c0,0,0,0,0,0c0,3.4-2.8,3.4-4,3.4v1.1l0,0h15.5v-1.1c-1.3,0-4,0-4-3.4V100h4.2c9.5,0,13.7,3.8,13.7,10.7
			c0,6.2-2.8,11.7-15.9,11.7l19.4,27.4h10l0-1.1C192.4,148.6,189.9,145.8,187.6,142.7z"/>
		<path class="st1" d="M142.9,142l-16.4-45l-9.3,0v1.1c1.2,0,2.6,0.3,2.6,2.4c0,0.7-0.2,1.7-0.6,2.8c-0.2,0.7-13.8,39.9-13.8,39.9
			c-1.5,4.5-2.8,5.4-6,5.4l0,1.1h13.9v-1.1c-3.7,0-4.9-1.4-4.9-2.7c0-1.1,0.4-2.6,1.2-4.9l3.9-11.8h17.7l3.4,9.5
			c1.6,4.5,2.2,5.9,2.2,7.4c0,1.6-0.7,2.5-3.9,2.5v1.1h15.9v-1.1C145.2,148.6,145,147.5,142.9,142z M114.5,126.3l7.8-22.5h0.2
			l7.7,22.5H114.5z"/>
		<path class="st1" d="M219.5,96.1c-12,0-25.5,11.4-25.5,27.4c0,14.8,8.7,27.1,24.3,27.1c15.4,0,25.2-13.8,25.2-27.9
			C243.6,110.8,236.8,96.1,219.5,96.1z M220.8,146.4c-10.8,0-20.6-14.3-20.6-25.8c0-16.3,9.9-20,16.3-20c10.6,0,19.9,10.7,19.9,25
			C236.4,138.6,230.9,146.4,220.8,146.4z"/>
	</g>
</g>
</svg>
